<?xml version="1.0" standalone="no"?>
<!DOCTYPE svg PUBLIC "-//W3C//DTD SVG 1.1//EN" "http://www.w3.org/Graphics/SVG/1.1/DTD/svg11.dtd" >
<svg>
<metadata>
Created by FontForge 20120731 at Mon Jun 12 06:19:55 2017
 By www
Copyright (c) 2015 by Fontfabric LLC. All rights reserved.
</metadata>
<defs>
<font id="MullerRegular" horiz-adv-x="587" >
  <font-face 
    font-family="MullerRegular"
    font-weight="400"
    font-stretch="normal"
    units-per-em="1000"
    panose-1="0 0 0 0 0 0 0 0 0 0"
    ascent="759"
    descent="-241"
    x-height="480"
    cap-height="700"
    bbox="-161 -241 1251 964"
    underline-thickness="50"
    underline-position="-75"
    unicode-range="U+0020-25CA"
  />
<missing-glyph horiz-adv-x="249" 
 />
    <glyph glyph-name="f_f" unicode="ff" horiz-adv-x="691" 
d="M711 626q-46 22 -101 22q-51 0 -80 -21.5t-29 -81.5v-65h180v-74h-180v-406h-80v406h-230v-406h-80v406h-90v74h90v53q0 80 52.5 124.5t136.5 44.5q79 0 152 -41q45 61 139 61q64 0 120 -22v-74zM191 480h230v68q0 19 4 49q-53 31 -121 31q-51 0 -82 -23.5t-31 -71.5v-53
z" />
    <glyph glyph-name="f_f_i" unicode="ffi" horiz-adv-x="874" 
d="M191 0h-80v406h-90v74h90v53q0 80 52.5 124.5t136.5 44.5q78 0 157 -43q51 63 153 63q72 0 145 -35v-80q-71 41 -141 41q-113 0 -113 -105v-63h297v-480h-80v406h-217v-406h-80v406h-230v-406zM191 533v-53h230v63q0 29 6 53q-54 32 -123 32q-51 0 -82 -23.5t-31 -71.5z
" />
    <glyph glyph-name="f_f_l" unicode="ffl" horiz-adv-x="884" 
d="M610 722q65 0 131 -29l67 17v-710h-80v626q-51 22 -114 22q-113 0 -113 -105v-63h150v-74h-150v-406h-80v406h-230v-406h-80v406h-90v74h90v53q0 80 52.5 124.5t136.5 44.5q78 0 157 -43q51 63 153 63zM421 480v63q0 29 6 53q-54 32 -123 32q-51 0 -82 -23.5t-31 -71.5
v-53h230z" />
    <glyph glyph-name=".notdef" horiz-adv-x="249" 
 />
    <glyph glyph-name=".null" horiz-adv-x="0" 
 />
    <glyph glyph-name="nonmarkingreturn" horiz-adv-x="333" 
 />
    <glyph glyph-name="space" unicode=" " horiz-adv-x="249" 
 />
    <glyph glyph-name="exclam" unicode="!" horiz-adv-x="230" 
d="M150 203h-70l-7 497h84zM166 40q0 -24 -15 -37t-36 -13t-36 13t-15 37t15 37t36 13t36 -13t15 -37z" />
    <glyph glyph-name="quotedbl" unicode="&#x22;" horiz-adv-x="318" 
d="M248 520h-56v180h76zM118 520h-56v180h76z" />
    <glyph glyph-name="numbersign" unicode="#" horiz-adv-x="653" 
d="M155 0h-80l40 171h-78v70h95l47 199h-92v70h109l40 171h80l-40 -171h182l40 171h80l-40 -171h77v-70h-94l-47 -199h91v-70h-108l-40 -171h-80l40 171h-182zM259 440l-47 -199h182l47 199h-182z" />
    <glyph glyph-name="dollar" unicode="$" horiz-adv-x="583" 
d="M317 -130h-70v120q-116 11 -199 58v84q105 -64 244 -64q170 0 170 104q0 38 -22.5 64.5t-59 41.5t-80.5 27t-88 26.5t-80.5 34t-59 55.5t-22.5 86q0 79 55 126t142 57v120h70v-119q109 -6 185 -50v-84q-88 57 -206 55q-161 0 -161 -102q0 -36 22.5 -61t59 -39t80.5 -25.5
t88 -26.5t80.5 -35t59 -57t22.5 -88q0 -94 -64 -140.5t-166 -49.5v-118z" />
    <glyph glyph-name="percent" unicode="%" horiz-adv-x="896" 
d="M284 -60h-80l409 820h80zM361 555q0 -73 -47.5 -115t-115.5 -42q-69 0 -117 42t-48 115t48 115t117 42q68 0 115.5 -42t47.5 -115zM109 555q0 -37 23.5 -62t65.5 -25q41 0 64 25t23 62t-23 62t-64 25q-42 0 -65.5 -25t-23.5 -62zM863 145q0 -73 -47.5 -115t-115.5 -42
q-69 0 -117 42t-48 115t48 115t117 42q68 0 115.5 -42t47.5 -115zM611 145q0 -37 23.5 -62t65.5 -25q41 0 64 25t23 62t-23 62t-64 25q-42 0 -65.5 -25t-23.5 -62z" />
    <glyph glyph-name="ampersand" unicode="&#x26;" horiz-adv-x="705" 
d="M572 120l129 -120h-101l-76 69q-94 -81 -239 -81q-110 0 -173 50.5t-63 129.5q0 111 148 197l-2 2q-83 81 -83 165q0 75 62.5 127.5t154.5 52.5q84 0 136 -42.5t52 -111.5q0 -37 -17.5 -70t-51.5 -60t-59.5 -42.5t-64.5 -35.5l189 -176q47 67 44 153h84q0 -119 -69 -207z
M328 636q-59 0 -96.5 -30.5t-37.5 -74.5q0 -57 74 -129q167 77 167 150q0 39 -28.5 61.5t-78.5 22.5zM133 172q0 -51 40.5 -79.5t116.5 -28.5q102 0 175 58l-211 191q-121 -65 -121 -141z" />
    <glyph glyph-name="quotesingle" unicode="'" horiz-adv-x="188" 
d="M118 520h-56v180h76z" />
    <glyph glyph-name="parenleft" unicode="(" horiz-adv-x="288" 
d="M189 809h78q-63 -94 -98 -217t-35 -242t35 -242t98 -217h-78q-67 97 -106 218.5t-39 240.5t39 240.5t106 218.5z" />
    <glyph glyph-name="parenright" unicode=")" horiz-adv-x="288" 
d="M21 809h78q67 -97 106 -218.5t39 -240.5t-39 -240.5t-106 -218.5h-78q63 94 98 217t35 242t-35 242t-98 217z" />
    <glyph glyph-name="asterisk" unicode="*" horiz-adv-x="445" 
d="M223 492l-75 -120l-61 42l87 106l-130 32l26 70l124 -49l-8 127h74l-9 -127l125 49l25 -70l-130 -32l87 -106l-60 -42z" />
    <glyph glyph-name="plus" unicode="+" horiz-adv-x="534" 
d="M305 388h185v-76h-185v-185h-76v185h-185v76h185v185h76v-185z" />
    <glyph glyph-name="comma" unicode="," horiz-adv-x="224" 
d="M86 -150h-65l55 230h85z" />
    <glyph glyph-name="hyphen" unicode="-" horiz-adv-x="485" 
d="M64 286h357v-76h-357v76z" />
    <glyph glyph-name="period" unicode="." horiz-adv-x="215" 
d="M160 42q0 -24 -15 -37.5t-37 -13.5t-37.5 13.5t-15.5 37.5t15.5 37t37.5 13t37 -13t15 -37z" />
    <glyph glyph-name="slash" unicode="/" horiz-adv-x="423" 
d="M92 -58h-60l298 816h60z" />
    <glyph glyph-name="zero" unicode="0" horiz-adv-x="703" 
d="M51 340q0 158 76 255t224 97q149 0 225 -96.5t76 -255.5t-76 -255.5t-225 -96.5q-148 0 -224 97t-76 255zM567 340q0 131 -53.5 201.5t-162.5 70.5t-162 -70.5t-53 -201.5t53 -201.5t162 -70.5t162.5 70.5t53.5 201.5z" />
    <glyph glyph-name="one" unicode="1" horiz-adv-x="430" 
d="M218 680h62v-600h127v-80h-354v80h143v511l-143 -54v80z" />
    <glyph glyph-name="two" unicode="2" horiz-adv-x="574" 
d="M68 626q95 66 218 66q106 0 169 -48t63 -134q0 -41 -15.5 -77t-46 -66t-59 -50.5t-71.5 -45.5q-5 -3 -30.5 -18t-32 -19t-28 -17.5t-28 -19.5t-22 -19t-21 -22t-14 -22.5t-11.5 -26.5t-3 -28l387 1v-80h-479v40q0 56 18 101.5t51.5 78t66.5 55t77 48.5q10 5 15 8
q91 53 119 81q43 44 43 99q0 50 -40.5 76.5t-114.5 26.5q-108 0 -211 -72v84z" />
    <glyph glyph-name="three" unicode="3" 
d="M510 507q0 -52 -27.5 -93.5t-71.5 -56.5q52 -16 89.5 -58.5t37.5 -113.5q0 -95 -70.5 -146t-178.5 -51q-137 0 -237 45v83q97 -50 230 -49q175 0 175 122t-166 122h-104v80l95 -1q72 0 109.5 30.5t37.5 79.5q0 53 -42 83.5t-119 30.5q-106 0 -204 -52v82q94 48 215 48
q104 0 167.5 -51t63.5 -134z" />
    <glyph glyph-name="four" unicode="4" horiz-adv-x="645" 
d="M396 680h91v-451h128v-78h-128v-151h-83v151h-379v75zM404 229v338l-276 -338h276z" />
    <glyph glyph-name="five" unicode="5" horiz-adv-x="579" 
d="M94 680h408v-80h-329l-12 -192q54 15 116 15q51 0 95 -11.5t81.5 -36t59.5 -68t22 -102.5q0 -101 -74.5 -159t-189.5 -58q-124 0 -218 46v80q90 -48 208 -48q86 0 137.5 36t51.5 103q0 142 -202 142q-88 0 -176 -32z" />
    <glyph glyph-name="six" unicode="6" horiz-adv-x="621" 
d="M137 359q97 65 213 65q93 0 163 -56.5t70 -156.5q0 -105 -69.5 -164t-174.5 -59q-144 0 -215.5 89.5t-71.5 251.5q0 180 85.5 271.5t223.5 91.5q89 0 165 -39v-80q-74 39 -163 39q-94 0 -156.5 -60.5t-69.5 -192.5zM138 275q19 -209 195 -209q74 0 119.5 34t45.5 107
q0 74 -47 106.5t-122 32.5q-111 0 -191 -71z" />
    <glyph glyph-name="seven" unicode="7" horiz-adv-x="538" 
d="M27 680h490v-76l-284 -604h-90l282 600h-398v80z" />
    <glyph glyph-name="eight" unicode="8" horiz-adv-x="647" 
d="M73 516q0 72 63 124t185 52q113 0 182 -55t71 -132q3 -105 -93 -172q117 -58 117 -160q0 -78 -68.5 -131.5t-202.5 -53.5q-133 0 -205.5 58t-72.5 141q0 50 29.5 99.5t86.5 83.5q-92 56 -92 146zM331 306q-52 14 -95 30q-50 -24 -76.5 -62t-26.5 -78q0 -61 50.5 -95.5
t145.5 -34.5q80 0 132.5 28.5t52.5 74.5q0 67 -78 102q-26 12 -105 35zM490 490q0 53 -45 88.5t-126 35.5q-74 0 -118 -27.5t-44 -69.5q0 -29 12.5 -50.5t38 -36t46.5 -23t56 -18.5l6 -1.5t5 -1.5l6 -2t34.5 -9.5t48.5 -13.5q80 52 80 129z" />
    <glyph glyph-name="nine" unicode="9" horiz-adv-x="620" 
d="M38 469q0 105 69.5 164t174.5 59q144 0 215.5 -89.5t71.5 -251.5q0 -180 -85.5 -271.5t-223.5 -91.5q-89 0 -165 39v80q74 -39 163 -39q94 0 156.5 60.5t69.5 192.5q-98 -65 -213 -65q-93 0 -163 56.5t-70 156.5zM288 614q-74 0 -119.5 -34t-45.5 -107q0 -74 47 -106.5
t122 -32.5q111 0 191 71q-19 209 -195 209z" />
    <glyph glyph-name="colon" unicode=":" horiz-adv-x="232" 
d="M168 390q0 -24 -15 -37.5t-38 -13.5q-22 0 -37 13.5t-15 37.5t15 37.5t37 13.5q23 0 38 -13.5t15 -37.5zM168 42q0 -24 -15 -37.5t-38 -13.5q-22 0 -37 13.5t-15 37.5t15 37t37 13q23 0 38 -13t15 -37z" />
    <glyph glyph-name="semicolon" unicode=";" horiz-adv-x="282" 
d="M117 -150h-65l55 230h85zM191 426q0 -24 -15 -37.5t-38 -13.5q-22 0 -37 13.5t-15 37.5t15 37.5t37 13.5q23 0 38 -13.5t15 -37.5z" />
    <glyph glyph-name="less" unicode="&#x3c;" horiz-adv-x="503" 
d="M422 235v-78l-376 153v80l376 153v-78l-295 -115z" />
    <glyph glyph-name="equal" unicode="=" horiz-adv-x="555" 
d="M489 403h-423v76h423v-76zM489 221h-423v76h423v-76z" />
    <glyph glyph-name="greater" unicode="&#x3e;" horiz-adv-x="503" 
d="M457 310l-376 -153v78l295 115l-295 115v78l376 -153v-80z" />
    <glyph glyph-name="question" unicode="?" horiz-adv-x="491" 
d="M270 208h-80q0 44 28.5 90t62 79.5t62 76.5t28.5 81q0 97 -154 97q-90 0 -180 -53v80q90 53 193 53q100 0 163 -43.5t63 -125.5q0 -39 -19 -78t-46.5 -70.5t-55 -61.5t-46.5 -62.5t-19 -62.5zM282 42q0 -24 -15 -37.5t-37 -13.5t-37.5 13.5t-15.5 37.5t15.5 37t37.5 13
t37 -13t15 -37z" />
    <glyph glyph-name="at" unicode="@" horiz-adv-x="1051" 
d="M44 240q0 92 33 176t94 150.5t155 106t208 39.5q90 0 168 -26.5t132 -70.5t93 -100.5t57.5 -116.5t18.5 -119q0 -133 -53.5 -202t-143.5 -69q-58 0 -99 26.5t-57 76.5q-49 -82 -151 -82q-85 0 -140.5 59.5t-55.5 148.5q0 90 55.5 150t140.5 60q47 0 85 -21.5t57 -52.5v64
h78v-262q0 -97 88 -97q56 0 84 55t28 146q0 63 -25 124.5t-72 113t-122 83.5t-166 32q-125 0 -219 -55.5t-140.5 -143.5t-46.5 -193q0 -122 59.5 -212.5t157 -135t218.5 -44.5q118 0 220 36v-80q-101 -36 -222 -36q-104 0 -196.5 31t-164.5 89t-114 149t-42 203zM641 274
q-11 41 -46 70t-86 29q-53 0 -89.5 -37.5t-36.5 -97.5t36.5 -97.5t89.5 -37.5q51 0 86 29t46 70v72z" />
    <glyph glyph-name="A" unicode="A" horiz-adv-x="717" 
d="M98 0h-91l305 700h93l304 -700h-90l-72 169h-377zM347 587l-144 -340h311l-145 340q-2 5 -11 27q-9 -23 -11 -27z" />
    <glyph glyph-name="B" unicode="B" horiz-adv-x="691" 
d="M92 700h287q110 0 174 -45.5t64 -131.5q0 -62 -33 -101.5t-79 -53.5q56 -15 98 -57.5t42 -118.5q0 -46 -17.5 -81t-44 -55.5t-62 -33.5t-68 -17.5t-66.5 -4.5h-295v700zM560 201q0 121 -167 121h-217v-242h194q32 0 54 1.5t50 8t45 19t29 36t12 56.5zM532 511
q0 59 -40.5 84t-119.5 25h-196v-218h219q60 0 98.5 26.5t38.5 82.5z" />
    <glyph glyph-name="C" unicode="C" horiz-adv-x="653" 
d="M45 345q0 116 55 201.5t137 125.5t176 40q108 0 197 -47v-84q-76 51 -183 51q-120 0 -208 -73.5t-89 -213.5q0 -89 45.5 -154t112 -94t142.5 -29q113 0 185 51v-84q-91 -47 -203 -47q-67 0 -132 23.5t-118 67t-85 113t-32 153.5z" />
    <glyph glyph-name="D" unicode="D" horiz-adv-x="738" 
d="M92 700h230q179 0 274.5 -96.5t95.5 -253.5t-95.5 -253.5t-274.5 -96.5h-230v700zM607 350q0 128 -72.5 199t-212.5 71h-146v-540h146q140 0 212.5 71t72.5 199z" />
    <glyph glyph-name="E" unicode="E" horiz-adv-x="620" 
d="M92 700h472v-80h-388v-227h358v-80h-358v-233h394v-80h-478v700z" />
    <glyph glyph-name="F" unicode="F" horiz-adv-x="604" 
d="M92 700h474v-80h-390v-241h361v-80h-361v-299h-84v700z" />
    <glyph glyph-name="G" unicode="G" horiz-adv-x="705" 
d="M46 350q0 115 55 199.5t138 123.5t179 39q116 0 210 -47v-84q-81 51 -198 51q-57 0 -109 -16.5t-95.5 -49t-69 -88.5t-25.5 -128q0 -76 26 -132.5t70 -88t95.5 -46.5t109.5 -15q75 0 129 26v278h84v-337q-102 -47 -219 -47q-75 0 -141 20t-120.5 61.5t-86.5 113.5
t-32 167z" />
    <glyph glyph-name="H" unicode="H" horiz-adv-x="767" 
d="M591 700h84v-700h-84v311h-415v-311h-84v700h84v-309h415v309z" />
    <glyph glyph-name="I" unicode="I" horiz-adv-x="268" 
d="M92 700h84v-700h-84v700z" />
    <glyph glyph-name="J" unicode="J" horiz-adv-x="513" 
d="M137 700h290v-502q0 -105 -63.5 -156.5t-166.5 -51.5q-111 0 -180 43v84q67 -47 165 -47q161 0 161 131v419h-206v80z" />
    <glyph glyph-name="K" unicode="K" horiz-adv-x="665" 
d="M176 0h-84v700h84v-303h159l211 303h96l-238 -341l259 -359h-96l-229 317h-162v-317z" />
    <glyph glyph-name="L" unicode="L" horiz-adv-x="579" 
d="M92 700h84v-620h388v-80h-472v700z" />
    <glyph glyph-name="M" unicode="M" horiz-adv-x="906" 
d="M742 700h72v-700h-84v541l-251 -376h-52l-251 376v-541h-84v700h72l289 -432z" />
    <glyph glyph-name="N" unicode="N" horiz-adv-x="767" 
d="M176 0h-84v700h78l421 -559v60v499h84v-700h-78l-421 560v-60v-500z" />
    <glyph glyph-name="O" unicode="O" horiz-adv-x="822" 
d="M45 350q0 69 23.5 133t67.5 115.5t115 82.5t160 31t160 -31t115 -82.5t67.5 -115.5t23.5 -133t-23.5 -133t-67.5 -115.5t-115 -82.5t-160 -31t-160 31t-115 82.5t-67.5 115.5t-23.5 133zM692 350q0 55 -17.5 105t-51 90t-88.5 63.5t-124 23.5t-124 -23.5t-88.5 -63.5
t-51 -90t-17.5 -105t17.5 -105t51 -90t88.5 -63.5t124 -23.5t124 23.5t88.5 63.5t51 90t17.5 105z" />
    <glyph glyph-name="P" unicode="P" horiz-adv-x="661" 
d="M92 700h239q297 0 297 -226t-297 -226h-155v-248h-84v700zM543 474q0 43 -16 72.5t-45.5 45t-64.5 22t-82 6.5h-159v-292h159q97 0 152.5 32t55.5 114z" />
    <glyph glyph-name="Q" unicode="Q" horiz-adv-x="822" 
d="M777 -8l-54 -54l-105 105q-89 -55 -207 -55q-89 0 -160 31t-115 82.5t-67.5 115.5t-23.5 133t23.5 133t67.5 115.5t115 82.5t160 31t160 -31t115 -82.5t67.5 -115.5t23.5 -133q0 -156 -100 -259zM130 350q0 -55 17.5 -105t51 -90t88.5 -63.5t124 -23.5q83 0 147 35
l-122 122l54 53l128 -128q74 78 74 200q0 55 -17.5 105t-51 90t-88.5 63.5t-124 23.5t-124 -23.5t-88.5 -63.5t-51 -90t-17.5 -105z" />
    <glyph glyph-name="R" unicode="R" horiz-adv-x="695" 
d="M176 0h-84v700h274q69 0 125 -18.5t96.5 -68t40.5 -125.5q0 -90 -52 -140t-135 -65l237 -283h-105l-229 276h-168v-276zM176 620v-264h194q74 0 123.5 30.5t49.5 101.5q0 72 -49.5 102t-123.5 30h-194z" />
    <glyph glyph-name="S" unicode="S" horiz-adv-x="585" 
d="M50 527q0 89 69 137t171 48q123 0 212 -51v-84q-88 57 -206 55q-161 0 -161 -102q0 -41 31 -70t77 -44t100.5 -34.5t100.5 -40t77 -62.5t31 -101q0 -50 -21.5 -88t-58.5 -60t-82 -32t-97 -10q-133 0 -240 60v84q105 -64 234 -64q180 0 180 104q0 38 -23 65.5t-60 44.5
t-81.5 31t-88.5 30.5t-81 38t-60 58.5t-23 87z" />
    <glyph glyph-name="T" unicode="T" horiz-adv-x="604" 
d="M14 700h576v-80h-246v-620h-84v620h-246v80z" />
    <glyph glyph-name="U" unicode="U" horiz-adv-x="753" 
d="M585 700h84v-444q0 -72 -23.5 -125.5t-65 -84t-92 -44.5t-111.5 -14q-129 0 -211 64t-82 204v444h84v-440q0 -192 209 -192q208 0 208 192v440z" />
    <glyph glyph-name="V" unicode="V" horiz-adv-x="689" 
d="M388 0h-87l-290 700h90l243 -606l244 606h90z" />
    <glyph glyph-name="W" unicode="W" horiz-adv-x="999" 
d="M898 700h92l-220 -700h-94l-177 560l-177 -560h-93l-220 700h92l175 -598l186 598h75l186 -598z" />
    <glyph glyph-name="X" unicode="X" horiz-adv-x="645" 
d="M102 0h-100l271 360l-256 340h100l206 -273l205 273h100l-255 -340l270 -360h-100l-220 293z" />
    <glyph glyph-name="Y" unicode="Y" horiz-adv-x="656" 
d="M370 0h-84v265l-275 435h93l224 -360l224 360h93l-275 -435v-265z" />
    <glyph glyph-name="Z" unicode="Z" horiz-adv-x="586" 
d="M554 0h-519v76l402 544h-392v80h493v-76l-403 -544h419v-80z" />
    <glyph glyph-name="bracketleft" unicode="[" horiz-adv-x="285" 
d="M257 -110h-187v920h187v-80h-103v-760h103v-80z" />
    <glyph glyph-name="backslash" unicode="\" horiz-adv-x="423" 
d="M391 -58h-60l-298 816h60z" />
    <glyph glyph-name="bracketright" unicode="]" horiz-adv-x="285" 
d="M215 -110h-187v80h103v760h-103v80h187v-920z" />
    <glyph glyph-name="asciicircum" unicode="^" horiz-adv-x="536" 
d="M136 380h-90l187 320h70l187 -320h-90l-132 231z" />
    <glyph glyph-name="underscore" unicode="_" horiz-adv-x="454" 
d="M454 -149h-454v76h454v-76z" />
    <glyph glyph-name="grave" unicode="`" horiz-adv-x="185" 
d="M176 770h-87l-104 147h100z" />
    <glyph glyph-name="a" unicode="a" horiz-adv-x="544" 
d="M464 100q0 -37 37 -37q16 0 37 7v-65q-30 -11 -60 -11q-69 0 -88 58q-77 -64 -187 -64q-70 0 -119.5 37.5t-49.5 108.5q0 85 63.5 123.5t153.5 38.5q66 0 133 -15v17q0 55 -36 87.5t-101 32.5q-91 0 -175 -36v78q94 32 183 32q98 0 153.5 -52.5t55.5 -151.5v-188z
M116 138q0 -40 30.5 -60.5t73.5 -20.5q99 0 164 70v88q-68 14 -122 14q-61 0 -103.5 -21.5t-42.5 -69.5z" />
    <glyph glyph-name="b" unicode="b" horiz-adv-x="621" 
d="M74 700h80v-292q72 84 186 84q103 0 171.5 -72t68.5 -180t-68.5 -180t-171.5 -72q-113 0 -194 92v-80h-72v700zM500 240q0 80 -48.5 129t-120.5 49q-61 0 -108 -34t-69 -84v-120q22 -50 69 -84t108 -34q72 0 120.5 49t48.5 129z" />
    <glyph glyph-name="c" unicode="c" horiz-adv-x="493" 
d="M41 238q0 63 23 113t60.5 80t83 45.5t93.5 15.5q89 0 148 -39v-78q-55 43 -138 43q-78 0 -134 -45t-56 -133q0 -87 55.5 -132.5t132.5 -45.5q80 0 145 39v-80q-68 -33 -156 -33q-104 0 -180.5 65t-76.5 185z" />
    <glyph glyph-name="d" unicode="d" horiz-adv-x="621" 
d="M467 700h80v-700h-72v80q-81 -92 -194 -92q-103 0 -171.5 72t-68.5 180t68.5 180t171.5 72q114 0 186 -84v292zM467 300q-22 50 -69 84t-108 34q-72 0 -120.5 -49t-48.5 -129t48.5 -129t120.5 -49q61 0 108 34t69 84v120z" />
    <glyph glyph-name="e" unicode="e" horiz-adv-x="548" 
d="M41 240q0 118 72.5 185t166.5 67q88 0 145.5 -44t75.5 -108.5t2 -134.5h-382q7 -71 63 -107t135 -36q88 0 158 39v-78q-67 -35 -170 -35q-114 0 -190 65t-76 187zM432 275q3 21 -3 44t-21.5 46t-47.5 38t-75 15q-65 0 -112.5 -38t-51.5 -105h311z" />
    <glyph glyph-name="f" unicode="f" horiz-adv-x="381" 
d="M191 0h-80v406h-90v74h90v58q0 48 14.5 83.5t39.5 54.5t53.5 27.5t62.5 8.5q64 0 120 -22v-74q-46 22 -101 22q-51 0 -80 -21.5t-29 -81.5v-55h180v-74h-180v-406z" />
    <glyph glyph-name="g" unicode="g" horiz-adv-x="621" 
d="M41 240q0 108 68.5 180t171.5 72q113 0 194 -92v80h72v-480q0 -116 -76 -174t-186 -58q-107 0 -195 45v78q87 -49 185 -49q85 0 139 37.5t53 120.5v74q-70 -86 -186 -86q-103 0 -171.5 72t-68.5 180zM467 300q-22 50 -69 84t-108 34q-72 0 -120.5 -49t-48.5 -129
t48.5 -129t120.5 -49q61 0 108 31.5t69 76.5v130z" />
    <glyph glyph-name="h" unicode="h" 
d="M74 700h80v-281q28 31 71.5 52t93.5 21q87 0 143.5 -54.5t56.5 -141.5v-296h-80v286q0 65 -35.5 98.5t-93.5 33.5q-92 0 -156 -96v-322h-80v700z" />
    <glyph glyph-name="i" unicode="i" horiz-adv-x="232" 
d="M156 0h-80v480h80v-480zM168 633q0 -24 -15 -37.5t-37 -13.5t-37 13.5t-15 37.5t15 37.5t37 13.5t37 -13.5t15 -37.5z" />
    <glyph glyph-name="j" unicode="j" horiz-adv-x="232" 
d="M156 -89q0 -77 -40 -110t-98 -33q-42 0 -74 13v74q22 -11 52 -11q80 0 80 79v557h80v-569zM168 633q0 -24 -15 -37.5t-37 -13.5t-37.5 13.5t-15.5 37.5t15.5 37.5t37.5 13.5t37 -13.5t15 -37.5z" />
    <glyph glyph-name="k" unicode="k" horiz-adv-x="521" 
d="M518 0h-94l-176 206h-94v-206h-80v700h80v-420h97l152 200h93l-182 -239z" />
    <glyph glyph-name="l" unicode="l" horiz-adv-x="232" 
d="M76 730h80v-730h-80v730z" />
    <glyph glyph-name="m" unicode="m" horiz-adv-x="890" 
d="M154 0h-80v480h72v-64q71 76 164 76q107 0 154 -81q79 81 175 81q87 0 135 -54.5t48 -141.5v-296h-80v298q0 55 -30 87.5t-82 32.5q-77 0 -140 -79q3 -21 3 -43v-296h-80v298q0 55 -30 87.5t-82 32.5q-80 0 -147 -87v-331z" />
    <glyph glyph-name="n" unicode="n" 
d="M146 409q26 35 72.5 59t100.5 24q87 0 143.5 -54.5t56.5 -141.5v-296h-80v286q0 65 -35.5 98.5t-93.5 33.5q-92 0 -156 -96v-322h-80v480h72v-71z" />
    <glyph glyph-name="o" unicode="o" horiz-adv-x="594" 
d="M41 240q0 117 76 184.5t180 67.5q105 0 180.5 -67.5t75.5 -184.5t-75.5 -184.5t-180.5 -67.5q-104 0 -180 67.5t-76 184.5zM473 240q0 81 -50 128.5t-126 47.5t-126 -47.5t-50 -128.5t50 -128.5t126 -47.5t126 47.5t50 128.5z" />
    <glyph glyph-name="p" unicode="p" horiz-adv-x="621" 
d="M146 400q81 92 194 92q103 0 171.5 -72t68.5 -180t-68.5 -180t-171.5 -72q-114 0 -186 84v-292h-80v700h72v-80zM500 240q0 80 -48.5 129t-120.5 49q-61 0 -108 -34t-69 -84v-120q22 -50 69 -84t108 -34q72 0 120.5 49t48.5 129z" />
    <glyph glyph-name="q" unicode="q" horiz-adv-x="621" 
d="M41 240q0 108 68.5 180t171.5 72q113 0 194 -92v80h72v-700h-80v292q-72 -84 -186 -84q-103 0 -171.5 72t-68.5 180zM467 300q-22 50 -69 84t-108 34q-72 0 -120.5 -49t-48.5 -129t48.5 -129t120.5 -49q61 0 108 34t69 84v120z" />
    <glyph glyph-name="r" unicode="r" horiz-adv-x="366" 
d="M146 395q28 47 86 73.5t121 21.5v-80q-70 8 -123.5 -22.5t-75.5 -88.5v-299h-80v480h72v-85z" />
    <glyph glyph-name="s" unicode="s" horiz-adv-x="466" 
d="M46 354q0 69 53.5 103.5t129.5 34.5q93 0 170 -41v-76q-30 20 -76 32.5t-89 12.5q-44 0 -75.5 -15.5t-31.5 -48.5q0 -24 22.5 -41.5t56.5 -26.5t73.5 -22.5t73.5 -28t56.5 -44t22.5 -70.5q0 -70 -56 -102.5t-142 -32.5q-113 0 -186 47v78q76 -51 182 -51q122 0 122 59
q0 27 -31.5 45.5t-76.5 31t-90 28.5t-76.5 48t-31.5 80z" />
    <glyph glyph-name="t" unicode="t" horiz-adv-x="410" 
d="M106 629l79 20v-169h192v-74h-192v-248q0 -53 24.5 -74t78.5 -21q52 0 106 22v-74q-61 -22 -129 -22q-73 0 -116 39.5t-43 115.5v262h-90v74h90v149z" />
    <glyph glyph-name="u" unicode="u" 
d="M433 480h80v-480h-72v71q-26 -35 -72.5 -59t-100.5 -24q-93 0 -146.5 53.5t-53.5 142.5v296h80v-286q0 -132 129 -132q92 0 156 96v322z" />
    <glyph glyph-name="v" unicode="v" horiz-adv-x="536" 
d="M433 480h89l-212 -480h-84l-212 480h89l165 -390z" />
    <glyph glyph-name="w" unicode="w" horiz-adv-x="798" 
d="M696 480h84l-164 -480h-87l-130 371l-130 -371h-87l-164 480h84l124 -392l137 392h72l137 -392z" />
    <glyph glyph-name="x" unicode="x" horiz-adv-x="489" 
d="M375 480h92l-176 -233l186 -247h-92l-140 190l-141 -190h-92l187 247l-177 233h92l131 -177z" />
    <glyph glyph-name="y" unicode="y" horiz-adv-x="538" 
d="M276 91l162 389h85l-236 -552q-69 -160 -181 -160q-27 0 -52 7v69q21 -6 42 -6q77 0 124 117l18 44l-228 481h85z" />
    <glyph glyph-name="z" unicode="z" horiz-adv-x="464" 
d="M48 480h364v-71l-282 -339h301v-70h-395v71l282 339h-270v70z" />
    <glyph glyph-name="braceleft" unicode="{" horiz-adv-x="308" 
d="M268 -40v-70q-77 -16 -118 15.5t-41 99.5v229q0 44 -24.5 64t-55.5 17v70q30 -3 55 17t25 64v229q0 68 41 99.5t118 15.5v-70q-42 6 -58.5 -14t-16.5 -66v-200q0 -49 -16 -77t-41 -33q25 -5 41 -33t16 -77v-200q0 -46 16.5 -66t58.5 -14z" />
    <glyph glyph-name="bar" unicode="|" horiz-adv-x="224" 
d="M154 -100h-84v910h84v-910z" />
    <glyph glyph-name="braceright" unicode="}" horiz-adv-x="308" 
d="M199 5q0 -68 -41 -99.5t-118 -15.5v70q42 -6 58.5 14t16.5 66v200q0 49 16 77t41 33q-25 5 -41 33t-16 77v200q0 46 -16.5 66t-58.5 14v70q77 16 118 -15.5t41 -99.5v-229q0 -44 25 -64t55 -17v-70q-31 3 -55.5 -17t-24.5 -64v-229z" />
    <glyph glyph-name="asciitilde" unicode="~" horiz-adv-x="589" 
d="M523 382q2 -54 -27 -85.5t-80 -31.5q-36 0 -116.5 27.5t-114.5 27.5q-42 0 -39 -41h-76q-2 54 27.5 85t78.5 31q38 0 116.5 -27t115.5 -27q42 0 39 41h76z" />
    <glyph glyph-name="exclamdown" unicode="&#xa1;" horiz-adv-x="218" 
d="M151 -218h-84l7 497h70zM160 442q0 -24 -15 -37t-36 -13t-36 13t-15 37t15 37t36 13t36 -13t15 -37z" />
    <glyph glyph-name="cent" unicode="&#xa2;" horiz-adv-x="509" 
d="M338 63q66 6 120 38v-80q-56 -26 -120 -32v-109h-70v110q-94 11 -158.5 74.5t-64.5 173.5q0 111 65 175.5t158 76.5v110h70v-110q67 -6 115 -37v-78q-46 36 -115 42v-354zM268 413q-62 -12 -102.5 -55.5t-40.5 -117.5q0 -73 40.5 -117.5t102.5 -56.5v347z" />
    <glyph glyph-name="sterling" unicode="&#xa3;" horiz-adv-x="602" 
d="M563 0h-525v80h37q31 0 49.5 23t18.5 60v133h-85v78h85v85q0 117 66.5 175t163.5 58q82 0 150 -38v-80q-66 41 -140 41q-67 0 -111.5 -39t-44.5 -119v-83h222v-78h-222v-133q0 -62 -28 -83h364v-80z" />
    <glyph glyph-name="currency" unicode="&#xa4;" horiz-adv-x="578" 
d="M182 186l-64 -64l-56 56l61 61q-34 45 -34 111t34 111l-61 61l56 56l64 -64q46 27 107 27t108 -27l64 64l56 -56l-61 -61q33 -47 33 -111t-33 -111l61 -61l-56 -56l-64 64q-47 -27 -108 -27t-107 27zM169 350q0 -54 32.5 -85.5t87.5 -31.5t87.5 31.5t32.5 85.5
t-32.5 85.5t-87.5 31.5t-87.5 -31.5t-32.5 -85.5z" />
    <glyph glyph-name="yen" unicode="&#xa5;" horiz-adv-x="672" 
d="M548 680h92l-223 -354h130v-70h-169v-56h169v-70h-169v-130h-84v130h-167v70h167v56h-167v70h128l-223 354h92l212 -340z" />
    <glyph glyph-name="brokenbar" unicode="&#xa6;" horiz-adv-x="240" 
d="M162 453h-84v357h84v-357zM162 -100h-84v357h84v-357z" />
    <glyph glyph-name="section" unicode="&#xa7;" horiz-adv-x="500" 
d="M437 101q0 -70 -56 -102.5t-142 -32.5q-45 0 -94 13t-82 34v74q35 -24 83.5 -37.5t88.5 -13.5q58 0 90 13.5t32 49.5q0 22 -19.5 38.5t-40 24t-65.5 21.5q-8 3 -13 4q-39 12 -61 20.5t-49 25t-40 41.5t-13 59q0 72 80 131q-70 39 -70 110q0 69 54.5 103.5t133.5 34.5
q83 0 160 -41v-74q-30 19 -74.5 32t-80.5 13q-47 0 -79.5 -16.5t-32.5 -49.5q0 -32 30.5 -49t94.5 -36l6 -1.5t5.5 -1.5t6.5 -2q39 -12 61 -20.5t49 -25t40 -41.5t13 -59q0 -72 -80 -131q64 -39 64 -108zM244 257q7 -2 19 -5.5t22 -6.5t19 -6q33 13 52 39t19 50
q0 35 -27.5 53t-82.5 35l-59 18q-33 -13 -52.5 -39t-19.5 -50q0 -35 27.5 -53t82.5 -35z" />
    <glyph glyph-name="dieresis" unicode="&#xa8;" horiz-adv-x="301" 
d="M308 837q0 -23 -16 -39t-39 -16t-39 16t-16 39q0 22 16.5 38.5t38.5 16.5t38.5 -16.5t16.5 -38.5zM106 837q0 -23 -16 -39t-39 -16t-39 16t-16 39q0 22 16.5 38.5t38.5 16.5t38.5 -16.5t16.5 -38.5z" />
    <glyph glyph-name="copyright" unicode="&#xa9;" horiz-adv-x="848" 
d="M801 350q0 -87 -33.5 -158t-88.5 -114t-121 -66.5t-134 -23.5t-134 23.5t-121 66.5t-88.5 114t-33.5 158t33.5 158t88.5 114t121 66.5t134 23.5t134 -23.5t121 -66.5t88.5 -114t33.5 -158zM574 182q-63 -34 -137 -34q-78 0 -139.5 50t-61.5 144q0 103 64 156.5t149 53.5
q71 0 125 -34v-61q-52 33 -114 33q-66 0 -111 -34t-45 -111q0 -71 43 -103t107 -32q61 0 120 32v-60zM78 350q0 -80 30.5 -144.5t80.5 -104.5t110.5 -61.5t124.5 -21.5t124.5 21.5t110.5 61.5t80.5 104.5t30.5 144.5t-30.5 144.5t-80.5 104.5t-110.5 61.5t-124.5 21.5
t-124.5 -21.5t-110.5 -61.5t-80.5 -104.5t-30.5 -144.5z" />
    <glyph glyph-name="guillemotleft" unicode="&#xab;" horiz-adv-x="492" 
d="M440 58h-86l-123 174v16l123 174h86l-128 -182zM253 58h-86l-123 174v16l123 174h86l-129 -182z" />
    <glyph glyph-name="logicalnot" unicode="&#xac;" horiz-adv-x="577" 
d="M505 271h-80v133h-366v76h446v-209z" />
    <glyph glyph-name="registered" unicode="&#xae;" horiz-adv-x="848" 
d="M801 350q0 -87 -33.5 -158t-88.5 -114t-121 -66.5t-134 -23.5t-134 23.5t-121 66.5t-88.5 114t-33.5 158t33.5 158t88.5 114t121 66.5t134 23.5t134 -23.5t121 -66.5t88.5 -114t33.5 -158zM78 350q0 -80 30.5 -144.5t80.5 -104.5t110.5 -61.5t124.5 -21.5t124.5 21.5
t110.5 61.5t80.5 104.5t30.5 144.5t-30.5 144.5t-80.5 104.5t-110.5 61.5t-124.5 21.5t-124.5 -21.5t-110.5 -61.5t-80.5 -104.5t-30.5 -144.5zM342 154h-60v393h169q37 0 68 -9t56.5 -38t25.5 -76q0 -90 -86 -114l110 -156h-69l-102 147h-13h-99v-147zM342 489v-130h103
q20 0 32 1.5t29.5 6.5t26.5 19.5t9 37.5t-9 37.5t-26.5 19.5t-29.5 6.5t-32 1.5h-103z" />
    <glyph glyph-name="macron" unicode="&#xaf;" horiz-adv-x="360" 
d="M30 857h300v-73h-300v73z" />
    <glyph glyph-name="degree" unicode="&#xb0;" horiz-adv-x="394" 
d="M352 562q0 -70 -45 -111t-110 -41q-64 0 -110 41t-46 111q0 68 46 109t110 41t109.5 -41t45.5 -109zM101 562q0 -42 26.5 -67.5t69.5 -25.5q42 0 68.5 25.5t26.5 67.5t-26.5 66.5t-68.5 24.5q-43 0 -69.5 -25t-26.5 -66z" />
    <glyph glyph-name="plusminus" unicode="&#xb1;" horiz-adv-x="574" 
d="M325 607v-185h185v-76h-185v-185h-76v185h-185v76h185v185h76zM510 0h-446v76h446v-76z" />
    <glyph glyph-name="acute" unicode="&#xb4;" horiz-adv-x="185" 
d="M112 770h-87l91 147h100z" />
    <glyph glyph-name="paragraph" unicode="&#xb6;" horiz-adv-x="639" 
d="M340 -220h-84v500q-104 0 -163.5 55.5t-59.5 154.5t59.5 154.5t163.5 55.5h302v-920h-84v840h-134v-840z" />
    <glyph glyph-name="periodcentered" unicode="&#xb7;" horiz-adv-x="233" 
d="M169 239q0 -24 -15 -37.5t-37 -13.5t-37.5 13.5t-15.5 37.5t15.5 37.5t37.5 13.5t37 -13.5t15 -37.5z" />
    <glyph glyph-name="cedilla" unicode="&#xb8;" horiz-adv-x="215" 
d="M72 0h70l-15 -58q48 2 76 -18.5t29 -59.5q1 -47 -35 -71.5t-98 -24.5q-54 0 -98 19v68q39 -22 89 -22q73 0 73 34q0 21 -38.5 27.5t-76.5 -2.5z" />
    <glyph glyph-name="guillemotright" unicode="&#xbb;" horiz-adv-x="492" 
d="M324 58h-85l128 182l-128 182h85l124 -174v-16zM137 58h-85l128 182l-128 182h85l124 -174v-16z" />
    <glyph glyph-name="onequarter" unicode="&#xbc;" horiz-adv-x="922" 
d="M742 408h75v-259h70v-65h-70v-84h-68v84h-220v63zM749 149v166l-135 -166h135zM226 -13h-35l458 725h35zM156 680h52v-342h70v-66h-225v66h86v269l-82 -31v66z" />
    <glyph glyph-name="onehalf" unicode="&#xbd;" horiz-adv-x="882" 
d="M222 -13h-35l458 725h35zM559 375q58 41 136 41q66 0 105 -30t39 -85q0 -47 -30.5 -80.5t-82.5 -64.5q-5 -3 -17 -10t-17.5 -10t-15.5 -9.5t-15 -10t-12.5 -9t-11.5 -10t-8 -10t-6 -11t-2 -11.5l220 1v-66h-296v32q0 35 10.5 62t36 49.5t39.5 31.5t49 30q58 35 73 52
q16 20 16 45q0 49 -80 49q-66 0 -130 -46v70zM152 680h52v-342h70v-66h-225v66h86v269l-82 -31v66z" />
    <glyph glyph-name="threequarters" unicode="&#xbe;" horiz-adv-x="978" 
d="M292 -13h-35l458 725h35zM798 408h75v-259h70v-65h-70v-84h-68v84h-220v63zM805 149v166l-135 -166h135zM332 579q0 -30 -14 -53.5t-34 -34.5q64 -31 64 -102q0 -58 -44.5 -89.5t-111.5 -31.5q-79 0 -142 28v68q57 -31 136 -31q95 0 95 60t-85 60h-65v66h57q77 0 77 54
t-86 54q-65 0 -122 -33v68q58 30 131 30q65 0 104.5 -30.5t39.5 -82.5z" />
    <glyph glyph-name="questiondown" unicode="&#xbf;" horiz-adv-x="483" 
d="M450 -176q-90 -53 -193 -53q-100 0 -163 43.5t-63 125.5q0 39 19 78t46.5 70.5t55 61.5t46.5 62.5t19 62.5h80q0 -44 -28.5 -90t-62 -79.5t-62 -76.5t-28.5 -81q0 -97 154 -97q90 0 180 53v-80zM310 441q0 -24 -15.5 -37t-37.5 -13t-37 13t-15 37t15 37.5t37 13.5
t37.5 -13.5t15.5 -37.5z" />
    <glyph glyph-name="Agrave" unicode="&#xc0;" horiz-adv-x="717" 
d="M98 0h-91l305 700h93l304 -700h-90l-72 169h-377zM347 587l-144 -340h311l-145 340q-2 5 -11 27q-9 -23 -11 -27zM423 770h-87l-104 147h100z" />
    <glyph glyph-name="Aacute" unicode="&#xc1;" horiz-adv-x="717" 
d="M98 0h-91l305 700h93l304 -700h-90l-72 169h-377zM347 587l-144 -340h311l-145 340q-2 5 -11 27q-9 -23 -11 -27zM378 770h-87l91 147h100z" />
    <glyph glyph-name="Acircumflex" unicode="&#xc2;" horiz-adv-x="717" 
d="M98 0h-91l305 700h93l304 -700h-90l-72 169h-377zM347 587l-144 -340h311l-145 340q-2 5 -11 27q-9 -23 -11 -27zM324 917h72l132 -146h-91l-77 86l-77 -86h-91z" />
    <glyph glyph-name="Atilde" unicode="&#xc3;" horiz-adv-x="717" 
d="M98 0h-91l305 700h93l304 -700h-90l-72 169h-377zM347 587l-144 -340h311l-145 340q-2 5 -11 27q-9 -23 -11 -27zM522 869q7 -51 -18 -78.5t-64 -27.5q-34 0 -85.5 21t-62.5 21q-16 0 -23.5 -10t-5.5 -27h-70q-8 51 16.5 79t63.5 28q34 0 85.5 -21t63.5 -21q33 0 30 36
h70z" />
    <glyph glyph-name="Adieresis" unicode="&#xc4;" horiz-adv-x="717" 
d="M98 0h-91l305 700h93l304 -700h-90l-72 169h-377zM347 587l-144 -340h311l-145 340q-2 5 -11 27q-9 -23 -11 -27zM512 837q0 -23 -16 -39t-39 -16t-39 16t-16 39q0 22 16.5 38.5t38.5 16.5t38.5 -16.5t16.5 -38.5zM310 837q0 -23 -16 -39t-39 -16t-39 16t-16 39
q0 22 16.5 38.5t38.5 16.5t38.5 -16.5t16.5 -38.5z" />
    <glyph glyph-name="Aring" unicode="&#xc5;" horiz-adv-x="717" 
d="M98 0h-91l305 700h93l304 -700h-90l-72 169h-377zM347 587l-144 -340h311l-145 340q-2 5 -11 27q-9 -23 -11 -27zM471 855q0 -50 -34 -80.5t-81 -30.5q-48 0 -82 30.5t-34 80.5q0 49 34 79t82 30q47 0 81 -30t34 -79zM301 854q0 -25 16 -40t39 -15t39 15t16 40t-16 40
t-39 15t-39 -15t-16 -40z" />
    <glyph glyph-name="AE" unicode="&#xc6;" horiz-adv-x="996" 
d="M582 313v-233h364v-80h-448v171h-303l-118 -171h-93l480 700h476v-80h-358v-227h328v-80h-328zM244 247h254v366z" />
    <glyph glyph-name="Ccedilla" unicode="&#xc7;" horiz-adv-x="653" 
d="M615 119v-84q-76 -39 -168 -46l-12 -47q48 2 76 -18.5t29 -59.5q1 -47 -35 -71.5t-98 -24.5q-54 0 -98 19v68q39 -22 89 -22q73 0 73 34q0 21 -38.5 27.5t-76.5 -2.5l22 98q-64 6 -122.5 32t-106.5 69t-76 109t-28 145q0 116 55 201.5t137 125.5t176 40q108 0 197 -47
v-84q-76 51 -183 51q-120 0 -208 -73.5t-89 -213.5q0 -89 45.5 -154t112 -94t142.5 -29q113 0 185 51z" />
    <glyph glyph-name="Egrave" unicode="&#xc8;" horiz-adv-x="620" 
d="M92 700h472v-80h-388v-227h358v-80h-358v-233h394v-80h-478v700zM400 770h-87l-104 147h100z" />
    <glyph glyph-name="Eacute" unicode="&#xc9;" horiz-adv-x="620" 
d="M92 700h472v-80h-388v-227h358v-80h-358v-233h394v-80h-478v700zM355 770h-87l91 147h100z" />
    <glyph glyph-name="Ecircumflex" unicode="&#xca;" horiz-adv-x="620" 
d="M92 700h472v-80h-388v-227h358v-80h-358v-233h394v-80h-478v700zM301 917h72l132 -146h-91l-77 86l-77 -86h-91z" />
    <glyph glyph-name="Edieresis" unicode="&#xcb;" horiz-adv-x="620" 
d="M92 700h472v-80h-388v-227h358v-80h-358v-233h394v-80h-478v700zM489 837q0 -23 -16.5 -39t-38.5 -16t-38.5 16t-16.5 39q0 22 16.5 38.5t38.5 16.5t38.5 -16.5t16.5 -38.5zM287 837q0 -23 -16.5 -39t-38.5 -16t-38.5 16t-16.5 39q0 22 16.5 38.5t38.5 16.5t38.5 -16.5
t16.5 -38.5z" />
    <glyph glyph-name="Igrave" unicode="&#xcc;" horiz-adv-x="268" 
d="M92 700h84v-700h-84v700zM201 770h-87l-104 147h100z" />
    <glyph glyph-name="Iacute" unicode="&#xcd;" horiz-adv-x="268" 
d="M92 700h84v-700h-84v700zM156 770h-87l91 147h100z" />
    <glyph glyph-name="Icircumflex" unicode="&#xce;" horiz-adv-x="268" 
d="M92 700h84v-700h-84v700zM102 917h72l132 -146h-91l-77 86l-77 -86h-91z" />
    <glyph glyph-name="Idieresis" unicode="&#xcf;" horiz-adv-x="268" 
d="M92 700h84v-700h-84v700zM290 837q0 -23 -16 -39t-39 -16t-39 16t-16 39q0 22 16.5 38.5t38.5 16.5t38.5 -16.5t16.5 -38.5zM88 837q0 -23 -16 -39t-39 -16t-39 16t-16 39q0 22 16.5 38.5t38.5 16.5t38.5 -16.5t16.5 -38.5z" />
    <glyph glyph-name="Eth" unicode="&#xd0;" horiz-adv-x="743" 
d="M97 700h230q179 0 274.5 -96.5t95.5 -253.5t-95.5 -253.5t-274.5 -96.5h-230v311h-82v76h82v313zM181 80h146q140 0 212.5 71t72.5 199t-72.5 199t-212.5 71h-146v-233h211v-76h-211v-231z" />
    <glyph glyph-name="Ntilde" unicode="&#xd1;" horiz-adv-x="767" 
d="M176 0h-84v700h78l421 -559v60v499h84v-700h-78l-421 560v-60v-500zM549 869q7 -51 -18 -78.5t-64 -27.5q-34 0 -85.5 21t-62.5 21q-16 0 -23.5 -10t-5.5 -27h-70q-8 51 16.5 79t63.5 28q34 0 85.5 -21t63.5 -21q33 0 30 36h70z" />
    <glyph glyph-name="Ograve" unicode="&#xd2;" horiz-adv-x="822" 
d="M45 350q0 69 23.5 133t67.5 115.5t115 82.5t160 31t160 -31t115 -82.5t67.5 -115.5t23.5 -133t-23.5 -133t-67.5 -115.5t-115 -82.5t-160 -31t-160 31t-115 82.5t-67.5 115.5t-23.5 133zM692 350q0 55 -17.5 105t-51 90t-88.5 63.5t-124 23.5t-124 -23.5t-88.5 -63.5
t-51 -90t-17.5 -105t17.5 -105t51 -90t88.5 -63.5t124 -23.5t124 23.5t88.5 63.5t51 90t17.5 105zM477 770h-87l-104 147h100z" />
    <glyph glyph-name="Oacute" unicode="&#xd3;" horiz-adv-x="822" 
d="M45 350q0 69 23.5 133t67.5 115.5t115 82.5t160 31t160 -31t115 -82.5t67.5 -115.5t23.5 -133t-23.5 -133t-67.5 -115.5t-115 -82.5t-160 -31t-160 31t-115 82.5t-67.5 115.5t-23.5 133zM692 350q0 55 -17.5 105t-51 90t-88.5 63.5t-124 23.5t-124 -23.5t-88.5 -63.5
t-51 -90t-17.5 -105t17.5 -105t51 -90t88.5 -63.5t124 -23.5t124 23.5t88.5 63.5t51 90t17.5 105zM432 770h-87l91 147h100z" />
    <glyph glyph-name="Ocircumflex" unicode="&#xd4;" horiz-adv-x="822" 
d="M45 350q0 69 23.5 133t67.5 115.5t115 82.5t160 31t160 -31t115 -82.5t67.5 -115.5t23.5 -133t-23.5 -133t-67.5 -115.5t-115 -82.5t-160 -31t-160 31t-115 82.5t-67.5 115.5t-23.5 133zM692 350q0 55 -17.5 105t-51 90t-88.5 63.5t-124 23.5t-124 -23.5t-88.5 -63.5
t-51 -90t-17.5 -105t17.5 -105t51 -90t88.5 -63.5t124 -23.5t124 23.5t88.5 63.5t51 90t17.5 105zM378 917h72l132 -146h-91l-77 86l-77 -86h-91z" />
    <glyph glyph-name="Otilde" unicode="&#xd5;" horiz-adv-x="822" 
d="M45 350q0 69 23.5 133t67.5 115.5t115 82.5t160 31t160 -31t115 -82.5t67.5 -115.5t23.5 -133t-23.5 -133t-67.5 -115.5t-115 -82.5t-160 -31t-160 31t-115 82.5t-67.5 115.5t-23.5 133zM692 350q0 55 -17.5 105t-51 90t-88.5 63.5t-124 23.5t-124 -23.5t-88.5 -63.5
t-51 -90t-17.5 -105t17.5 -105t51 -90t88.5 -63.5t124 -23.5t124 23.5t88.5 63.5t51 90t17.5 105zM576 869q7 -51 -18 -78.5t-64 -27.5q-34 0 -85.5 21t-62.5 21q-16 0 -23.5 -10t-5.5 -27h-70q-8 51 16.5 79t63.5 28q34 0 85.5 -21t63.5 -21q33 0 30 36h70z" />
    <glyph glyph-name="Odieresis" unicode="&#xd6;" horiz-adv-x="822" 
d="M45 350q0 69 23.5 133t67.5 115.5t115 82.5t160 31t160 -31t115 -82.5t67.5 -115.5t23.5 -133t-23.5 -133t-67.5 -115.5t-115 -82.5t-160 -31t-160 31t-115 82.5t-67.5 115.5t-23.5 133zM692 350q0 55 -17.5 105t-51 90t-88.5 63.5t-124 23.5t-124 -23.5t-88.5 -63.5
t-51 -90t-17.5 -105t17.5 -105t51 -90t88.5 -63.5t124 -23.5t124 23.5t88.5 63.5t51 90t17.5 105zM566 837q0 -23 -16 -39t-39 -16t-39 16t-16 39q0 22 16.5 38.5t38.5 16.5t38.5 -16.5t16.5 -38.5zM364 837q0 -23 -16 -39t-39 -16t-39 16t-16 39q0 22 16.5 38.5t38.5 16.5
t38.5 -16.5t16.5 -38.5z" />
    <glyph glyph-name="multiply" unicode="&#xd7;" horiz-adv-x="471" 
d="M236 301l-128 -128l-51 51l128 128l-128 127l51 51l128 -127l127 127l51 -51l-127 -127l127 -128l-51 -51z" />
    <glyph glyph-name="Oslash" unicode="&#xd8;" horiz-adv-x="822" 
d="M740 748l-86 -118q60 -51 91.5 -125t31.5 -155q0 -69 -23.5 -133t-67.5 -115.5t-115 -82.5t-160 -31q-109 0 -190 46l-60 -82h-80l86 119q-59 51 -90.5 124.5t-31.5 154.5q0 69 23.5 133t67.5 115.5t115 82.5t160 31q106 0 190 -45l59 81h80zM411 632q-69 0 -124 -23.5
t-88.5 -63.5t-51 -90t-17.5 -105q0 -133 86 -212l336 462q-61 32 -141 32zM269 100q62 -32 142 -32q69 0 124 23.5t88.5 63.5t51 90t17.5 105q0 133 -87 213z" />
    <glyph glyph-name="Ugrave" unicode="&#xd9;" horiz-adv-x="753" 
d="M585 700h84v-444q0 -72 -23.5 -125.5t-65 -84t-92 -44.5t-111.5 -14q-129 0 -211 64t-82 204v444h84v-440q0 -192 209 -192q208 0 208 192v440zM439 770h-87l-104 147h100z" />
    <glyph glyph-name="Uacute" unicode="&#xda;" horiz-adv-x="753" 
d="M585 700h84v-444q0 -72 -23.5 -125.5t-65 -84t-92 -44.5t-111.5 -14q-129 0 -211 64t-82 204v444h84v-440q0 -192 209 -192q208 0 208 192v440zM394 770h-87l91 147h100z" />
    <glyph glyph-name="Ucircumflex" unicode="&#xdb;" horiz-adv-x="753" 
d="M585 700h84v-444q0 -72 -23.5 -125.5t-65 -84t-92 -44.5t-111.5 -14q-129 0 -211 64t-82 204v444h84v-440q0 -192 209 -192q208 0 208 192v440zM340 917h72l132 -146h-91l-77 86l-77 -86h-91z" />
    <glyph glyph-name="Udieresis" unicode="&#xdc;" horiz-adv-x="753" 
d="M585 700h84v-444q0 -72 -23.5 -125.5t-65 -84t-92 -44.5t-111.5 -14q-129 0 -211 64t-82 204v444h84v-440q0 -192 209 -192q208 0 208 192v440zM528 837q0 -23 -16 -39t-39 -16t-39 16t-16 39q0 22 16.5 38.5t38.5 16.5t38.5 -16.5t16.5 -38.5zM326 837q0 -23 -16 -39
t-39 -16t-39 16t-16 39q0 22 16.5 38.5t38.5 16.5t38.5 -16.5t16.5 -38.5z" />
    <glyph glyph-name="Yacute" unicode="&#xdd;" horiz-adv-x="656" 
d="M370 0h-84v265l-275 435h93l224 -360l224 360h93l-275 -435v-265zM350 770h-87l91 147h100z" />
    <glyph glyph-name="Thorn" unicode="&#xde;" horiz-adv-x="658" 
d="M176 576h155q297 0 297 -226t-297 -226h-155v-124h-84v700h84v-124zM176 204h159q97 0 152.5 32t55.5 114q0 43 -16 72.5t-45.5 45t-64.5 22t-82 6.5h-159v-292z" />
    <glyph glyph-name="germandbls" unicode="&#xdf;" horiz-adv-x="594" 
d="M560 147q0 -78 -59.5 -118.5t-140.5 -40.5q-66 0 -125 24v70q55 -24 110 -24q58 0 96.5 23t38.5 72q0 31 -23.5 63t-52 54.5t-52 50.5t-23.5 52q0 33 36 87t36 96q0 38 -29.5 62t-82.5 24q-61 0 -98 -34.5t-37 -96.5v-511h-80v497q0 101 57.5 157.5t157.5 57.5
q93 1 142.5 -44.5t49.5 -102.5q0 -38 -18 -71.5t-36 -60t-18 -46.5q0 -18 15.5 -38t37.5 -39.5t44.5 -42.5t38 -54t15.5 -66z" />
    <glyph glyph-name="agrave" unicode="&#xe0;" horiz-adv-x="544" 
d="M464 100q0 -37 37 -37q16 0 37 7v-65q-30 -11 -60 -11q-69 0 -88 58q-77 -64 -187 -64q-70 0 -119.5 37.5t-49.5 108.5q0 85 63.5 123.5t153.5 38.5q66 0 133 -15v17q0 55 -36 87.5t-101 32.5q-91 0 -175 -36v78q94 32 183 32q98 0 153.5 -52.5t55.5 -151.5v-188z
M116 138q0 -40 30.5 -60.5t73.5 -20.5q99 0 164 70v88q-68 14 -122 14q-61 0 -103.5 -21.5t-42.5 -69.5zM311 550h-87l-104 147h100z" />
    <glyph glyph-name="aacute" unicode="&#xe1;" horiz-adv-x="544" 
d="M464 100q0 -37 37 -37q16 0 37 7v-65q-30 -11 -60 -11q-69 0 -88 58q-77 -64 -187 -64q-70 0 -119.5 37.5t-49.5 108.5q0 85 63.5 123.5t153.5 38.5q66 0 133 -15v17q0 55 -36 87.5t-101 32.5q-91 0 -175 -36v78q94 32 183 32q98 0 153.5 -52.5t55.5 -151.5v-188z
M116 138q0 -40 30.5 -60.5t73.5 -20.5q99 0 164 70v88q-68 14 -122 14q-61 0 -103.5 -21.5t-42.5 -69.5zM266 550h-87l91 147h100z" />
    <glyph glyph-name="acircumflex" unicode="&#xe2;" horiz-adv-x="544" 
d="M464 100q0 -37 37 -37q16 0 37 7v-65q-30 -11 -60 -11q-69 0 -88 58q-77 -64 -187 -64q-70 0 -119.5 37.5t-49.5 108.5q0 85 63.5 123.5t153.5 38.5q66 0 133 -15v17q0 55 -36 87.5t-101 32.5q-91 0 -175 -36v78q94 32 183 32q98 0 153.5 -52.5t55.5 -151.5v-188z
M116 138q0 -40 30.5 -60.5t73.5 -20.5q99 0 164 70v88q-68 14 -122 14q-61 0 -103.5 -21.5t-42.5 -69.5zM212 697h72l132 -146h-91l-77 86l-77 -86h-91z" />
    <glyph glyph-name="atilde" unicode="&#xe3;" horiz-adv-x="544" 
d="M464 100q0 -37 37 -37q16 0 37 7v-65q-30 -11 -60 -11q-69 0 -88 58q-77 -64 -187 -64q-70 0 -119.5 37.5t-49.5 108.5q0 85 63.5 123.5t153.5 38.5q66 0 133 -15v17q0 55 -36 87.5t-101 32.5q-91 0 -175 -36v78q94 32 183 32q98 0 153.5 -52.5t55.5 -151.5v-188z
M116 138q0 -40 30.5 -60.5t73.5 -20.5q99 0 164 70v88q-68 14 -122 14q-61 0 -103.5 -21.5t-42.5 -69.5zM410 649q7 -51 -18 -78.5t-64 -27.5q-34 0 -85.5 21t-62.5 21q-16 0 -23.5 -10t-5.5 -27h-70q-8 51 16.5 79t63.5 28q34 0 85.5 -21t63.5 -21q33 0 30 36h70z" />
    <glyph glyph-name="adieresis" unicode="&#xe4;" horiz-adv-x="544" 
d="M464 100q0 -37 37 -37q16 0 37 7v-65q-30 -11 -60 -11q-69 0 -88 58q-77 -64 -187 -64q-70 0 -119.5 37.5t-49.5 108.5q0 85 63.5 123.5t153.5 38.5q66 0 133 -15v17q0 55 -36 87.5t-101 32.5q-91 0 -175 -36v78q94 32 183 32q98 0 153.5 -52.5t55.5 -151.5v-188z
M116 138q0 -40 30.5 -60.5t73.5 -20.5q99 0 164 70v88q-68 14 -122 14q-61 0 -103.5 -21.5t-42.5 -69.5zM400 617q0 -23 -16 -39t-39 -16t-39 16t-16 39q0 22 16.5 38.5t38.5 16.5t38.5 -16.5t16.5 -38.5zM198 617q0 -23 -16 -39t-39 -16t-39 16t-16 39q0 22 16.5 38.5
t38.5 16.5t38.5 -16.5t16.5 -38.5z" />
    <glyph glyph-name="aring" unicode="&#xe5;" horiz-adv-x="544" 
d="M464 100q0 -37 37 -37q16 0 37 7v-65q-30 -11 -60 -11q-69 0 -88 58q-77 -64 -187 -64q-70 0 -119.5 37.5t-49.5 108.5q0 85 63.5 123.5t153.5 38.5q66 0 133 -15v17q0 55 -36 87.5t-101 32.5q-91 0 -175 -36v78q94 32 183 32q98 0 153.5 -52.5t55.5 -151.5v-188z
M116 138q0 -40 30.5 -60.5t73.5 -20.5q99 0 164 70v88q-68 14 -122 14q-61 0 -103.5 -21.5t-42.5 -69.5zM359 635q0 -50 -34 -80.5t-81 -30.5q-48 0 -82 30.5t-34 80.5q0 49 34 79t82 30q47 0 81 -30t34 -79zM189 634q0 -25 16 -40t39 -15t39 15t16 40t-16 40t-39 15
t-39 -15t-16 -40z" />
    <glyph glyph-name="ae" unicode="&#xe6;" horiz-adv-x="911" 
d="M459 75q-96 -87 -246 -87q-77 0 -128 37t-51 109q0 45 19 77.5t52.5 50.5t72 26t83.5 8q76 0 143 -15v17q0 120 -157 120q-91 0 -175 -36v78q94 32 183 32q156 0 201 -101q32 49 83.5 75t108.5 26q88 0 144 -44t73 -109t1 -139h-382q7 -68 63 -103t135 -35q84 0 154 39
v-74q-69 -39 -171 -39q-131 0 -206 87zM116 138q0 -40 32 -60.5t82 -20.5q119 0 197 69q-17 38 -22 89q-76 14 -133 14q-156 0 -156 -91zM648 418q-67 0 -113.5 -38.5t-50.5 -109.5h311q4 32 -7 64t-47 58t-93 26z" />
    <glyph glyph-name="ccedilla" unicode="&#xe7;" horiz-adv-x="493" 
d="M454 101v-80q-58 -28 -128 -32l-12 -47q48 2 76 -18.5t29 -59.5q1 -47 -35 -71.5t-98 -24.5q-54 0 -98 19v68q39 -22 89 -22q73 0 73 34q0 21 -38.5 27.5t-76.5 -2.5l22 99q-91 12 -153.5 76t-62.5 171q0 63 23 113t60.5 80t83 45.5t93.5 15.5q89 0 148 -39v-78
q-55 43 -138 43q-78 0 -134 -45t-56 -133q0 -87 55.5 -132.5t132.5 -45.5q80 0 145 39z" />
    <glyph glyph-name="egrave" unicode="&#xe8;" horiz-adv-x="548" 
d="M41 240q0 118 72.5 185t166.5 67q88 0 145.5 -44t75.5 -108.5t2 -134.5h-382q7 -71 63 -107t135 -36q88 0 158 39v-78q-67 -35 -170 -35q-114 0 -190 65t-76 187zM432 275q3 21 -3 44t-21.5 46t-47.5 38t-75 15q-65 0 -112.5 -38t-51.5 -105h311zM347 550h-87l-104 147
h100z" />
    <glyph glyph-name="eacute" unicode="&#xe9;" horiz-adv-x="548" 
d="M41 240q0 118 72.5 185t166.5 67q88 0 145.5 -44t75.5 -108.5t2 -134.5h-382q7 -71 63 -107t135 -36q88 0 158 39v-78q-67 -35 -170 -35q-114 0 -190 65t-76 187zM432 275q3 21 -3 44t-21.5 46t-47.5 38t-75 15q-65 0 -112.5 -38t-51.5 -105h311zM302 550h-87l91 147h100
z" />
    <glyph glyph-name="ecircumflex" unicode="&#xea;" horiz-adv-x="548" 
d="M41 240q0 118 72.5 185t166.5 67q88 0 145.5 -44t75.5 -108.5t2 -134.5h-382q7 -71 63 -107t135 -36q88 0 158 39v-78q-67 -35 -170 -35q-114 0 -190 65t-76 187zM432 275q3 21 -3 44t-21.5 46t-47.5 38t-75 15q-65 0 -112.5 -38t-51.5 -105h311zM248 697h72l132 -146
h-91l-77 86l-77 -86h-91z" />
    <glyph glyph-name="edieresis" unicode="&#xeb;" horiz-adv-x="548" 
d="M41 240q0 118 72.5 185t166.5 67q88 0 145.5 -44t75.5 -108.5t2 -134.5h-382q7 -71 63 -107t135 -36q88 0 158 39v-78q-67 -35 -170 -35q-114 0 -190 65t-76 187zM432 275q3 21 -3 44t-21.5 46t-47.5 38t-75 15q-65 0 -112.5 -38t-51.5 -105h311zM436 617q0 -23 -16 -39
t-39 -16t-39 16t-16 39q0 22 16.5 38.5t38.5 16.5t38.5 -16.5t16.5 -38.5zM234 617q0 -23 -16 -39t-39 -16t-39 16t-16 39q0 22 16.5 38.5t38.5 16.5t38.5 -16.5t16.5 -38.5z" />
    <glyph glyph-name="igrave" unicode="&#xec;" horiz-adv-x="232" 
d="M156 0h-80v480h80v-480zM182 550h-77l-84 147h90z" />
    <glyph glyph-name="iacute" unicode="&#xed;" horiz-adv-x="232" 
d="M76 480h80v-480h-80v480zM137 550h-87l91 147h100z" />
    <glyph glyph-name="icircumflex" unicode="&#xee;" horiz-adv-x="232" 
d="M83 687h72l107 -136h-86l-57 76l-57 -76h-86zM76 480h80v-480h-80v480z" />
    <glyph glyph-name="idieresis" unicode="&#xef;" horiz-adv-x="232" 
d="M247 617q0 -20 -15 -35t-35 -15t-35 15t-15 35t15 35t35 15t35 -15t15 -35zM85 617q0 -20 -15 -35t-35 -15t-35 15t-15 35t15 35t35 15t35 -15t15 -35zM76 480h80v-480h-80v480z" />
    <glyph glyph-name="eth" unicode="&#xf0;" horiz-adv-x="592" 
d="M541 271q0 -137 -69 -210t-182 -73q-107 0 -178 64.5t-71 168.5q0 96 67 159.5t160 63.5q68 0 123.5 -29t78.5 -76q-2 14 -4 22q-31 163 -170 226l-92 -92l-46 46l70 70q-58 13 -127 13v76q96 0 185 -31l86 86l46 -46l-69 -69q192 -109 192 -369zM121 221q0 -71 46 -114
t123 -43q73 0 114 38t51 103q-2 72 -50.5 118.5t-123.5 46.5q-71 0 -115.5 -41.5t-44.5 -107.5z" />
    <glyph glyph-name="ntilde" unicode="&#xf1;" 
d="M146 409q26 35 72.5 59t100.5 24q87 0 143.5 -54.5t56.5 -141.5v-296h-80v286q0 65 -35.5 98.5t-93.5 33.5q-92 0 -156 -96v-322h-80v480h72v-71zM463 649q7 -51 -18 -78.5t-64 -27.5q-34 0 -85.5 21t-62.5 21q-16 0 -23.5 -10t-5.5 -27h-70q-8 51 16.5 79t63.5 28
q34 0 85.5 -21t63.5 -21q33 0 30 36h70z" />
    <glyph glyph-name="ograve" unicode="&#xf2;" horiz-adv-x="594" 
d="M41 240q0 117 76 184.5t180 67.5q105 0 180.5 -67.5t75.5 -184.5t-75.5 -184.5t-180.5 -67.5q-104 0 -180 67.5t-76 184.5zM473 240q0 81 -50 128.5t-126 47.5t-126 -47.5t-50 -128.5t50 -128.5t126 -47.5t126 47.5t50 128.5zM362 550h-87l-104 147h100z" />
    <glyph glyph-name="oacute" unicode="&#xf3;" horiz-adv-x="594" 
d="M41 240q0 117 76 184.5t180 67.5q105 0 180.5 -67.5t75.5 -184.5t-75.5 -184.5t-180.5 -67.5q-104 0 -180 67.5t-76 184.5zM473 240q0 81 -50 128.5t-126 47.5t-126 -47.5t-50 -128.5t50 -128.5t126 -47.5t126 47.5t50 128.5zM317 550h-87l91 147h100z" />
    <glyph glyph-name="ocircumflex" unicode="&#xf4;" horiz-adv-x="594" 
d="M41 240q0 117 76 184.5t180 67.5q105 0 180.5 -67.5t75.5 -184.5t-75.5 -184.5t-180.5 -67.5q-104 0 -180 67.5t-76 184.5zM473 240q0 81 -50 128.5t-126 47.5t-126 -47.5t-50 -128.5t50 -128.5t126 -47.5t126 47.5t50 128.5zM263 697h72l132 -146h-91l-77 86l-77 -86
h-91z" />
    <glyph glyph-name="otilde" unicode="&#xf5;" horiz-adv-x="594" 
d="M41 240q0 117 76 184.5t180 67.5q105 0 180.5 -67.5t75.5 -184.5t-75.5 -184.5t-180.5 -67.5q-104 0 -180 67.5t-76 184.5zM473 240q0 81 -50 128.5t-126 47.5t-126 -47.5t-50 -128.5t50 -128.5t126 -47.5t126 47.5t50 128.5zM461 649q7 -51 -18 -78.5t-64 -27.5
q-34 0 -85.5 21t-62.5 21q-16 0 -23.5 -10t-5.5 -27h-70q-8 51 16.5 79t63.5 28q34 0 85.5 -21t63.5 -21q33 0 30 36h70z" />
    <glyph glyph-name="odieresis" unicode="&#xf6;" horiz-adv-x="594" 
d="M41 240q0 117 76 184.5t180 67.5q105 0 180.5 -67.5t75.5 -184.5t-75.5 -184.5t-180.5 -67.5q-104 0 -180 67.5t-76 184.5zM473 240q0 81 -50 128.5t-126 47.5t-126 -47.5t-50 -128.5t50 -128.5t126 -47.5t126 47.5t50 128.5zM451 617q0 -23 -16.5 -39t-38.5 -16
t-38.5 16t-16.5 39q0 22 16.5 38.5t38.5 16.5t38.5 -16.5t16.5 -38.5zM249 617q0 -23 -16.5 -39t-38.5 -16t-38.5 16t-16.5 39q0 22 16.5 38.5t38.5 16.5t38.5 -16.5t16.5 -38.5z" />
    <glyph glyph-name="divide" unicode="&#xf7;" horiz-adv-x="614" 
d="M547 312h-480v76h480v-76zM359 126q0 -25 -14.5 -38t-37.5 -13q-22 0 -37 13.5t-15 37.5t15 37t37 13q23 0 37.5 -13t14.5 -37zM359 573q0 -25 -14.5 -38t-37.5 -13q-22 0 -37 13.5t-15 37.5t15 37t37 13q23 0 37.5 -13t14.5 -37z" />
    <glyph glyph-name="oslash" unicode="&#xf8;" horiz-adv-x="594" 
d="M533 543l-71 -106q91 -69 91 -197q0 -117 -75.5 -184.5t-180.5 -67.5q-61 0 -117 25l-49 -73h-70l69 104q-89 71 -89 196q0 117 76 184.5t180 67.5q63 0 116 -25l50 76h70zM297 416q-76 0 -126 -47.5t-50 -128.5q0 -83 53 -131l195 294q-36 13 -72 13zM223 78
q34 -14 74 -14q76 0 126 47.5t50 128.5q0 83 -54 132z" />
    <glyph glyph-name="ugrave" unicode="&#xf9;" 
d="M433 480h80v-480h-72v71q-26 -35 -72.5 -59t-100.5 -24q-93 0 -146.5 53.5t-53.5 142.5v296h80v-286q0 -132 129 -132q92 0 156 96v322zM358 550h-87l-104 147h100z" />
    <glyph glyph-name="uacute" unicode="&#xfa;" 
d="M433 480h80v-480h-72v71q-26 -35 -72.5 -59t-100.5 -24q-93 0 -146.5 53.5t-53.5 142.5v296h80v-286q0 -132 129 -132q92 0 156 96v322zM313 550h-87l91 147h100z" />
    <glyph glyph-name="ucircumflex" unicode="&#xfb;" 
d="M433 480h80v-480h-72v71q-26 -35 -72.5 -59t-100.5 -24q-93 0 -146.5 53.5t-53.5 142.5v296h80v-286q0 -132 129 -132q92 0 156 96v322zM259 697h72l132 -146h-91l-77 86l-77 -86h-91z" />
    <glyph glyph-name="udieresis" unicode="&#xfc;" 
d="M433 480h80v-480h-72v71q-26 -35 -72.5 -59t-100.5 -24q-93 0 -146.5 53.5t-53.5 142.5v296h80v-286q0 -132 129 -132q92 0 156 96v322zM447 617q0 -23 -16.5 -39t-38.5 -16t-38.5 16t-16.5 39q0 22 16.5 38.5t38.5 16.5t38.5 -16.5t16.5 -38.5zM245 617q0 -23 -16.5 -39
t-38.5 -16t-38.5 16t-16.5 39q0 22 16.5 38.5t38.5 16.5t38.5 -16.5t16.5 -38.5z" />
    <glyph glyph-name="yacute" unicode="&#xfd;" horiz-adv-x="538" 
d="M276 91l162 389h85l-236 -552q-69 -160 -181 -160q-27 0 -52 7v69q21 -6 42 -6q77 0 124 117l18 44l-228 481h85zM281 550h-87l91 147h100z" />
    <glyph glyph-name="thorn" unicode="&#xfe;" horiz-adv-x="621" 
d="M74 700h80v-292q72 84 186 84q103 0 171.5 -72t68.5 -180t-68.5 -180t-171.5 -72q-114 0 -186 84v-292h-80v920zM500 240q0 80 -48.5 129t-120.5 49q-61 0 -108 -34t-69 -84v-120q22 -50 69 -84t108 -34q72 0 120.5 49t48.5 129z" />
    <glyph glyph-name="ydieresis" unicode="&#xff;" horiz-adv-x="538" 
d="M276 91l162 389h85l-236 -552q-69 -160 -181 -160q-27 0 -52 7v69q21 -6 42 -6q77 0 124 117l18 44l-228 481h85zM415 617q0 -23 -16.5 -39t-38.5 -16t-38.5 16t-16.5 39q0 22 16.5 38.5t38.5 16.5t38.5 -16.5t16.5 -38.5zM213 617q0 -23 -16.5 -39t-38.5 -16t-38.5 16
t-16.5 39q0 22 16.5 38.5t38.5 16.5t38.5 -16.5t16.5 -38.5z" />
    <glyph glyph-name="Amacron" unicode="&#x100;" horiz-adv-x="717" 
d="M98 0h-91l305 700h93l304 -700h-90l-72 169h-377zM347 587l-144 -340h311l-145 340q-2 5 -11 27q-9 -23 -11 -27zM207 857h300v-73h-300v73z" />
    <glyph glyph-name="amacron" unicode="&#x101;" horiz-adv-x="544" 
d="M464 100q0 -37 37 -37q16 0 37 7v-65q-30 -11 -60 -11q-69 0 -88 58q-77 -64 -187 -64q-70 0 -119.5 37.5t-49.5 108.5q0 85 63.5 123.5t153.5 38.5q66 0 133 -15v17q0 55 -36 87.5t-101 32.5q-91 0 -175 -36v78q94 32 183 32q98 0 153.5 -52.5t55.5 -151.5v-188z
M116 138q0 -40 30.5 -60.5t73.5 -20.5q99 0 164 70v88q-68 14 -122 14q-61 0 -103.5 -21.5t-42.5 -69.5zM95 637h300v-73h-300v73z" />
    <glyph glyph-name="Abreve" unicode="&#x102;" horiz-adv-x="717" 
d="M98 0h-91l305 700h93l304 -700h-90l-72 169h-377zM347 587l-144 -340h311l-145 340q-2 5 -11 27q-9 -23 -11 -27zM497 810q-59 -42 -140 -42t-140 42v78q67 -44 140 -44t140 44v-78z" />
    <glyph glyph-name="abreve" unicode="&#x103;" horiz-adv-x="544" 
d="M464 100q0 -37 37 -37q16 0 37 7v-65q-30 -11 -60 -11q-69 0 -88 58q-77 -64 -187 -64q-70 0 -119.5 37.5t-49.5 108.5q0 85 63.5 123.5t153.5 38.5q66 0 133 -15v17q0 55 -36 87.5t-101 32.5q-91 0 -175 -36v78q94 32 183 32q98 0 153.5 -52.5t55.5 -151.5v-188z
M116 138q0 -40 30.5 -60.5t73.5 -20.5q99 0 164 70v88q-68 14 -122 14q-61 0 -103.5 -21.5t-42.5 -69.5zM385 590q-59 -42 -140 -42t-140 42v78q67 -44 140 -44t140 44v-78z" />
    <glyph glyph-name="Aogonek" unicode="&#x104;" horiz-adv-x="717" 
d="M619 -126q-1 -18 10.5 -29.5t32.5 -11.5q32 0 59 21v-64q-32 -22 -79 -22q-48 0 -73.5 25t-25.5 64q0 68 76 143l-72 169h-377l-72 -169h-91l305 700h93l304 -700q-41 -28 -66 -63t-24 -63zM347 587l-144 -340h311l-145 340q-2 5 -11 27q-9 -23 -11 -27z" />
    <glyph glyph-name="aogonek" unicode="&#x105;" horiz-adv-x="544" 
d="M538 70v-65q-41 -28 -66 -63.5t-24 -63.5q-1 -18 10.5 -29t32.5 -12q25 2 46 13v-64q-31 -14 -66 -14q-48 -1 -73.5 24.5t-25.5 64.5q0 74 74 137q-42 12 -56 54q-77 -64 -187 -64q-70 0 -119.5 37.5t-49.5 108.5q0 85 63.5 123.5t153.5 38.5q66 0 133 -15v17
q0 55 -36 87.5t-101 32.5q-91 0 -175 -36v78q94 32 183 32q98 0 153.5 -52.5t55.5 -151.5v-188q0 -37 37 -37q16 0 37 7zM220 57q99 0 164 70v88q-68 14 -122 14q-61 0 -103.5 -21.5t-42.5 -69.5q0 -40 30.5 -60.5t73.5 -20.5z" />
    <glyph glyph-name="Cacute" unicode="&#x106;" horiz-adv-x="653" 
d="M45 345q0 116 55 201.5t137 125.5t176 40q108 0 197 -47v-84q-76 51 -183 51q-120 0 -208 -73.5t-89 -213.5q0 -89 45.5 -154t112 -94t142.5 -29q113 0 185 51v-84q-91 -47 -203 -47q-67 0 -132 23.5t-118 67t-85 113t-32 153.5zM418 770h-87l91 147h100z" />
    <glyph glyph-name="cacute" unicode="&#x107;" horiz-adv-x="493" 
d="M41 238q0 63 23 113t60.5 80t83 45.5t93.5 15.5q89 0 148 -39v-78q-55 43 -138 43q-78 0 -134 -45t-56 -133q0 -87 55.5 -132.5t132.5 -45.5q80 0 145 39v-80q-68 -33 -156 -33q-104 0 -180.5 65t-76.5 185zM327 550h-87l91 147h100z" />
    <glyph glyph-name="Cdotaccent" unicode="&#x10a;" horiz-adv-x="653" 
d="M45 345q0 116 55 201.5t137 125.5t176 40q108 0 197 -47v-84q-76 51 -183 51q-120 0 -208 -73.5t-89 -213.5q0 -89 45.5 -154t112 -94t142.5 -29q113 0 185 51v-84q-91 -47 -203 -47q-67 0 -132 23.5t-118 67t-85 113t-32 153.5zM333 827q0 27 17.5 42.5t42.5 15.5
q26 0 43 -15.5t17 -42.5q0 -28 -17 -43.5t-43 -15.5q-25 0 -42.5 15.5t-17.5 43.5z" />
    <glyph glyph-name="cdotaccent" unicode="&#x10b;" horiz-adv-x="493" 
d="M41 238q0 63 23 113t60.5 80t83 45.5t93.5 15.5q89 0 148 -39v-78q-55 43 -138 43q-78 0 -134 -45t-56 -133q0 -87 55.5 -132.5t132.5 -45.5q80 0 145 39v-80q-68 -33 -156 -33q-104 0 -180.5 65t-76.5 185zM242 607q0 27 17.5 42.5t42.5 15.5q26 0 43 -15.5t17 -42.5
q0 -28 -17 -43.5t-43 -15.5q-25 0 -42.5 15.5t-17.5 43.5z" />
    <glyph glyph-name="Ccaron" unicode="&#x10c;" horiz-adv-x="653" 
d="M45 345q0 116 55 201.5t137 125.5t176 40q108 0 197 -47v-84q-76 51 -183 51q-120 0 -208 -73.5t-89 -213.5q0 -89 45.5 -154t112 -94t142.5 -29q113 0 185 51v-84q-91 -47 -203 -47q-67 0 -132 23.5t-118 67t-85 113t-32 153.5zM568 907l-132 -146h-72l-132 146h91
l77 -86l77 86h91z" />
    <glyph glyph-name="ccaron" unicode="&#x10d;" horiz-adv-x="493" 
d="M41 238q0 63 23 113t60.5 80t83 45.5t93.5 15.5q89 0 148 -39v-78q-55 43 -138 43q-78 0 -134 -45t-56 -133q0 -87 55.5 -132.5t132.5 -45.5q80 0 145 39v-80q-68 -33 -156 -33q-104 0 -180.5 65t-76.5 185zM477 687l-132 -146h-72l-132 146h91l77 -86l77 86h91z" />
    <glyph glyph-name="Dcaron" unicode="&#x10e;" horiz-adv-x="738" 
d="M92 700h230q179 0 274.5 -96.5t95.5 -253.5t-95.5 -253.5t-274.5 -96.5h-230v700zM607 350q0 128 -72.5 199t-212.5 71h-146v-540h146q140 0 212.5 71t72.5 199zM508 907l-132 -146h-72l-132 146h91l77 -86l77 86h91z" />
    <glyph glyph-name="dcaron" unicode="&#x10f;" horiz-adv-x="620" 
d="M622 700h80l-28 -184h-70zM467 700h80v-700h-72v80q-81 -92 -194 -92q-103 0 -171.5 72t-68.5 180t68.5 180t171.5 72q114 0 186 -84v292zM467 300q-22 50 -69 84t-108 34q-72 0 -120.5 -49t-48.5 -129t48.5 -129t120.5 -49q61 0 108 34t69 84v120z" />
    <glyph glyph-name="Dcroat" unicode="&#x110;" horiz-adv-x="743" 
d="M97 700h230q179 0 274.5 -96.5t95.5 -253.5t-95.5 -253.5t-274.5 -96.5h-230v311h-82v76h82v313zM181 80h146q140 0 212.5 71t72.5 199t-72.5 199t-212.5 71h-146v-233h211v-76h-211v-231z" />
    <glyph glyph-name="dcroat" unicode="&#x111;" horiz-adv-x="620" 
d="M547 632h66v-60h-66v-572h-72v80q-81 -92 -194 -92q-103 0 -171.5 72t-68.5 180t68.5 180t171.5 72q114 0 186 -84v164h-172v60h172v68h80v-68zM290 62q61 0 108 34t69 84v120q-22 50 -69 84t-108 34q-72 0 -120.5 -49t-48.5 -129t48.5 -129t120.5 -49z" />
    <glyph glyph-name="Emacron" unicode="&#x112;" horiz-adv-x="620" 
d="M92 700h472v-80h-388v-227h358v-80h-358v-233h394v-80h-478v700zM184 857h300v-73h-300v73z" />
    <glyph glyph-name="emacron" unicode="&#x113;" horiz-adv-x="548" 
d="M41 240q0 118 72.5 185t166.5 67q88 0 145.5 -44t75.5 -108.5t2 -134.5h-382q7 -71 63 -107t135 -36q88 0 158 39v-78q-67 -35 -170 -35q-114 0 -190 65t-76 187zM432 275q3 21 -3 44t-21.5 46t-47.5 38t-75 15q-65 0 -112.5 -38t-51.5 -105h311zM131 637h300v-73h-300
v73z" />
    <glyph glyph-name="Edotaccent" unicode="&#x116;" horiz-adv-x="620" 
d="M92 700h472v-80h-388v-227h358v-80h-358v-233h394v-80h-478v700zM270 827q0 27 17.5 42.5t42.5 15.5q26 0 43 -15.5t17 -42.5q0 -28 -17 -43.5t-43 -15.5q-25 0 -42.5 15.5t-17.5 43.5z" />
    <glyph glyph-name="edotaccent" unicode="&#x117;" horiz-adv-x="548" 
d="M41 240q0 118 72.5 185t166.5 67q88 0 145.5 -44t75.5 -108.5t2 -134.5h-382q7 -71 63 -107t135 -36q88 0 158 39v-78q-67 -35 -170 -35q-114 0 -190 65t-76 187zM432 275q3 21 -3 44t-21.5 46t-47.5 38t-75 15q-65 0 -112.5 -38t-51.5 -105h311zM217 607q0 27 17.5 42.5
t42.5 15.5q26 0 43 -15.5t17 -42.5q0 -28 -17 -43.5t-43 -15.5q-25 0 -42.5 15.5t-17.5 43.5z" />
    <glyph glyph-name="Eogonek" unicode="&#x118;" horiz-adv-x="620" 
d="M570 80v-80q-41 -28 -66 -63.5t-24 -63.5q-1 -18 10.5 -29t32.5 -12q26 2 47 13v-63q-30 -15 -67 -15q-48 -1 -73.5 24.5t-25.5 64.5q0 79 83 144h-395v700h472v-80h-388v-227h358v-80h-358v-233h394z" />
    <glyph glyph-name="eogonek" unicode="&#x119;" horiz-adv-x="548" 
d="M465 -210q-32 -22 -79 -22q-48 -1 -73.5 24.5t-25.5 64.5q0 71 77 134q-28 -3 -57 -3q-114 0 -190 65t-76 187q0 118 72.5 185t166.5 67q88 0 145.5 -44t75.5 -108t2 -135h-382q7 -71 63 -107t135 -36q88 0 158 39v-78q-116 -88 -114 -149q-1 -18 10.5 -29t32.5 -12
q34 2 59 21v-64zM285 418q-65 0 -112.5 -38t-51.5 -105h311q3 21 -3 44t-21.5 46t-47.5 38t-75 15z" />
    <glyph glyph-name="Ecaron" unicode="&#x11a;" horiz-adv-x="620" 
d="M92 700h472v-80h-388v-227h358v-80h-358v-233h394v-80h-478v700zM505 907l-132 -146h-72l-132 146h91l77 -86l77 86h91z" />
    <glyph glyph-name="ecaron" unicode="&#x11b;" horiz-adv-x="548" 
d="M41 240q0 118 72.5 185t166.5 67q88 0 145.5 -44t75.5 -108.5t2 -134.5h-382q7 -71 63 -107t135 -36q88 0 158 39v-78q-67 -35 -170 -35q-114 0 -190 65t-76 187zM432 275q3 21 -3 44t-21.5 46t-47.5 38t-75 15q-65 0 -112.5 -38t-51.5 -105h311zM452 687l-132 -146h-72
l-132 146h91l77 -86l77 86h91z" />
    <glyph glyph-name="Gbreve" unicode="&#x11e;" horiz-adv-x="705" 
d="M46 350q0 115 55 199.5t138 123.5t179 39q116 0 210 -47v-84q-81 51 -198 51q-57 0 -109 -16.5t-95.5 -49t-69 -88.5t-25.5 -128q0 -76 26 -132.5t70 -88t95.5 -46.5t109.5 -15q75 0 129 26v278h84v-337q-102 -47 -219 -47q-75 0 -141 20t-120.5 61.5t-86.5 113.5
t-32 167zM542 810q-59 -42 -140 -42t-140 42v78q67 -44 140 -44t140 44v-78z" />
    <glyph glyph-name="gbreve" unicode="&#x11f;" horiz-adv-x="621" 
d="M41 240q0 108 68.5 180t171.5 72q113 0 194 -92v80h72v-480q0 -116 -76 -174t-186 -58q-107 0 -195 45v78q87 -49 185 -49q85 0 139 37.5t53 120.5v74q-70 -86 -186 -86q-103 0 -171.5 72t-68.5 180zM467 300q-22 50 -69 84t-108 34q-72 0 -120.5 -49t-48.5 -129
t48.5 -129t120.5 -49q61 0 108 31.5t69 76.5v130zM429 590q-59 -42 -140 -42t-140 42v78q67 -44 140 -44t140 44v-78z" />
    <glyph glyph-name="Gdotaccent" unicode="&#x120;" horiz-adv-x="705" 
d="M46 350q0 115 55 199.5t138 123.5t179 39q116 0 210 -47v-84q-81 51 -198 51q-57 0 -109 -16.5t-95.5 -49t-69 -88.5t-25.5 -128q0 -76 26 -132.5t70 -88t95.5 -46.5t109.5 -15q75 0 129 26v278h84v-337q-102 -47 -219 -47q-75 0 -141 20t-120.5 61.5t-86.5 113.5
t-32 167zM338 827q0 27 17.5 42.5t42.5 15.5q26 0 43 -15.5t17 -42.5q0 -28 -17 -43.5t-43 -15.5q-25 0 -42.5 15.5t-17.5 43.5z" />
    <glyph glyph-name="gdotaccent" unicode="&#x121;" horiz-adv-x="621" 
d="M41 240q0 108 68.5 180t171.5 72q113 0 194 -92v80h72v-480q0 -116 -76 -174t-186 -58q-107 0 -195 45v78q87 -49 185 -49q85 0 139 37.5t53 120.5v74q-70 -86 -186 -86q-103 0 -171.5 72t-68.5 180zM467 300q-22 50 -69 84t-108 34q-72 0 -120.5 -49t-48.5 -129
t48.5 -129t120.5 -49q61 0 108 31.5t69 76.5v130zM225 607q0 27 17.5 42.5t42.5 15.5q26 0 43 -15.5t17 -42.5q0 -28 -17 -43.5t-43 -15.5q-25 0 -42.5 15.5t-17.5 43.5z" />
    <glyph glyph-name="Gcommaaccent" unicode="&#x122;" horiz-adv-x="705" 
d="M46 350q0 115 55 199.5t138 123.5t179 39q116 0 210 -47v-84q-81 51 -198 51q-57 0 -109 -16.5t-95.5 -49t-69 -88.5t-25.5 -128q0 -76 26 -132.5t70 -88t95.5 -46.5t109.5 -15q75 0 129 26v278h84v-337q-102 -47 -219 -47q-75 0 -141 20t-120.5 61.5t-86.5 113.5
t-32 167zM424 -241h-70l25 190h80z" />
    <glyph glyph-name="gcommaaccent" unicode="&#x123;" horiz-adv-x="621" 
d="M329 546h-80l33 164h70zM41 240q0 108 68.5 180t171.5 72q113 0 194 -92v80h72v-480q0 -116 -76 -174t-186 -58q-107 0 -195 45v78q87 -49 185 -49q85 0 139 37.5t53 120.5v74q-70 -86 -186 -86q-103 0 -171.5 72t-68.5 180zM467 300q-22 50 -69 84t-108 34
q-72 0 -120.5 -49t-48.5 -129t48.5 -129t120.5 -49q61 0 108 31.5t69 76.5v130z" />
    <glyph glyph-name="Hbar" unicode="&#x126;" horiz-adv-x="773" 
d="M179 0h-84v502h-74v70h74v128h84v-128h415v128h84v-128h74v-70h-74v-502h-84v311h-415v-311zM179 502v-111h415v111h-415z" />
    <glyph glyph-name="hbar" unicode="&#x127;" horiz-adv-x="586" 
d="M153 419q28 31 71.5 52t93.5 21q87 0 143.5 -54.5t56.5 -141.5v-296h-80v286q0 65 -35.5 98.5t-93.5 33.5q-92 0 -156 -96v-322h-80v561h-59v60h59v79h80v-79h178v-60h-178v-142z" />
    <glyph glyph-name="Imacron" unicode="&#x12a;" horiz-adv-x="268" 
d="M92 700h84v-700h-84v700zM-15 857h300v-73h-300v73z" />
    <glyph glyph-name="imacron" unicode="&#x12b;" horiz-adv-x="232" 
d="M6 649h220v-75h-220v75zM76 480h80v-480h-80v480z" />
    <glyph glyph-name="Iogonek" unicode="&#x12e;" horiz-adv-x="268" 
d="M100 -127q-1 -18 10.5 -29t32.5 -12q34 2 59 21v-64q-32 -22 -79 -22q-48 -1 -73.5 24.5t-25.5 64.5q0 66 68 149v695h84v-700q-78 -78 -76 -127z" />
    <glyph glyph-name="iogonek" unicode="&#x12f;" horiz-adv-x="233" 
d="M170 633q0 -24 -15 -37.5t-37 -13.5t-37.5 13.5t-15.5 37.5t15.5 37.5t37.5 13.5t37 -13.5t15 -37.5zM88 -127q-1 -18 10.5 -29t32.5 -12q34 2 59 21v-64q-32 -22 -79 -22q-48 -1 -73.5 24.5t-25.5 64.5q0 69 65 150v474h80v-480q-70 -76 -69 -127z" />
    <glyph glyph-name="Idotaccent" unicode="&#x130;" horiz-adv-x="268" 
d="M92 700h84v-700h-84v700zM71 827q0 27 17.5 42.5t42.5 15.5q26 0 43 -15.5t17 -42.5q0 -28 -17 -43.5t-43 -15.5q-25 0 -42.5 15.5t-17.5 43.5z" />
    <glyph glyph-name="dotlessi" unicode="&#x131;" horiz-adv-x="232" 
d="M76 480h80v-480h-80v480z" />
    <glyph glyph-name="IJ" unicode="&#x132;" horiz-adv-x="781" 
d="M92 700h84v-700h-84v700zM405 700h290v-502q0 -105 -63.5 -156.5t-166.5 -51.5q-111 0 -180 43v84q67 -47 165 -47q161 0 161 131v419h-206v80z" />
    <glyph glyph-name="ij" unicode="&#x133;" horiz-adv-x="464" 
d="M156 0h-80v480h80v-480zM168 633q0 -24 -15 -37.5t-37 -13.5t-37 13.5t-15 37.5t15 37.5t37 13.5t37 -13.5t15 -37.5zM388 -89q0 -77 -40 -110t-98 -33q-42 0 -74 13v74q22 -11 52 -11q80 0 80 79v557h80v-569zM400 633q0 -24 -15 -37.5t-37 -13.5t-37.5 13.5t-15.5 37.5
t15.5 37.5t37.5 13.5t37 -13.5t15 -37.5z" />
    <glyph glyph-name="Kcommaaccent" unicode="&#x136;" horiz-adv-x="665" 
d="M176 0h-84v700h84v-303h159l211 303h96l-238 -341l259 -359h-96l-229 317h-162v-317zM365 -231h-70l25 190h80z" />
    <glyph glyph-name="kcommaaccent" unicode="&#x137;" horiz-adv-x="521" 
d="M518 0h-94l-176 206h-94v-206h-80v700h80v-420h97l152 200h93l-182 -239zM283 -231h-70l25 190h80z" />
    <glyph glyph-name="Lacute" unicode="&#x139;" horiz-adv-x="579" 
d="M92 700h84v-620h388v-80h-472v700zM161 770h-87l91 147h100z" />
    <glyph glyph-name="lacute" unicode="&#x13a;" horiz-adv-x="232" 
d="M76 730h80v-730h-80v730zM154 770h-87l91 147h100z" />
    <glyph glyph-name="Lcommaaccent" unicode="&#x13b;" horiz-adv-x="579" 
d="M92 700h84v-620h388v-80h-472v700zM337 -231h-70l25 190h80z" />
    <glyph glyph-name="lcommaaccent" unicode="&#x13c;" horiz-adv-x="232" 
d="M76 730h80v-730h-80v730zM125 -231h-70l25 190h80z" />
    <glyph glyph-name="Lcaron" unicode="&#x13d;" horiz-adv-x="580" 
d="M372 700h80l-28 -184h-70zM92 700h84v-620h388v-80h-472v700z" />
    <glyph glyph-name="lcaron" unicode="&#x13e;" horiz-adv-x="232" 
d="M232 730h80l-28 -184h-70zM76 730h80v-730h-80v730z" />
    <glyph glyph-name="Ldot" unicode="&#x13f;" horiz-adv-x="584" 
d="M416 350q0 -24 -15 -37.5t-37 -13.5t-37.5 13.5t-15.5 37.5t15.5 37.5t37.5 13.5t37 -13.5t15 -37.5zM92 700h84v-620h388v-80h-472v700z" />
    <glyph glyph-name="ldot" unicode="&#x140;" horiz-adv-x="291" 
d="M76 730h80v-730h-80v730zM314 350q0 -24 -15 -37.5t-37 -13.5t-37.5 13.5t-15.5 37.5t15.5 37.5t37.5 13.5t37 -13.5t15 -37.5z" />
    <glyph glyph-name="Lslash" unicode="&#x141;" horiz-adv-x="586" 
d="M570 0h-472v270l-80 -33v70l80 33v360h84v-328l210 88v-70l-210 -88v-222h388v-80z" />
    <glyph glyph-name="lslash" unicode="&#x142;" horiz-adv-x="295" 
d="M108 730h80v-305l84 35v-70l-84 -36v-354h-80v323l-84 -35v70l84 36v336z" />
    <glyph glyph-name="Nacute" unicode="&#x143;" horiz-adv-x="767" 
d="M176 0h-84v700h78l421 -559v60v499h84v-700h-78l-421 560v-60v-500zM405 770h-87l91 147h100z" />
    <glyph glyph-name="nacute" unicode="&#x144;" 
d="M146 409q26 35 72.5 59t100.5 24q87 0 143.5 -54.5t56.5 -141.5v-296h-80v286q0 65 -35.5 98.5t-93.5 33.5q-92 0 -156 -96v-322h-80v480h72v-71zM319 550h-87l91 147h100z" />
    <glyph glyph-name="Ncommaaccent" unicode="&#x145;" horiz-adv-x="767" 
d="M176 0h-84v700h78l421 -559v60v499h84v-700h-78l-421 560v-60v-500zM402 -231h-70l25 190h80z" />
    <glyph glyph-name="ncommaaccent" unicode="&#x146;" 
d="M146 409q26 35 72.5 59t100.5 24q87 0 143.5 -54.5t56.5 -141.5v-296h-80v286q0 65 -35.5 98.5t-93.5 33.5q-92 0 -156 -96v-322h-80v480h72v-71zM308 -231h-70l25 190h80z" />
    <glyph glyph-name="Ncaron" unicode="&#x147;" horiz-adv-x="767" 
d="M176 0h-84v700h78l421 -559v60v499h84v-700h-78l-421 560v-60v-500zM555 907l-132 -146h-72l-132 146h91l77 -86l77 86h91z" />
    <glyph glyph-name="ncaron" unicode="&#x148;" 
d="M146 409q26 35 72.5 59t100.5 24q87 0 143.5 -54.5t56.5 -141.5v-296h-80v286q0 65 -35.5 98.5t-93.5 33.5q-92 0 -156 -96v-322h-80v480h72v-71zM469 687l-132 -146h-72l-132 146h91l77 -86l77 86h91z" />
    <glyph glyph-name="Eng" unicode="&#x14a;" horiz-adv-x="767" 
d="M675 -81q0 -74 -39.5 -111.5t-103.5 -37.5q-34 0 -72 11v77q24 -8 53 -8q78 0 78 79v79l-415 552v-60v-500h-84v700h78l421 -559v60v499h84v-781z" />
    <glyph glyph-name="eng" unicode="&#x14b;" 
d="M519 -89q0 -77 -40 -110t-98 -33q-41 0 -74 13v74q26 -13 52 -13q80 0 80 81v363q0 65 -35.5 98.5t-93.5 33.5q-92 0 -156 -96v-322h-80v480h72v-71q26 35 72.5 59t100.5 24q87 0 143.5 -54.5t56.5 -141.5v-385z" />
    <glyph glyph-name="Omacron" unicode="&#x14c;" horiz-adv-x="822" 
d="M45 350q0 69 23.5 133t67.5 115.5t115 82.5t160 31t160 -31t115 -82.5t67.5 -115.5t23.5 -133t-23.5 -133t-67.5 -115.5t-115 -82.5t-160 -31t-160 31t-115 82.5t-67.5 115.5t-23.5 133zM692 350q0 55 -17.5 105t-51 90t-88.5 63.5t-124 23.5t-124 -23.5t-88.5 -63.5
t-51 -90t-17.5 -105t17.5 -105t51 -90t88.5 -63.5t124 -23.5t124 23.5t88.5 63.5t51 90t17.5 105zM261 857h300v-73h-300v73z" />
    <glyph glyph-name="omacron" unicode="&#x14d;" horiz-adv-x="594" 
d="M41 240q0 117 76 184.5t180 67.5q105 0 180.5 -67.5t75.5 -184.5t-75.5 -184.5t-180.5 -67.5q-104 0 -180 67.5t-76 184.5zM473 240q0 81 -50 128.5t-126 47.5t-126 -47.5t-50 -128.5t50 -128.5t126 -47.5t126 47.5t50 128.5zM146 637h300v-73h-300v73z" />
    <glyph glyph-name="Ohungarumlaut" unicode="&#x150;" horiz-adv-x="822" 
d="M45 350q0 69 23.5 133t67.5 115.5t115 82.5t160 31t160 -31t115 -82.5t67.5 -115.5t23.5 -133t-23.5 -133t-67.5 -115.5t-115 -82.5t-160 -31t-160 31t-115 82.5t-67.5 115.5t-23.5 133zM692 350q0 55 -17.5 105t-51 90t-88.5 63.5t-124 23.5t-124 -23.5t-88.5 -63.5
t-51 -90t-17.5 -105t17.5 -105t51 -90t88.5 -63.5t124 -23.5t124 23.5t88.5 63.5t51 90t17.5 105zM528 780h-85l69 147h90zM373 780h-85l69 147h90z" />
    <glyph glyph-name="ohungarumlaut" unicode="&#x151;" horiz-adv-x="594" 
d="M41 240q0 117 76 184.5t180 67.5q105 0 180.5 -67.5t75.5 -184.5t-75.5 -184.5t-180.5 -67.5q-104 0 -180 67.5t-76 184.5zM473 240q0 81 -50 128.5t-126 47.5t-126 -47.5t-50 -128.5t50 -128.5t126 -47.5t126 47.5t50 128.5zM413 560h-85l69 147h90zM258 560h-85l69 147
h90z" />
    <glyph glyph-name="OE" unicode="&#x152;" horiz-adv-x="1031" 
d="M533 0q-48 -12 -122 -12q-89 0 -160 31t-115 82.5t-67.5 115.5t-23.5 133t23.5 133t67.5 115.5t115 82.5t160 31q74 0 122 -12h442v-80h-358v-227h328v-80h-328v-233h364v-80h-448zM132 350q0 -122 76.5 -202t207.5 -80q64 0 117 15v534q-53 15 -117 15
q-131 0 -207.5 -80t-76.5 -202z" />
    <glyph glyph-name="oe" unicode="&#x153;" horiz-adv-x="979" 
d="M512 103q-33 -56 -90 -85.5t-125 -29.5q-104 0 -180 67.5t-76 184.5t76 184.5t180 67.5q67 0 124.5 -29.5t90.5 -84.5q31 55 85 84.5t115 29.5q67 0 117 -26t75 -67.5t35 -93.5t-4 -105h-382q7 -68 63 -103t135 -35q84 0 154 39v-74q-69 -39 -171 -39q-70 0 -129.5 29
t-92.5 86zM121 240q0 -81 50 -128.5t126 -47.5t126 47.5t50 128.5t-50 128.5t-126 47.5t-126 -47.5t-50 -128.5zM717 418q-67 0 -113.5 -38.5t-50.5 -109.5h311q4 32 -7 64t-47 58t-93 26z" />
    <glyph glyph-name="Racute" unicode="&#x154;" horiz-adv-x="695" 
d="M176 0h-84v700h274q69 0 125 -18.5t96.5 -68t40.5 -125.5q0 -90 -52 -140t-135 -65l237 -283h-105l-229 276h-168v-276zM176 620v-264h194q74 0 123.5 30.5t49.5 101.5q0 72 -49.5 102t-123.5 30h-194zM356 770h-87l91 147h100z" />
    <glyph glyph-name="racute" unicode="&#x155;" horiz-adv-x="366" 
d="M146 395q28 47 86 73.5t121 21.5v-80q-70 8 -123.5 -22.5t-75.5 -88.5v-299h-80v480h72v-85zM229 550h-87l91 147h100z" />
    <glyph glyph-name="Rcommaaccent" unicode="&#x156;" horiz-adv-x="695" 
d="M176 0h-84v700h274q69 0 125 -18.5t96.5 -68t40.5 -125.5q0 -90 -52 -140t-135 -65l237 -283h-105l-229 276h-168v-276zM176 620v-264h194q74 0 123.5 30.5t49.5 101.5q0 72 -49.5 102t-123.5 30h-194zM363 -231h-70l25 190h80z" />
    <glyph glyph-name="rcommaaccent" unicode="&#x157;" horiz-adv-x="366" 
d="M146 395q28 47 86 73.5t121 21.5v-80q-70 8 -123.5 -22.5t-75.5 -88.5v-299h-80v480h72v-85zM118 -231h-70l25 190h80z" />
    <glyph glyph-name="Rcaron" unicode="&#x158;" horiz-adv-x="695" 
d="M176 0h-84v700h274q69 0 125 -18.5t96.5 -68t40.5 -125.5q0 -90 -52 -140t-135 -65l237 -283h-105l-229 276h-168v-276zM176 620v-264h194q74 0 123.5 30.5t49.5 101.5q0 72 -49.5 102t-123.5 30h-194zM506 907l-132 -146h-72l-132 146h91l77 -86l77 86h91z" />
    <glyph glyph-name="rcaron" unicode="&#x159;" horiz-adv-x="365" 
d="M145 395q28 47 86 73.5t121 21.5v-80q-70 8 -123.5 -22.5t-75.5 -88.5v-299h-80v480h72v-85zM378 687l-132 -146h-72l-132 146h91l77 -86l77 86h91z" />
    <glyph glyph-name="Sacute" unicode="&#x15a;" horiz-adv-x="585" 
d="M50 527q0 89 69 137t171 48q123 0 212 -51v-84q-88 57 -206 55q-161 0 -161 -102q0 -41 31 -70t77 -44t100.5 -34.5t100.5 -40t77 -62.5t31 -101q0 -50 -21.5 -88t-58.5 -60t-82 -32t-97 -10q-133 0 -240 60v84q105 -64 234 -64q180 0 180 104q0 38 -23 65.5t-60 44.5
t-81.5 31t-88.5 30.5t-81 38t-60 58.5t-23 87zM303 770h-87l91 147h100z" />
    <glyph glyph-name="sacute" unicode="&#x15b;" horiz-adv-x="466" 
d="M46 354q0 69 53.5 103.5t129.5 34.5q93 0 170 -41v-76q-30 20 -76 32.5t-89 12.5q-44 0 -75.5 -15.5t-31.5 -48.5q0 -24 22.5 -41.5t56.5 -26.5t73.5 -22.5t73.5 -28t56.5 -44t22.5 -70.5q0 -70 -56 -102.5t-142 -32.5q-113 0 -186 47v78q76 -51 182 -51q122 0 122 59
q0 27 -31.5 45.5t-76.5 31t-90 28.5t-76.5 48t-31.5 80zM246 550h-87l91 147h100z" />
    <glyph glyph-name="Scedilla" unicode="&#x15e;" horiz-adv-x="585" 
d="M135 530q0 -41 31 -70t77 -44t100.5 -34.5t100.5 -40t77 -62.5t31 -101q0 -87 -60 -133.5t-155 -54.5l-12 -48q48 2 76 -18.5t29 -59.5q1 -47 -35 -71.5t-98 -24.5q-54 0 -98 19v68q39 -22 89 -22q73 0 73 34q0 21 -38.5 27.5t-76.5 -2.5l21 97q-114 4 -214 59v84
q105 -64 234 -64q180 0 180 104q0 38 -23 65.5t-60 44.5t-81.5 31t-88.5 30.5t-81 38t-60 58.5t-23 87q0 89 69 137t171 48q123 0 212 -51v-84q-88 57 -206 55q-161 0 -161 -102z" />
    <glyph glyph-name="scedilla" unicode="&#x15f;" horiz-adv-x="466" 
d="M127 356q0 -24 22.5 -41.5t56.5 -26.5t73.5 -22.5t73.5 -28t56.5 -44t22.5 -70.5q0 -61 -42.5 -93.5t-112.5 -39.5l-12 -48q48 2 76 -18.5t29 -59.5q1 -47 -35 -71.5t-98 -24.5q-54 0 -98 19v68q39 -22 89 -22q73 0 73 34q0 21 -38.5 27.5t-76.5 -2.5l22 97
q-98 7 -160 46v78q76 -51 182 -51q122 0 122 59q0 27 -31.5 45.5t-76.5 31t-90 28.5t-76.5 48t-31.5 80q0 69 53.5 103.5t129.5 34.5q93 0 170 -41v-76q-30 20 -76 32.5t-89 12.5q-44 0 -75.5 -15.5t-31.5 -48.5z" />
    <glyph glyph-name="Scaron" unicode="&#x160;" horiz-adv-x="585" 
d="M50 527q0 89 69 137t171 48q123 0 212 -51v-84q-88 57 -206 55q-161 0 -161 -102q0 -41 31 -70t77 -44t100.5 -34.5t100.5 -40t77 -62.5t31 -101q0 -50 -21.5 -88t-58.5 -60t-82 -32t-97 -10q-133 0 -240 60v84q105 -64 234 -64q180 0 180 104q0 38 -23 65.5t-60 44.5
t-81.5 31t-88.5 30.5t-81 38t-60 58.5t-23 87zM453 907l-132 -146h-72l-132 146h91l77 -86l77 86h91z" />
    <glyph glyph-name="scaron" unicode="&#x161;" horiz-adv-x="466" 
d="M46 354q0 69 53.5 103.5t129.5 34.5q93 0 170 -41v-76q-30 20 -76 32.5t-89 12.5q-44 0 -75.5 -15.5t-31.5 -48.5q0 -24 22.5 -41.5t56.5 -26.5t73.5 -22.5t73.5 -28t56.5 -44t22.5 -70.5q0 -70 -56 -102.5t-142 -32.5q-113 0 -186 47v78q76 -51 182 -51q122 0 122 59
q0 27 -31.5 45.5t-76.5 31t-90 28.5t-76.5 48t-31.5 80zM396 687l-132 -146h-72l-132 146h91l77 -86l77 86h91z" />
    <glyph glyph-name="Tcommaaccent" unicode="&#x162;" horiz-adv-x="604" 
d="M14 700h576v-80h-246v-620h-84v620h-246v80zM310 -231h-70l25 190h80z" />
    <glyph glyph-name="tcommaaccent" unicode="&#x163;" horiz-adv-x="410" 
d="M106 629l79 20v-169h192v-74h-192v-248q0 -53 24.5 -74t78.5 -21q52 0 106 22v-74q-61 -22 -129 -22q-73 0 -116 39.5t-43 115.5v262h-90v74h90v149zM256 -231h-70l25 190h80z" />
    <glyph glyph-name="Tcaron" unicode="&#x164;" horiz-adv-x="604" 
d="M14 700h576v-80h-246v-620h-84v620h-246v80zM476 907l-132 -146h-72l-132 146h91l77 -86l77 86h91z" />
    <glyph glyph-name="tcaron" unicode="&#x165;" horiz-adv-x="410" 
d="M277 730h80l-28 -174h-70zM106 629l79 20v-169h192v-74h-192v-248q0 -53 24.5 -74t78.5 -21q52 0 106 22v-74q-61 -22 -129 -22q-73 0 -116 39.5t-43 115.5v262h-90v74h90v149z" />
    <glyph glyph-name="Tbar" unicode="&#x166;" horiz-adv-x="614" 
d="M349 0h-84v313h-119v70h119v237h-246v80h576v-80h-246v-237h119v-70h-119v-313z" />
    <glyph glyph-name="tbar" unicode="&#x167;" horiz-adv-x="411" 
d="M186 158q0 -53 24.5 -74t78.5 -21q52 0 106 22v-74q-61 -22 -129 -22q-73 0 -116 39.5t-43 115.5v84h-46v70h46v108h-90v74h90v149l79 20v-169h192v-74h-192v-108h157v-70h-157v-70z" />
    <glyph glyph-name="Umacron" unicode="&#x16a;" horiz-adv-x="753" 
d="M585 700h84v-444q0 -72 -23.5 -125.5t-65 -84t-92 -44.5t-111.5 -14q-129 0 -211 64t-82 204v444h84v-440q0 -192 209 -192q208 0 208 192v440zM223 857h300v-73h-300v73z" />
    <glyph glyph-name="umacron" unicode="&#x16b;" 
d="M433 480h80v-480h-72v71q-26 -35 -72.5 -59t-100.5 -24q-93 0 -146.5 53.5t-53.5 142.5v296h80v-286q0 -132 129 -132q92 0 156 96v322zM142 637h300v-73h-300v73z" />
    <glyph glyph-name="Uring" unicode="&#x16e;" horiz-adv-x="753" 
d="M585 700h84v-444q0 -72 -23.5 -125.5t-65 -84t-92 -44.5t-111.5 -14q-129 0 -211 64t-82 204v444h84v-440q0 -192 209 -192q208 0 208 192v440zM487 855q0 -50 -34 -80.5t-81 -30.5q-48 0 -82 30.5t-34 80.5q0 49 34 79t82 30q47 0 81 -30t34 -79zM317 854q0 -25 16 -40
t39 -15t39 15t16 40t-16 40t-39 15t-39 -15t-16 -40z" />
    <glyph glyph-name="uring" unicode="&#x16f;" 
d="M433 480h80v-480h-72v71q-26 -35 -72.5 -59t-100.5 -24q-93 0 -146.5 53.5t-53.5 142.5v296h80v-286q0 -132 129 -132q92 0 156 96v322zM406 635q0 -50 -34 -80.5t-81 -30.5q-48 0 -82 30.5t-34 80.5q0 49 34 79t82 30q47 0 81 -30t34 -79zM236 634q0 -25 16 -40t39 -15
t39 15t16 40t-16 40t-39 15t-39 -15t-16 -40z" />
    <glyph glyph-name="Uhungarumlaut" unicode="&#x170;" horiz-adv-x="753" 
d="M585 700h84v-444q0 -72 -23.5 -125.5t-65 -84t-92 -44.5t-111.5 -14q-129 0 -211 64t-82 204v444h84v-440q0 -192 209 -192q208 0 208 192v440zM490 780h-85l69 147h90zM335 780h-85l69 147h90z" />
    <glyph glyph-name="uhungarumlaut" unicode="&#x171;" 
d="M433 480h80v-480h-72v71q-26 -35 -72.5 -59t-100.5 -24q-93 0 -146.5 53.5t-53.5 142.5v296h80v-286q0 -132 129 -132q92 0 156 96v322zM409 560h-85l69 147h90zM254 560h-85l69 147h90z" />
    <glyph glyph-name="Uogonek" unicode="&#x172;" horiz-adv-x="753" 
d="M547 -211q-32 -22 -79 -22q-48 -1 -73.5 24.5t-25.5 64.5q0 69 64 135q-27 -3 -56 -3q-129 0 -211 64t-82 204v444h84v-440q0 -192 209 -192q208 0 208 192v440h84v-444q0 -149 -99 -217q-67 -46 -96.5 -90t-28.5 -76q-1 -18 10.5 -29t32.5 -12q34 2 59 21v-64z" />
    <glyph glyph-name="uogonek" unicode="&#x173;" 
d="M513 480v-480q-41 -28 -66 -63t-24 -63q-1 -18 10.5 -29.5t32.5 -11.5q25 0 47 12v-62q-30 -15 -67 -15q-48 0 -73.5 25t-25.5 64q0 77 94 160v54q-26 -35 -72.5 -59t-100.5 -24q-93 0 -146.5 53.5t-53.5 142.5v296h80v-286q0 -132 129 -132q92 0 156 96v322h80z" />
    <glyph glyph-name="Wcircumflex" unicode="&#x174;" horiz-adv-x="1013" 
d="M905 700h92l-220 -700h-94l-177 560l-177 -560h-93l-220 700h92l175 -598l186 598h75l186 -598zM473 917h72l132 -146h-91l-77 86l-77 -86h-91z" />
    <glyph glyph-name="wcircumflex" unicode="&#x175;" horiz-adv-x="798" 
d="M696 480h84l-164 -480h-87l-130 371l-130 -371h-87l-164 480h84l124 -392l137 392h72l137 -392zM366 697h72l132 -146h-91l-77 86l-77 -86h-91z" />
    <glyph glyph-name="Ycircumflex" unicode="&#x176;" horiz-adv-x="656" 
d="M370 0h-84v265l-275 435h93l224 -360l224 360h93l-275 -435v-265zM296 917h72l132 -146h-91l-77 86l-77 -86h-91z" />
    <glyph glyph-name="ycircumflex" unicode="&#x177;" horiz-adv-x="538" 
d="M276 91l162 389h85l-236 -552q-69 -160 -181 -160q-27 0 -52 7v69q21 -6 42 -6q77 0 124 117l18 44l-228 481h85zM227 697h72l132 -146h-91l-77 86l-77 -86h-91z" />
    <glyph glyph-name="Ydieresis" unicode="&#x178;" horiz-adv-x="656" 
d="M370 0h-84v265l-275 435h93l224 -360l224 360h93l-275 -435v-265zM484 837q0 -23 -16 -39t-39 -16t-39 16t-16 39q0 22 16.5 38.5t38.5 16.5t38.5 -16.5t16.5 -38.5zM282 837q0 -23 -16 -39t-39 -16t-39 16t-16 39q0 22 16.5 38.5t38.5 16.5t38.5 -16.5t16.5 -38.5z" />
    <glyph glyph-name="Zacute" unicode="&#x179;" horiz-adv-x="586" 
d="M554 0h-519v76l402 544h-392v80h493v-76l-403 -544h419v-80zM322 770h-87l91 147h100z" />
    <glyph glyph-name="zacute" unicode="&#x17a;" horiz-adv-x="464" 
d="M48 480h364v-71l-282 -339h301v-70h-395v71l282 339h-270v70zM255 550h-87l91 147h100z" />
    <glyph glyph-name="Zdotaccent" unicode="&#x17b;" horiz-adv-x="586" 
d="M554 0h-519v76l402 544h-392v80h493v-76l-403 -544h419v-80zM237 827q0 27 17.5 42.5t42.5 15.5q26 0 43 -15.5t17 -42.5q0 -28 -17 -43.5t-43 -15.5q-25 0 -42.5 15.5t-17.5 43.5z" />
    <glyph glyph-name="zdotaccent" unicode="&#x17c;" horiz-adv-x="464" 
d="M48 480h364v-71l-282 -339h301v-70h-395v71l282 339h-270v70zM170 607q0 27 17.5 42.5t42.5 15.5q26 0 43 -15.5t17 -42.5q0 -28 -17 -43.5t-43 -15.5q-25 0 -42.5 15.5t-17.5 43.5z" />
    <glyph glyph-name="Zcaron" unicode="&#x17d;" horiz-adv-x="586" 
d="M554 0h-519v76l402 544h-392v80h493v-76l-403 -544h419v-80zM472 907l-132 -146h-72l-132 146h91l77 -86l77 86h91z" />
    <glyph glyph-name="zcaron" unicode="&#x17e;" horiz-adv-x="464" 
d="M48 480h364v-71l-282 -339h301v-70h-395v71l282 339h-270v70zM405 687l-132 -146h-72l-132 146h91l77 -86l77 86h91z" />
    <glyph glyph-name="Scommaaccent" unicode="&#x218;" horiz-adv-x="585" 
d="M50 527q0 89 69 137t171 48q123 0 212 -51v-84q-88 57 -206 55q-161 0 -161 -102q0 -41 31 -70t77 -44t100.5 -34.5t100.5 -40t77 -62.5t31 -101q0 -50 -21.5 -88t-58.5 -60t-82 -32t-97 -10q-133 0 -240 60v84q105 -64 234 -64q180 0 180 104q0 38 -23 65.5t-60 44.5
t-81.5 31t-88.5 30.5t-81 38t-60 58.5t-23 87zM304 -231h-70l25 190h80z" />
    <glyph glyph-name="scommaaccent" unicode="&#x219;" horiz-adv-x="466" 
d="M46 354q0 69 53.5 103.5t129.5 34.5q93 0 170 -41v-76q-30 20 -76 32.5t-89 12.5q-44 0 -75.5 -15.5t-31.5 -48.5q0 -24 22.5 -41.5t56.5 -26.5t73.5 -22.5t73.5 -28t56.5 -44t22.5 -70.5q0 -70 -56 -102.5t-142 -32.5q-113 0 -186 47v78q76 -51 182 -51q122 0 122 59
q0 27 -31.5 45.5t-76.5 31t-90 28.5t-76.5 48t-31.5 80zM244 -231h-70l25 190h80z" />
    <glyph glyph-name="uni021A" unicode="&#x21a;" horiz-adv-x="604" 
d="M14 700h576v-80h-246v-620h-84v620h-246v80zM310 -231h-70l25 190h80z" />
    <glyph glyph-name="uni021B" unicode="&#x21b;" horiz-adv-x="410" 
d="M106 629l79 20v-169h192v-74h-192v-248q0 -53 24.5 -74t78.5 -21q52 0 106 22v-74q-61 -22 -129 -22q-73 0 -116 39.5t-43 115.5v262h-90v74h90v149zM256 -231h-70l25 190h80z" />
    <glyph glyph-name="circumflex" unicode="&#x2c6;" horiz-adv-x="328" 
d="M128 917h72l132 -146h-91l-77 86l-77 -86h-91z" />
    <glyph glyph-name="caron" unicode="&#x2c7;" horiz-adv-x="328" 
d="M332 907l-132 -146h-72l-132 146h91l77 -86l77 86h91z" />
    <glyph glyph-name="breve" unicode="&#x2d8;" horiz-adv-x="338" 
d="M309 810q-59 -42 -140 -42t-140 42v78q67 -44 140 -44t140 44v-78z" />
    <glyph glyph-name="dotaccent" unicode="&#x2d9;" horiz-adv-x="111" 
d="M-4 827q0 27 17.5 42.5t42.5 15.5q26 0 43 -15.5t17 -42.5q0 -28 -17 -43.5t-43 -15.5q-25 0 -42.5 15.5t-17.5 43.5z" />
    <glyph glyph-name="ring" unicode="&#x2da;" horiz-adv-x="223" 
d="M227 855q0 -50 -34 -80.5t-81 -30.5q-48 0 -82 30.5t-34 80.5q0 49 34 79t82 30q47 0 81 -30t34 -79zM57 854q0 -25 16 -40t39 -15t39 15t16 40t-16 40t-39 15t-39 -15t-16 -40z" />
    <glyph glyph-name="ogonek" unicode="&#x2db;" horiz-adv-x="215" 
d="M95 0h83q-41 -28 -66 -63.5t-24 -63.5q-1 -18 10.5 -29t32.5 -12q34 2 59 21v-64q-32 -22 -79 -22q-48 -1 -73.5 24.5t-25.5 64.5q0 79 83 144z" />
    <glyph glyph-name="tilde" unicode="&#x2dc;" horiz-adv-x="351" 
d="M340 869q7 -51 -18 -78.5t-64 -27.5q-34 0 -85.5 21t-62.5 21q-16 0 -23.5 -10t-5.5 -27h-70q-8 51 16.5 79t63.5 28q34 0 85.5 -21t63.5 -21q33 0 30 36h70z" />
    <glyph glyph-name="hungarumlaut" unicode="&#x2dd;" horiz-adv-x="374" 
d="M270 780h-85l69 147h90zM115 780h-85l69 147h90z" />
    <glyph glyph-name="uni0326" unicode="&#x326;" horiz-adv-x="145" 
d="M90 -231h-70l25 190h80z" />
    <glyph glyph-name="uni0401" unicode="&#x401;" horiz-adv-x="618" 
d="M489 837q0 -23 -16.5 -39t-38.5 -16t-38.5 16t-16.5 39q0 22 16.5 38.5t38.5 16.5t38.5 -16.5t16.5 -38.5zM287 837q0 -23 -16.5 -39t-38.5 -16t-38.5 16t-16.5 39q0 22 16.5 38.5t38.5 16.5t38.5 -16.5t16.5 -38.5zM92 700h472v-80h-388v-227h358v-80h-358v-233h394v-80
h-478v700z" />
    <glyph glyph-name="uni0410" unicode="&#x410;" horiz-adv-x="717" 
d="M98 0h-91l305 700h93l304 -700h-90l-72 169h-377zM347 587l-144 -340h311l-145 340q-2 5 -11 27q-9 -23 -11 -27z" />
    <glyph glyph-name="uni0411" unicode="&#x411;" horiz-adv-x="666" 
d="M176 417h186q269 0 269 -209q0 -208 -269 -208h-270v700h485v-80h-401v-203zM176 80h190q30 0 53 2.5t48.5 10t41.5 21t26.5 37.5t10.5 57q0 41 -15 68.5t-43 39.5t-56 16.5t-66 4.5h-190v-257z" />
    <glyph glyph-name="uni0412" unicode="&#x412;" horiz-adv-x="692" 
d="M92 700h287q110 0 174 -45.5t64 -131.5q0 -62 -33 -101.5t-79 -53.5q56 -15 98 -57.5t42 -118.5q0 -46 -17.5 -81t-44 -55.5t-62 -33.5t-68 -17.5t-66.5 -4.5h-295v700zM560 201q0 121 -167 121h-217v-242h194q32 0 54 1.5t50 8t45 19t29 36t12 56.5zM532 511
q0 59 -40.5 84t-119.5 25h-196v-218h219q60 0 98.5 26.5t38.5 82.5z" />
    <glyph glyph-name="uni0413" unicode="&#x413;" horiz-adv-x="567" 
d="M176 0h-84v700h460v-80h-376v-620z" />
    <glyph glyph-name="uni0414" unicode="&#x414;" horiz-adv-x="768" 
d="M99 -165h-80v245h85q114 206 114 620h430v-620h88v-245h-80v165h-557v-165zM304 620q-22 -374 -106 -540h366v540h-260z" />
    <glyph glyph-name="uni0415" unicode="&#x415;" horiz-adv-x="618" 
d="M92 700h472v-80h-388v-227h358v-80h-358v-233h394v-80h-478v700z" />
    <glyph glyph-name="uni0416" unicode="&#x416;" horiz-adv-x="939" 
d="M103 0h-96l227 359l-206 341h96l177 -303h127v303h84v-303h126l177 303h96l-206 -341l227 -359h-96l-199 317h-125v-317h-84v317h-126z" />
    <glyph glyph-name="uni0417" unicode="&#x417;" horiz-adv-x="610" 
d="M564 189q0 -54 -24.5 -94.5t-66 -63t-88 -33t-98.5 -10.5q-135 0 -249 44v84q106 -50 243 -48q197 0 197 129q0 126 -188 126h-143v80h134q77 0 123 29.5t46 84.5q0 115 -182 115q-110 1 -218 -49v84q103 45 225 45q116 0 188 -47.5t72 -137.5q0 -61 -32 -102.5
t-83 -58.5q57 -12 100.5 -56t43.5 -121z" />
    <glyph glyph-name="uni0418" unicode="&#x418;" horiz-adv-x="767" 
d="M675 0h-84v500v60l-421 -560h-78v700h84v-499v-60l421 559h78v-700z" />
    <glyph glyph-name="uni0419" unicode="&#x419;" horiz-adv-x="767" 
d="M591 0h84v700h-78l-421 -559v60v499h-84v-700h78l421 560v-60v-500zM523 810q-59 -42 -140 -42t-140 42v78q67 -44 140 -44t140 44v-78z" />
    <glyph glyph-name="uni041A" unicode="&#x41a;" horiz-adv-x="665" 
d="M176 0h-84v700h84v-303h159l211 303h96l-238 -341l259 -359h-96l-229 317h-162v-317z" />
    <glyph glyph-name="uni041B" unicode="&#x41b;" horiz-adv-x="746" 
d="M223 700h431v-700h-84v620h-267q-25 -288 -51 -400q-49 -207 -160 -228q-12 -2 -26 -2q-32 0 -62 11v80q20 -7 48 -7q35 0 62 34t43.5 88.5t29 134t20 160.5t14.5 178q0 7 0.5 10.5t1 9.5t0.5 11z" />
    <glyph glyph-name="uni041C" unicode="&#x41c;" horiz-adv-x="906" 
d="M742 700h72v-700h-84v541l-251 -376h-52l-251 376v-541h-84v700h72l289 -432z" />
    <glyph glyph-name="uni041D" unicode="&#x41d;" horiz-adv-x="767" 
d="M591 700h84v-700h-84v311h-415v-311h-84v700h84v-309h415v309z" />
    <glyph glyph-name="uni041E" unicode="&#x41e;" horiz-adv-x="822" 
d="M45 350q0 69 23.5 133t67.5 115.5t115 82.5t160 31t160 -31t115 -82.5t67.5 -115.5t23.5 -133t-23.5 -133t-67.5 -115.5t-115 -82.5t-160 -31t-160 31t-115 82.5t-67.5 115.5t-23.5 133zM692 350q0 55 -17.5 105t-51 90t-88.5 63.5t-124 23.5t-124 -23.5t-88.5 -63.5
t-51 -90t-17.5 -105t17.5 -105t51 -90t88.5 -63.5t124 -23.5t124 23.5t88.5 63.5t51 90t17.5 105z" />
    <glyph glyph-name="uni041F" unicode="&#x41f;" horiz-adv-x="755" 
d="M176 0h-84v700h571v-700h-84v620h-403v-620z" />
    <glyph glyph-name="uni0420" unicode="&#x420;" horiz-adv-x="661" 
d="M92 700h239q297 0 297 -226t-297 -226h-155v-248h-84v700zM543 474q0 43 -16 72.5t-45.5 45t-64.5 22t-82 6.5h-159v-292h159q97 0 152.5 32t55.5 114z" />
    <glyph glyph-name="uni0421" unicode="&#x421;" horiz-adv-x="658" 
d="M45 345q0 116 55 201.5t137 125.5t176 40q108 0 197 -47v-84q-76 51 -183 51q-120 0 -208 -73.5t-89 -213.5q0 -89 45.5 -154t112 -94t142.5 -29q113 0 185 51v-84q-91 -47 -203 -47q-67 0 -132 23.5t-118 67t-85 113t-32 153.5z" />
    <glyph glyph-name="uni0422" unicode="&#x422;" horiz-adv-x="604" 
d="M14 700h576v-80h-246v-620h-84v620h-246v80z" />
    <glyph glyph-name="uni0423" unicode="&#x423;" horiz-adv-x="632" 
d="M379 159q-81 -171 -220 -171q-48 0 -95 14v79q43 -13 80 -13q45 0 78.5 18t62.5 74l12 26l-289 514h93l241 -435l202 435h90z" />
    <glyph glyph-name="uni0424" unicode="&#x424;" horiz-adv-x="864" 
d="M474 -37h-84v91q-166 5 -263.5 82t-97.5 214t97.5 214t263.5 82v91h84v-91q166 -5 263.5 -82t97.5 -214t-97.5 -214t-263.5 -82v-91zM114 350q0 -100 70 -157.5t206 -62.5v440q-136 -5 -206 -62.5t-70 -157.5zM474 570v-440q136 5 206 62.5t70 157.5t-70 157.5t-206 62.5
z" />
    <glyph glyph-name="uni0425" unicode="&#x425;" horiz-adv-x="645" 
d="M102 0h-100l271 360l-256 340h100l206 -273l205 273h100l-255 -340l270 -360h-100l-220 293z" />
    <glyph glyph-name="uni0426" unicode="&#x426;" horiz-adv-x="784" 
d="M752 -165h-80l1 165h-581v700h84v-620h405v620h84v-620h87v-245z" />
    <glyph glyph-name="uni0427" unicode="&#x427;" horiz-adv-x="685" 
d="M593 0h-84v274q-104 -35 -205 -35q-123 2 -190.5 62t-67.5 176v223h84v-227q0 -152 194 -154q95 0 185 35v346h84v-700z" />
    <glyph glyph-name="uni0428" unicode="&#x428;" horiz-adv-x="1060" 
d="M968 0h-876v700h84v-620h312v620h84v-620h312v620h84v-700z" />
    <glyph glyph-name="uni0429" unicode="&#x429;" horiz-adv-x="1087" 
d="M1055 -165h-80l1 165h-884v700h84v-620h312v620h84v-620h312v620h84v-620h87v-245z" />
    <glyph glyph-name="uni042A" unicode="&#x42a;" horiz-adv-x="762" 
d="M432 0h-239v620h-178v80h262v-249h155q297 0 297 -225q0 -226 -297 -226zM277 371v-291h159q47 0 82 6.5t64.5 22t45.5 45t16 72.5q0 82 -55.5 113.5t-152.5 31.5h-159z" />
    <glyph glyph-name="uni042B" unicode="&#x42b;" horiz-adv-x="881" 
d="M331 0h-239v700h84v-249h155q297 0 297 -225q0 -226 -297 -226zM176 371v-291h159q47 0 82 6.5t64.5 22t45.5 45t16 72.5q0 82 -55.5 113.5t-152.5 31.5h-159zM789 0h-84v700h84v-700z" />
    <glyph glyph-name="uni042C" unicode="&#x42c;" horiz-adv-x="661" 
d="M331 0h-239v700h84v-249h155q297 0 297 -225q0 -226 -297 -226zM176 371v-291h159q47 0 82 6.5t64.5 22t45.5 45t16 72.5q0 82 -55.5 113.5t-152.5 31.5h-159z" />
    <glyph glyph-name="uni042D" unicode="&#x42d;" horiz-adv-x="655" 
d="M45 665q88 47 199 47q69 0 133.5 -23t117 -67t84 -116t31.5 -163q0 -89 -31.5 -159t-85 -111.5t-117.5 -63t-134 -21.5q-108 0 -197 47v87q76 -54 185 -54q55 0 104 13.5t91 41.5t69 76t31 111h-365v80h364q-11 119 -95 180.5t-197 61.5q-112 0 -187 -51v84z" />
    <glyph glyph-name="uni042E" unicode="&#x42e;" horiz-adv-x="1091" 
d="M1046 350q0 -69 -23.5 -133t-67.5 -115.5t-115 -82.5t-160 -31q-161 0 -255.5 93.5t-108.5 228.5h-140v-310h-84v700h84v-310h140q14 135 108.5 228.5t255.5 93.5q89 0 160 -31t115 -82.5t67.5 -115.5t23.5 -133zM399 350q0 -55 17.5 -105t51 -90t88.5 -63.5t124 -23.5
t124 23.5t88.5 63.5t51 90t17.5 105t-17.5 105t-51 90t-88.5 63.5t-124 23.5t-124 -23.5t-88.5 -63.5t-51 -90t-17.5 -105z" />
    <glyph glyph-name="uni042F" unicode="&#x42f;" horiz-adv-x="685" 
d="M130 0h-102l207 267q-80 19 -128.5 72t-48.5 139q0 74 39 125.5t98.5 74t133.5 22.5h264v-700h-84v256h-180h-1zM145 478q0 -71 50.5 -106.5t130.5 -35.5h183v284h-183q-80 0 -130.5 -35.5t-50.5 -106.5z" />
    <glyph glyph-name="uni0430" unicode="&#x430;" horiz-adv-x="550" 
d="M464 100q0 -37 37 -37q16 0 37 7v-65q-30 -11 -60 -11q-69 0 -88 58q-77 -64 -187 -64q-70 0 -119.5 37.5t-49.5 108.5q0 85 63.5 123.5t153.5 38.5q66 0 133 -15v17q0 55 -36 87.5t-101 32.5q-91 0 -175 -36v78q94 32 183 32q98 0 153.5 -52.5t55.5 -151.5v-188z
M116 138q0 -40 30.5 -60.5t73.5 -20.5q99 0 164 70v88q-68 14 -122 14q-61 0 -103.5 -21.5t-42.5 -69.5z" />
    <glyph glyph-name="uni0431" unicode="&#x431;" horiz-adv-x="585" 
d="M543 226q0 -111 -67.5 -174.5t-177.5 -63.5q-112 0 -180.5 74t-68.5 207q0 116 40 200t108 126q46 28 95.5 44.5t82 20.5t67.5 16.5t58 35.5v-84q-28 -20 -69 -29.5t-91 -22.5t-96 -40q-45 -27 -70 -68t-44 -98q26 40 74 65t103 25q97 0 166.5 -65t69.5 -169zM129 224
q0 -69 46 -114.5t121 -45.5q77 0 122 45t45 115t-45 115t-122 45q-72 0 -119.5 -48.5t-47.5 -111.5z" />
    <glyph glyph-name="uni0432" unicode="&#x432;" horiz-adv-x="548" 
d="M345 0h-271v480h263q65 0 106.5 -34t41.5 -96q0 -36 -18 -65t-46 -41q33 -11 56 -40t23 -71q0 -61 -39.5 -97t-115.5 -36zM154 208v-138h180q86 0 86 68q0 70 -83 70h-183zM154 410v-133h175q75 0 75 65q0 37 -22 52.5t-53 15.5h-175z" />
    <glyph glyph-name="uni0433" unicode="&#x433;" horiz-adv-x="442" 
d="M154 0h-80v480h351v-74h-271v-406z" />
    <glyph glyph-name="uni0434" unicode="&#x434;" horiz-adv-x="633" 
d="M104 -130h-78v202h64q85 150 82 408h358v-408h70v-202h-78v130h-418v-130zM249 408q-5 -197 -72 -336h273v336h-201z" />
    <glyph glyph-name="uni0435" unicode="&#x435;" horiz-adv-x="546" 
d="M41 240q0 118 72.5 185t166.5 67q88 0 145.5 -44t75.5 -108.5t2 -134.5h-382q7 -71 63 -107t135 -36q88 0 158 39v-78q-67 -35 -170 -35q-114 0 -190 65t-76 187zM432 275q3 21 -3 44t-21.5 46t-47.5 38t-75 15q-65 0 -112.5 -38t-51.5 -105h311z" />
    <glyph glyph-name="uni0436" unicode="&#x436;" horiz-adv-x="754" 
d="M747 0h-90l-163 201h-77v-201h-80v201h-77l-163 -201h-90l191 241l-169 239h89l146 -205h73v205h80v-205h73l146 205h89l-169 -239z" />
    <glyph glyph-name="uni0437" unicode="&#x437;" horiz-adv-x="477" 
d="M433 129q0 -67 -57.5 -104t-158.5 -37t-177 37v76q73 -39 167 -39q146 0 146 76q0 69 -106 69h-105v74h105q96 0 96 62q0 38 -36 57t-96 19q-87 0 -163 -38v75q81 37 172 37q98 0 150.5 -37.5t52.5 -101.5q0 -43 -24 -71t-65 -37q43 -11 71 -42t28 -75z" />
    <glyph glyph-name="uni0438" unicode="&#x438;" horiz-adv-x="590" 
d="M142 0h-68v480h80v-351l294 351h68v-480h-80v351z" />
    <glyph glyph-name="uni0439" unicode="&#x439;" horiz-adv-x="590" 
d="M435 596q-59 -42 -140 -42t-140 42v72q67 -44 140 -44t140 44v-72zM142 0h-68v480h80v-351l294 351h68v-480h-80v351z" />
    <glyph glyph-name="uni043A" unicode="&#x43a;" horiz-adv-x="523" 
d="M154 0h-80v480h80v-200h97l152 200h93l-182 -239l204 -241h-94l-176 206h-94v-206z" />
    <glyph glyph-name="uni043B" unicode="&#x43b;" horiz-adv-x="593" 
d="M244 406q-5 -79 -12 -138t-20 -113.5t-31.5 -88.5t-46.5 -54t-64 -20q-29 0 -58 11v63q16 -6 32 -6q60 0 87.5 105.5t34.5 314.5h353v-480h-80v406h-195z" />
    <glyph glyph-name="uni043C" unicode="&#x43c;" horiz-adv-x="672" 
d="M150 0h-76v480h87l175 -266l175 266h87v-480h-76v362l-156 -237h-60l-156 237v-362z" />
    <glyph glyph-name="uni043D" unicode="&#x43d;" horiz-adv-x="586" 
d="M154 0h-80v480h80v-203h278v203h80v-480h-80v203h-278v-203z" />
    <glyph glyph-name="uni043E" unicode="&#x43e;" horiz-adv-x="594" 
d="M41 240q0 117 76 184.5t180 67.5q105 0 180.5 -67.5t75.5 -184.5t-75.5 -184.5t-180.5 -67.5q-104 0 -180 67.5t-76 184.5zM473 240q0 81 -50 128.5t-126 47.5t-126 -47.5t-50 -128.5t50 -128.5t126 -47.5t126 47.5t50 128.5z" />
    <glyph glyph-name="uni043F" unicode="&#x43f;" horiz-adv-x="586" 
d="M154 0h-80v480h438v-480h-80v406h-278v-406z" />
    <glyph glyph-name="uni0440" unicode="&#x440;" horiz-adv-x="621" 
d="M146 400q81 92 194 92q103 0 171.5 -72t68.5 -180t-68.5 -180t-171.5 -72q-114 0 -186 84v-292h-80v700h72v-80zM500 240q0 80 -48.5 129t-120.5 49q-61 0 -108 -34t-69 -84v-120q22 -50 69 -84t108 -34q72 0 120.5 49t48.5 129z" />
    <glyph glyph-name="uni0441" unicode="&#x441;" horiz-adv-x="497" 
d="M41 238q0 63 23 113t60.5 80t83 45.5t93.5 15.5q89 0 148 -39v-78q-55 43 -138 43q-78 0 -134 -45t-56 -133q0 -87 55.5 -132.5t132.5 -45.5q80 0 145 39v-80q-68 -33 -156 -33q-104 0 -180.5 65t-76.5 185z" />
    <glyph glyph-name="uni0442" unicode="&#x442;" horiz-adv-x="467" 
d="M274 0h-80v406h-177v74h433v-74h-176v-406z" />
    <glyph glyph-name="uni0443" unicode="&#x443;" horiz-adv-x="538" 
d="M276 91l162 389h85l-236 -552q-69 -160 -181 -160q-27 0 -52 7v69q21 -6 42 -6q77 0 124 117l18 44l-228 481h85z" />
    <glyph glyph-name="uni0444" unicode="&#x444;" horiz-adv-x="722" 
d="M401 -220h-80v208q-122 3 -201.5 71.5t-79.5 180.5t79.5 180.5t201.5 71.5v208h80v-208q122 -3 201.5 -71.5t79.5 -180.5t-79.5 -180.5t-201.5 -71.5v-208zM120 240q0 -82 54.5 -130.5t146.5 -51.5v364q-92 -3 -146.5 -51.5t-54.5 -130.5zM401 422v-364q92 3 146.5 51.5
t54.5 130.5t-54.5 130.5t-146.5 51.5z" />
    <glyph glyph-name="uni0445" unicode="&#x445;" horiz-adv-x="489" 
d="M375 480h92l-176 -233l186 -247h-92l-140 190l-141 -190h-92l187 247l-177 233h92l131 -177z" />
    <glyph glyph-name="uni0446" unicode="&#x446;" horiz-adv-x="601" 
d="M568 -130h-78v130h-416v480h80v-406h263v406h80v-406h71v-204z" />
    <glyph glyph-name="uni0447" unicode="&#x447;" horiz-adv-x="523" 
d="M449 0h-80v167q-65 -25 -143 -25q-86 0 -135.5 43t-49.5 129v166h80v-160q0 -58 32.5 -81t96.5 -23q67 0 119 21v243h80v-480z" />
    <glyph glyph-name="uni0448" unicode="&#x448;" horiz-adv-x="818" 
d="M744 0h-670v480h80v-406h215v406h80v-406h215v406h80v-480z" />
    <glyph glyph-name="uni0449" unicode="&#x449;" horiz-adv-x="847" 
d="M814 -130h-78v130h-662v480h80v-406h215v406h80v-406h215v406h80v-406h70v-204z" />
    <glyph glyph-name="uni044A" unicode="&#x44a;" horiz-adv-x="592" 
d="M229 312h148q86 0 136 -44t50 -112t-50 -112t-136 -44h-228v410h-131v70h211v-168zM229 72h138q54 0 84.5 21t30.5 63t-30.5 63t-84.5 21h-138v-168z" />
    <glyph glyph-name="uni044B" unicode="&#x44b;" horiz-adv-x="735" 
d="M302 0h-228v480h80v-168h148q86 0 136 -44t50 -112t-50 -112t-136 -44zM154 240v-168h138q54 0 84.5 21t30.5 63t-30.5 63t-84.5 21h-138zM661 0h-80v480h80v-480z" />
    <glyph glyph-name="uni044C" unicode="&#x44c;" horiz-adv-x="517" 
d="M302 0h-228v480h80v-168h148q86 0 136 -44t50 -112t-50 -112t-136 -44zM154 240v-168h138q54 0 84.5 21t30.5 63t-30.5 63t-84.5 21h-138z" />
    <glyph glyph-name="uni044D" unicode="&#x44d;" horiz-adv-x="504" 
d="M463 233q0 -63 -22 -111.5t-59 -77t-80 -42.5t-90 -14q-93 0 -171 42v75q70 -43 155 -43q175 0 185 141h-248v74h248q-8 73 -62 107t-131 34q-78 0 -142 -43v74q68 43 151 43q108 0 187 -66t79 -193z" />
    <glyph glyph-name="uni044E" unicode="&#x44e;" horiz-adv-x="823" 
d="M782 240q0 -117 -75.5 -184.5t-180.5 -67.5q-95 0 -168.5 57.5t-85.5 157.5h-118v-203h-80v480h80v-203h118q12 100 85.5 157.5t168.5 57.5q105 0 180.5 -67.5t75.5 -184.5zM350 240q0 -81 50 -128.5t126 -47.5t126 47.5t50 128.5t-50 128.5t-126 47.5t-126 -47.5
t-50 -128.5z" />
    <glyph glyph-name="uni044F" unicode="&#x44f;" horiz-adv-x="542" 
d="M122 0h-94l139 176q-55 16 -85 56t-30 92q0 66 48 111t132 45h236v-480h-80v168h-135zM132 324q0 -40 28.5 -62t78.5 -22h149v168h-149q-50 0 -78.5 -22t-28.5 -62z" />
    <glyph glyph-name="uni0451" unicode="&#x451;" horiz-adv-x="546" 
d="M436 617q0 -23 -16 -39t-39 -16t-39 16t-16 39q0 22 16.5 38.5t38.5 16.5t38.5 -16.5t16.5 -38.5zM234 617q0 -23 -16 -39t-39 -16t-39 16t-16 39q0 22 16.5 38.5t38.5 16.5t38.5 -16.5t16.5 -38.5zM41 240q0 118 72.5 185t166.5 67q88 0 145.5 -44t75.5 -108.5t2 -134.5
h-382q7 -71 63 -107t135 -36q88 0 158 39v-78q-67 -35 -170 -35q-114 0 -190 65t-76 187zM432 275q3 21 -3 44t-21.5 46t-47.5 38t-75 15q-65 0 -112.5 -38t-51.5 -105h311z" />
    <glyph glyph-name="Wgrave" unicode="&#x1e80;" horiz-adv-x="1013" 
d="M905 700h92l-220 -700h-94l-177 560l-177 -560h-93l-220 700h92l175 -598l186 598h75l186 -598zM572 770h-87l-104 147h100z" />
    <glyph glyph-name="wgrave" unicode="&#x1e81;" horiz-adv-x="798" 
d="M696 480h84l-164 -480h-87l-130 371l-130 -371h-87l-164 480h84l124 -392l137 392h72l137 -392zM465 550h-87l-104 147h100z" />
    <glyph glyph-name="Wacute" unicode="&#x1e82;" horiz-adv-x="1013" 
d="M905 700h92l-220 -700h-94l-177 560l-177 -560h-93l-220 700h92l175 -598l186 598h75l186 -598zM527 770h-87l91 147h100z" />
    <glyph glyph-name="wacute" unicode="&#x1e83;" horiz-adv-x="798" 
d="M696 480h84l-164 -480h-87l-130 371l-130 -371h-87l-164 480h84l124 -392l137 392h72l137 -392zM420 550h-87l91 147h100z" />
    <glyph glyph-name="Wdieresis" unicode="&#x1e84;" horiz-adv-x="1013" 
d="M905 700h92l-220 -700h-94l-177 560l-177 -560h-93l-220 700h92l175 -598l186 598h75l186 -598zM661 837q0 -23 -16.5 -39t-38.5 -16t-38.5 16t-16.5 39q0 22 16.5 38.5t38.5 16.5t38.5 -16.5t16.5 -38.5zM459 837q0 -23 -16.5 -39t-38.5 -16t-38.5 16t-16.5 39
q0 22 16.5 38.5t38.5 16.5t38.5 -16.5t16.5 -38.5z" />
    <glyph glyph-name="wdieresis" unicode="&#x1e85;" horiz-adv-x="798" 
d="M696 480h84l-164 -480h-87l-130 371l-130 -371h-87l-164 480h84l124 -392l137 392h72l137 -392zM554 617q0 -23 -16 -39t-39 -16t-39 16t-16 39q0 22 16.5 38.5t38.5 16.5t38.5 -16.5t16.5 -38.5zM352 617q0 -23 -16 -39t-39 -16t-39 16t-16 39q0 22 16.5 38.5t38.5 16.5
t38.5 -16.5t16.5 -38.5z" />
    <glyph glyph-name="Ygrave" unicode="&#x1ef2;" horiz-adv-x="656" 
d="M370 0h-84v265l-275 435h93l224 -360l224 360h93l-275 -435v-265zM395 770h-87l-104 147h100z" />
    <glyph glyph-name="ygrave" unicode="&#x1ef3;" horiz-adv-x="538" 
d="M276 91l162 389h85l-236 -552q-69 -160 -181 -160q-27 0 -52 7v69q21 -6 42 -6q77 0 124 117l18 44l-228 481h85zM326 550h-87l-104 147h100z" />
    <glyph glyph-name="endash" unicode="&#x2013;" horiz-adv-x="574" 
d="M510 210h-446v76h446v-76z" />
    <glyph glyph-name="emdash" unicode="&#x2014;" horiz-adv-x="762" 
d="M698 210h-634v76h634v-76z" />
    <glyph glyph-name="quoteleft" unicode="&#x2018;" horiz-adv-x="221" 
d="M130 470h-85l75 230h65z" />
    <glyph glyph-name="quoteright" unicode="&#x2019;" horiz-adv-x="217" 
d="M114 470h-65l55 230h85z" />
    <glyph glyph-name="quotesinglbase" unicode="&#x201a;" horiz-adv-x="224" 
d="M86 -150h-65l55 230h85z" />
    <glyph glyph-name="quotedblleft" unicode="&#x201c;" horiz-adv-x="361" 
d="M270 470h-85l75 230h65zM130 470h-85l75 230h65z" />
    <glyph glyph-name="quotedblright" unicode="&#x201d;" horiz-adv-x="357" 
d="M254 470h-65l55 230h85zM114 470h-65l55 230h85z" />
    <glyph glyph-name="quotedblbase" unicode="&#x201e;" horiz-adv-x="364" 
d="M226 -150h-65l55 230h85zM86 -150h-65l55 230h85z" />
    <glyph glyph-name="dagger" unicode="&#x2020;" horiz-adv-x="513" 
d="M299 -220h-84v620h-183v80h183v220h84v-220h182v-80h-182v-620z" />
    <glyph glyph-name="daggerdbl" unicode="&#x2021;" horiz-adv-x="572" 
d="M328 -220h-84v294h-182v80h182v246h-182v80h182v220h84v-220h182v-80h-182v-246h182v-80h-182v-294z" />
    <glyph glyph-name="bullet" unicode="&#x2022;" horiz-adv-x="335" 
d="M86 350q0 38 23.5 58.5t57.5 20.5q35 0 58.5 -20.5t23.5 -58.5t-23.5 -58.5t-58.5 -20.5q-34 0 -57.5 20.5t-23.5 58.5z" />
    <glyph glyph-name="ellipsis" unicode="&#x2026;" horiz-adv-x="589" 
d="M534 42q0 -24 -15 -37.5t-38 -13.5q-22 0 -37 13.5t-15 37.5t15 37t37 13q23 0 38 -13t15 -37zM160 42q0 -24 -15 -37.5t-37 -13.5t-37.5 13.5t-15.5 37.5t15.5 37t37.5 13t37 -13t15 -37zM347 42q0 -24 -15 -37.5t-37 -13.5t-37.5 13.5t-15.5 37.5t15.5 37t37.5 13
t37 -13t15 -37z" />
    <glyph glyph-name="perthousand" unicode="&#x2030;" horiz-adv-x="1284" 
d="M284 -60h-80l409 820h80zM361 555q0 -73 -47.5 -115t-115.5 -42q-69 0 -117 42t-48 115t48 115t117 42q68 0 115.5 -42t47.5 -115zM109 555q0 -37 23.5 -62t65.5 -25q41 0 64 25t23 62t-23 62t-64 25q-42 0 -65.5 -25t-23.5 -62zM863 145q0 -73 -47.5 -115t-115.5 -42
q-69 0 -117 42t-48 115t48 115t117 42q68 0 115.5 -42t47.5 -115zM611 145q0 -37 23.5 -62t65.5 -25q41 0 64 25t23 62t-23 62t-64 25q-42 0 -65.5 -25t-23.5 -62zM1251 145q0 -73 -47.5 -115t-115.5 -42q-69 0 -117 42t-48 115t48 115t117 42q68 0 115.5 -42t47.5 -115z
M999 145q0 -37 23.5 -62t65.5 -25q41 0 64 25t23 62t-23 62t-64 25q-42 0 -65.5 -25t-23.5 -62z" />
    <glyph glyph-name="guilsinglleft" unicode="&#x2039;" horiz-adv-x="305" 
d="M253 58h-86l-123 174v16l123 174h86l-129 -182z" />
    <glyph glyph-name="guilsinglright" unicode="&#x203a;" horiz-adv-x="305" 
d="M137 58h-85l128 182l-128 182h85l124 -174v-16z" />
    <glyph glyph-name="fraction" unicode="&#x2044;" horiz-adv-x="171" 
d="M-126 -13h-35l458 725h35z" />
    <glyph glyph-name="Euro" unicode="&#x20ac;" horiz-adv-x="728" 
d="M672 35q-91 -47 -198 -47q-117 0 -215 67t-129 184h-90v70h78q-1 10 -1 30q0 22 1 32h-78v70h90q32 119 128.5 185t216.5 66q108 0 197 -47v-84q-76 51 -183 51q-91 0 -165.5 -44t-104.5 -127h331v-70h-346q-2 -20 -2 -32q0 -20 1 -30h347v-70h-331q30 -82 106 -126.5
t167 -44.5q108 0 180 51v-84z" />
    <glyph glyph-name="trademark" unicode="&#x2122;" horiz-adv-x="669" 
d="M354 446h-48v254h55l89 -131l89 131h55v-254h-48v186l-83 -122h-26l-83 122v-186zM177 446h-48v210h-85v44h218v-44h-85v-210z" />
    <glyph glyph-name="oneeighth" unicode="&#x215b;" horiz-adv-x="910" 
d="M551 306q0 44 39 77t113 33q67 0 111 -34t46 -83q2 -58 -47 -97q61 -35 61 -95q0 -48 -41.5 -81.5t-124.5 -33.5q-81 0 -126 35.5t-45 86.5q0 62 62 105q-48 36 -48 87zM712 173q-44 14 -54 18q-51 -28 -51 -69q0 -32 27 -49t76 -17q39 0 66.5 12.5t27.5 35.5
q0 27 -20 40.5t-61 25.5q-3 0 -4 0.5t-3 1t-4 1.5zM790 286q0 29 -24 47.5t-64 18.5q-36 0 -58.5 -12.5t-22.5 -32.5q0 -7 1.5 -13.5t5 -12t6.5 -9.5t10 -8l10.5 -6t13 -6t13 -5t14.5 -4.5t14 -4.5q4 -1 20 -5.5t26 -7.5q35 28 35 61zM214 -13h-35l458 725h35zM154 680h52
v-342h70v-66h-225v66h86v269l-82 -31v66z" />
    <glyph glyph-name="threeeighths" unicode="&#x215c;" horiz-adv-x="947" 
d="M588 306q0 44 39 77t113 33q67 0 111 -34t46 -83q2 -58 -47 -97q61 -35 61 -95q0 -48 -41.5 -81.5t-124.5 -33.5q-81 0 -126 35.5t-45 86.5q0 62 62 105q-48 36 -48 87zM749 173q-44 14 -54 18q-51 -28 -51 -69q0 -32 27 -49t76 -17q39 0 66.5 12.5t27.5 35.5
q0 27 -20 40.5t-61 25.5q-3 0 -4 0.5t-3 1t-4 1.5zM827 286q0 29 -24 47.5t-64 18.5q-36 0 -58.5 -12.5t-22.5 -32.5q0 -7 1.5 -13.5t5 -12t6.5 -9.5t10 -8l10.5 -6t13 -6t13 -5t14.5 -4.5t14 -4.5q4 -1 20 -5.5t26 -7.5q35 28 35 61zM261 -13h-35l458 725h35zM330 579
q0 -30 -14 -53.5t-34 -34.5q64 -31 64 -102q0 -58 -44.5 -89.5t-111.5 -31.5q-79 0 -142 28v68q57 -31 136 -31q95 0 95 60t-85 60h-65v66h57q77 0 77 54t-86 54q-65 0 -122 -33v68q58 30 131 30q65 0 104.5 -30.5t39.5 -82.5z" />
    <glyph glyph-name="fiveeighths" unicode="&#x215d;" horiz-adv-x="937" 
d="M578 306q0 44 39 77t113 33q67 0 111 -34t46 -83q2 -58 -47 -97q61 -35 61 -95q0 -48 -41.5 -81.5t-124.5 -33.5q-81 0 -126 35.5t-45 86.5q0 62 62 105q-48 36 -48 87zM739 173q-44 14 -54 18q-51 -28 -51 -69q0 -32 27 -49t76 -17q39 0 66.5 12.5t27.5 35.5
q0 27 -20 40.5t-61 25.5q-3 0 -4 0.5t-3 1t-4 1.5zM817 286q0 29 -24 47.5t-64 18.5q-36 0 -58.5 -12.5t-22.5 -32.5q0 -7 1.5 -13.5t5 -12t6.5 -9.5t10 -8l10.5 -6t13 -6t13 -5t14.5 -4.5t14 -4.5q4 -1 20 -5.5t26 -7.5q35 28 35 61zM251 -13h-35l458 725h35zM71 680h252
v-66h-186l-5 -83q24 6 53 6q66 0 112 -32.5t46 -104.5q0 -64 -47.5 -100t-118.5 -36q-75 0 -131 28v66q52 -29 122 -29q104 0 104 71q0 74 -112 74q-52 0 -102 -19z" />
    <glyph glyph-name="seveneighths" unicode="&#x215e;" horiz-adv-x="849" 
d="M158 -13h-35l458 725h35zM490 306q0 44 39 77t113 33q67 0 111 -34t46 -83q2 -58 -47 -97q61 -35 61 -95q0 -48 -41.5 -81.5t-124.5 -33.5q-81 0 -126 35.5t-45 86.5q0 62 62 105q-48 36 -48 87zM651 173q-44 14 -54 18q-51 -28 -51 -69q0 -32 27 -49t76 -17
q39 0 66.5 12.5t27.5 35.5q0 27 -20 40.5t-61 25.5q-3 0 -4 0.5t-3 1t-4 1.5zM729 286q0 29 -24 47.5t-64 18.5q-36 0 -58.5 -12.5t-22.5 -32.5q0 -7 1.5 -13.5t5 -12t6.5 -9.5t10 -8l10.5 -6t13 -6t13 -5t14.5 -4.5t14 -4.5q4 -1 20 -5.5t26 -7.5q35 28 35 61zM172 272h-75
l156 342h-217v66h292v-64z" />
    <glyph glyph-name="partialdiff" unicode="&#x2202;" horiz-adv-x="592" 
d="M541 271q0 -137 -69 -210t-182 -73q-107 0 -178 64.5t-71 168.5q0 96 67 159.5t160 63.5q68 0 123.5 -29t78.5 -76q-2 14 -4 22q-15 80 -55 135t-95 81.5t-106.5 36.5t-108.5 10v76q61 0 119.5 -12t117.5 -43t103 -78t72 -123.5t28 -172.5zM121 221q0 -71 46 -114
t123 -43q73 0 114 38t51 103q-2 72 -50.5 118.5t-123.5 46.5q-71 0 -115.5 -41.5t-44.5 -107.5z" />
    <glyph glyph-name="emptyset" unicode="&#x2205;" horiz-adv-x="812" 
d="M730 700l-75 -87q114 -107 114 -263q0 -150 -106.5 -256t-256.5 -106q-123 0 -222 75l-54 -63h-49l75 88q-113 107 -113 262q0 150 106.5 256t256.5 106q124 0 221 -75l54 63h49zM406 670q-133 0 -226.5 -94t-93.5 -226q0 -137 98 -230l415 485q-84 65 -193 65zM212 96
q87 -66 194 -66q133 0 226.5 94t93.5 226q0 135 -98 231z" />
    <glyph glyph-name="product" unicode="&#x220f;" horiz-adv-x="752" 
d="M215 -220h-84v840h-95v80h680v-80h-95v-840h-84v840h-322v-840z" />
    <glyph glyph-name="summation" unicode="&#x2211;" horiz-adv-x="567" 
d="M516 0h-477v47l264 303l-264 303v47h477v-80h-340l228 -261v-18l-228 -261h340v-80z" />
    <glyph glyph-name="minus" unicode="&#x2212;" horiz-adv-x="514" 
d="M448 307h-382v76h382v-76z" />
    <glyph glyph-name="radical" unicode="&#x221a;" horiz-adv-x="737" 
d="M371 0h-75l-170 400h-100v80h153l156 -382l318 682h88z" />
    <glyph glyph-name="infinity" unicode="&#x221e;" horiz-adv-x="855" 
d="M428 420q42 57 86.5 89t107.5 32q75 0 125.5 -49.5t50.5 -133.5t-50.5 -133.5t-125.5 -49.5q-63 0 -108.5 32.5t-86.5 88.5q-42 -57 -86.5 -89t-107.5 -32q-75 0 -125.5 49.5t-50.5 133.5t50.5 133.5t125.5 49.5q63 0 108.5 -32.5t86.5 -88.5zM384 357q-37 53 -67.5 80.5
t-71.5 27.5q-47 0 -77.5 -27t-30.5 -80t30.5 -80t77.5 -27q41 0 72.5 27t66.5 79zM718 358q0 53 -30.5 80t-77.5 27q-41 0 -72 -27t-67 -79q36 -53 67.5 -80.5t71.5 -27.5q47 0 77.5 27t30.5 80z" />
    <glyph glyph-name="integral" unicode="&#x222b;" horiz-adv-x="422" 
d="M171 639q0 81 46.5 117t111.5 36q45 0 84 -15v-75q-34 14 -75 14q-87 0 -87 -80v-715q0 -81 -46.5 -117t-111.5 -36q-45 0 -84 15v75q34 -14 66 -14q44 0 70 15.5t26 64.5v715z" />
    <glyph glyph-name="approxequal" unicode="&#x2248;" 
d="M523 487q2 -54 -27 -85.5t-80 -31.5q-36 0 -116.5 27.5t-114.5 27.5q-42 0 -39 -41h-76q-2 54 27.5 85t78.5 31q38 0 116.5 -27t115.5 -27q42 0 39 41h76zM523 335q2 -54 -27 -85.5t-80 -31.5q-36 0 -116.5 27.5t-114.5 27.5q-42 0 -39 -41h-76q-2 54 27.5 85t78.5 31
q38 0 116.5 -27t115.5 -27q42 0 39 41h76z" />
    <glyph glyph-name="notequal" unicode="&#x2260;" horiz-adv-x="555" 
d="M176 120h-70l60 101h-100v76h145l63 106h-208v76h253l60 101h70l-60 -101h100v-76h-145l-63 -106h208v-76h-253z" />
    <glyph glyph-name="lessequal" unicode="&#x2264;" horiz-adv-x="524" 
d="M443 259v-78l-376 153v80l376 153v-78l-295 -115zM443 0h-376v76h376v-76z" />
    <glyph glyph-name="greaterequal" unicode="&#x2265;" horiz-adv-x="524" 
d="M457 334l-376 -153v78l295 115l-295 115v78l376 -153v-80zM457 0h-376v76h376v-76z" />
    <glyph glyph-name="lozenge" unicode="&#x25ca;" horiz-adv-x="566" 
d="M328 0h-89l-203 350l203 350h89l202 -350zM126 350l157 -265l158 265l-158 265z" />
    <glyph glyph-name="i.loclTRK" horiz-adv-x="232" 
d="M76 480h80v-480h-80v480zM52 607q0 27 17.5 42.5t42.5 15.5q26 0 43 -15.5t17 -42.5q0 -28 -17 -43.5t-43 -15.5q-25 0 -42.5 15.5t-17.5 43.5z" />
    <glyph glyph-name="a.ss01" horiz-adv-x="621" 
d="M475 80q-81 -92 -194 -92q-103 0 -171.5 72t-68.5 180t68.5 180t171.5 72q113 0 194 -92v80h72v-480h-72v80zM121 240q0 -80 48.5 -129t120.5 -49q61 0 108 34t69 84v120q-22 50 -69 84t-108 34q-72 0 -120.5 -49t-48.5 -129z" />
    <glyph glyph-name="aacute.ss01" horiz-adv-x="621" 
d="M475 80q-81 -92 -194 -92q-103 0 -171.5 72t-68.5 180t68.5 180t171.5 72q113 0 194 -92v80h72v-480h-72v80zM121 240q0 -80 48.5 -129t120.5 -49q61 0 108 34t69 84v120q-22 50 -69 84t-108 34q-72 0 -120.5 -49t-48.5 -129zM335 550h-87l91 147h100z" />
    <glyph glyph-name="abreve.ss01" horiz-adv-x="621" 
d="M475 80q-81 -92 -194 -92q-103 0 -171.5 72t-68.5 180t68.5 180t171.5 72q113 0 194 -92v80h72v-480h-72v80zM121 240q0 -80 48.5 -129t120.5 -49q61 0 108 34t69 84v120q-22 50 -69 84t-108 34q-72 0 -120.5 -49t-48.5 -129zM454 590q-59 -42 -140 -42t-140 42v78
q67 -44 140 -44t140 44v-78z" />
    <glyph glyph-name="acircumflex.ss01" horiz-adv-x="621" 
d="M475 80q-81 -92 -194 -92q-103 0 -171.5 72t-68.5 180t68.5 180t171.5 72q113 0 194 -92v80h72v-480h-72v80zM121 240q0 -80 48.5 -129t120.5 -49q61 0 108 34t69 84v120q-22 50 -69 84t-108 34q-72 0 -120.5 -49t-48.5 -129zM281 697h72l132 -146h-91l-77 86l-77 -86
h-91z" />
    <glyph glyph-name="adieresis.ss01" horiz-adv-x="621" 
d="M475 80q-81 -92 -194 -92q-103 0 -171.5 72t-68.5 180t68.5 180t171.5 72q113 0 194 -92v80h72v-480h-72v80zM121 240q0 -80 48.5 -129t120.5 -49q61 0 108 34t69 84v120q-22 50 -69 84t-108 34q-72 0 -120.5 -49t-48.5 -129zM469 617q0 -23 -16.5 -39t-38.5 -16
t-38.5 16t-16.5 39q0 22 16.5 38.5t38.5 16.5t38.5 -16.5t16.5 -38.5zM267 617q0 -23 -16.5 -39t-38.5 -16t-38.5 16t-16.5 39q0 22 16.5 38.5t38.5 16.5t38.5 -16.5t16.5 -38.5z" />
    <glyph glyph-name="agrave.ss01" horiz-adv-x="621" 
d="M475 80q-81 -92 -194 -92q-103 0 -171.5 72t-68.5 180t68.5 180t171.5 72q113 0 194 -92v80h72v-480h-72v80zM121 240q0 -80 48.5 -129t120.5 -49q61 0 108 34t69 84v120q-22 50 -69 84t-108 34q-72 0 -120.5 -49t-48.5 -129zM380 550h-87l-104 147h100z" />
    <glyph glyph-name="amacron.ss01" horiz-adv-x="621" 
d="M475 80q-81 -92 -194 -92q-103 0 -171.5 72t-68.5 180t68.5 180t171.5 72q113 0 194 -92v80h72v-480h-72v80zM121 240q0 -80 48.5 -129t120.5 -49q61 0 108 34t69 84v120q-22 50 -69 84t-108 34q-72 0 -120.5 -49t-48.5 -129zM164 637h300v-73h-300v73z" />
    <glyph glyph-name="aogonek.ss01" horiz-adv-x="621" 
d="M121 240q0 -80 48.5 -129t120.5 -49q61 0 108 34t69 84v120q-22 50 -69 84t-108 34q-72 0 -120.5 -49t-48.5 -129zM547 480v-480q-41 -28 -65.5 -63.5t-23.5 -63.5q-1 -18 10.5 -29.5t32.5 -11.5q23 0 45 11v-62q-27 -14 -65 -14q-48 -1 -73.5 24.5t-25.5 64.5
q0 78 93 161v63q-81 -92 -194 -92q-103 0 -171.5 72t-68.5 180t68.5 180t171.5 72q113 0 194 -92v80h72z" />
    <glyph glyph-name="aring.ss01" horiz-adv-x="621" 
d="M475 80q-81 -92 -194 -92q-103 0 -171.5 72t-68.5 180t68.5 180t171.5 72q113 0 194 -92v80h72v-480h-72v80zM121 240q0 -80 48.5 -129t120.5 -49q61 0 108 34t69 84v120q-22 50 -69 84t-108 34q-72 0 -120.5 -49t-48.5 -129zM428 635q0 -50 -34 -80.5t-81 -30.5
q-48 0 -82 30.5t-34 80.5q0 49 34 79t82 30q47 0 81 -30t34 -79zM258 634q0 -25 16 -40t39 -15t39 15t16 40t-16 40t-39 15t-39 -15t-16 -40z" />
    <glyph glyph-name="atilde.ss01" horiz-adv-x="621" 
d="M475 80q-81 -92 -194 -92q-103 0 -171.5 72t-68.5 180t68.5 180t171.5 72q113 0 194 -92v80h72v-480h-72v80zM121 240q0 -80 48.5 -129t120.5 -49q61 0 108 34t69 84v120q-22 50 -69 84t-108 34q-72 0 -120.5 -49t-48.5 -129zM479 649q7 -51 -18 -78.5t-64 -27.5
q-34 0 -85.5 21t-62.5 21q-16 0 -23.5 -10t-5.5 -27h-70q-8 51 16.5 79t63.5 28q34 0 85.5 -21t63.5 -21q33 0 30 36h70z" />
    <glyph glyph-name="ae.ss01" horiz-adv-x="984" 
d="M475 80q-81 -92 -194 -92q-103 0 -171.5 72t-68.5 180t68.5 180t171.5 72q113 0 194 -92v80h72v-84q61 96 179 96q52 0 94 -16.5t67.5 -45t41.5 -66t16.5 -79.5t-6.5 -85h-382q7 -68 63 -103t135 -35q84 0 154 39v-74q-69 -39 -161 -39q-137 0 -201 99v-87h-72v80z
M121 240q0 -80 48.5 -129t120.5 -49q61 0 108 34t69 84v120q-22 50 -69 84t-108 34q-72 0 -120.5 -49t-48.5 -129zM721 418q-67 0 -113.5 -38.5t-50.5 -109.5h311q4 32 -7 64t-47 58t-93 26z" />
    <glyph glyph-name="y.ss01" 
d="M513 0q-1 -62 -23.5 -108.5t-59 -72.5t-78.5 -38.5t-89 -12.5q-106 0 -174 40v74q58 -40 164 -40q36 0 66.5 7.5t57 24.5t41.5 49t15 77v61q-28 -31 -71.5 -52t-93.5 -21q-93 0 -146.5 53.5t-53.5 142.5v296h80v-286q0 -132 129 -132q92 0 156 96v322h80v-480z" />
    <glyph glyph-name="yacute.ss01" 
d="M513 0q-1 -62 -23.5 -108.5t-59 -72.5t-78.5 -38.5t-89 -12.5q-106 0 -174 40v74q58 -40 164 -40q36 0 66.5 7.5t57 24.5t41.5 49t15 77v61q-28 -31 -71.5 -52t-93.5 -21q-93 0 -146.5 53.5t-53.5 142.5v296h80v-286q0 -132 129 -132q92 0 156 96v322h80v-480zM313 550
h-87l91 147h100z" />
    <glyph glyph-name="ycircumflex.ss01" 
d="M513 0q-1 -62 -23.5 -108.5t-59 -72.5t-78.5 -38.5t-89 -12.5q-106 0 -174 40v74q58 -40 164 -40q36 0 66.5 7.5t57 24.5t41.5 49t15 77v61q-28 -31 -71.5 -52t-93.5 -21q-93 0 -146.5 53.5t-53.5 142.5v296h80v-286q0 -132 129 -132q92 0 156 96v322h80v-480zM259 697
h72l132 -146h-91l-77 86l-77 -86h-91z" />
    <glyph glyph-name="ydieresis.ss01" 
d="M513 0q-1 -62 -23.5 -108.5t-59 -72.5t-78.5 -38.5t-89 -12.5q-106 0 -174 40v74q58 -40 164 -40q36 0 66.5 7.5t57 24.5t41.5 49t15 77v61q-28 -31 -71.5 -52t-93.5 -21q-93 0 -146.5 53.5t-53.5 142.5v296h80v-286q0 -132 129 -132q92 0 156 96v322h80v-480zM447 617
q0 -23 -16.5 -39t-38.5 -16t-38.5 16t-16.5 39q0 22 16.5 38.5t38.5 16.5t38.5 -16.5t16.5 -38.5zM245 617q0 -23 -16.5 -39t-38.5 -16t-38.5 16t-16.5 39q0 22 16.5 38.5t38.5 16.5t38.5 -16.5t16.5 -38.5z" />
    <glyph glyph-name="ygrave.ss01" 
d="M513 0q-1 -62 -23.5 -108.5t-59 -72.5t-78.5 -38.5t-89 -12.5q-106 0 -174 40v74q58 -40 164 -40q36 0 66.5 7.5t57 24.5t41.5 49t15 77v61q-28 -31 -71.5 -52t-93.5 -21q-93 0 -146.5 53.5t-53.5 142.5v296h80v-286q0 -132 129 -132q92 0 156 96v322h80v-480zM358 550
h-87l-104 147h100z" />
    <glyph glyph-name="f_b" horiz-adv-x="965" 
d="M498 408q72 84 186 84q103 0 171.5 -72t68.5 -180t-68.5 -180t-171.5 -72q-113 0 -194 92v-80h-72v616q-51 22 -114 22q-51 0 -82 -23.5t-31 -71.5v-63h150v-74h-150v-406h-80v406h-90v74h90v63q0 80 52.5 124.5t136.5 44.5q65 0 131 -29l67 17v-292zM498 180
q22 -50 69 -84t108 -34q72 0 120.5 49t48.5 129t-48.5 129t-120.5 49q-61 0 -108 -34t-69 -84v-120z" />
    <glyph glyph-name="f_f_b" horiz-adv-x="1275" 
d="M808 408q72 84 186 84q103 0 171.5 -72t68.5 -180t-68.5 -180t-171.5 -72q-113 0 -194 92v-80h-72v626q-51 22 -114 22q-113 0 -113 -105v-63h150v-74h-150v-406h-80v406h-230v-406h-80v406h-90v74h90v53q0 80 52.5 124.5t136.5 44.5q78 0 157 -43q51 63 153 63
q65 0 131 -29l67 17v-302zM421 480v63q0 29 6 53q-54 32 -123 32q-51 0 -82 -23.5t-31 -71.5v-53h230zM808 180q22 -50 69 -84t108 -34q72 0 120.5 49t48.5 129t-48.5 129t-120.5 49q-61 0 -108 -34t-69 -84v-120z" />
    <glyph glyph-name="f_f_h" horiz-adv-x="1241" 
d="M808 419q28 31 71.5 52t93.5 21q87 0 143.5 -54.5t56.5 -141.5v-296h-80v286q0 65 -35.5 98.5t-93.5 33.5q-92 0 -156 -96v-322h-80v626q-51 22 -114 22q-113 0 -113 -105v-63h150v-74h-150v-406h-80v406h-230v-406h-80v406h-90v74h90v53q0 80 52.5 124.5t136.5 44.5
q78 0 157 -43q51 63 153 63q65 0 131 -29l67 17v-291zM421 480v63q0 29 6 53q-54 32 -123 32q-51 0 -82 -23.5t-31 -71.5v-53h230z" />
    <glyph glyph-name="f_f_j" horiz-adv-x="874" 
d="M798 -89q0 -77 -40 -110t-98 -33q-42 0 -74 13v74q26 -13 52 -13q80 0 80 81v483h-217v-406h-80v406h-230v-406h-80v406h-90v74h90v53q0 80 52.5 124.5t136.5 44.5q78 0 157 -43q51 63 153 63q72 0 145 -35v-80q-71 41 -141 41q-113 0 -113 -105v-63h297v-569zM191 533
v-53h230v63q0 29 6 53q-54 32 -123 32q-51 0 -82 -23.5t-31 -71.5z" />
    <glyph glyph-name="f_f_k" horiz-adv-x="1175" 
d="M1150 480l-182 -239l204 -241h-94l-176 206h-94v-206h-80v626q-51 22 -114 22q-113 0 -113 -105v-63h150v-74h-150v-406h-80v406h-230v-406h-80v406h-90v74h90v53q0 80 52.5 124.5t136.5 44.5q78 0 157 -43q51 63 153 63q65 0 131 -29l67 17v-430h97l152 200h93zM421 480
v63q0 29 6 53q-54 32 -123 32q-51 0 -82 -23.5t-31 -71.5v-53h230z" />
    <glyph glyph-name="f_h" horiz-adv-x="931" 
d="M498 419q28 31 71.5 52t93.5 21q87 0 143.5 -54.5t56.5 -141.5v-296h-80v286q0 65 -35.5 98.5t-93.5 33.5q-92 0 -156 -96v-322h-80v616q-51 22 -114 22q-51 0 -82 -23.5t-31 -71.5v-63h150v-74h-150v-406h-80v406h-90v74h90v63q0 80 52.5 124.5t136.5 44.5q65 0 131 -29
l67 17v-281z" />
    <glyph glyph-name="f_i" horiz-adv-x="564" 
d="M191 480h297v-480h-80v406h-217v-406h-80v406h-90v74h90v63q0 80 52.5 124.5t136.5 44.5q72 0 145 -35v-80q-71 41 -141 41q-51 0 -82 -23.5t-31 -71.5v-63z" />
    <glyph glyph-name="f_j" horiz-adv-x="564" 
d="M191 480h297v-569q0 -77 -40 -110t-98 -33q-42 0 -74 13v74q26 -13 52 -13q80 0 80 81v483h-217v-406h-80v406h-90v74h90v63q0 80 52.5 124.5t136.5 44.5q72 0 145 -35v-80q-71 41 -141 41q-51 0 -82 -23.5t-31 -71.5v-63z" />
    <glyph glyph-name="f_k" horiz-adv-x="865" 
d="M840 480l-182 -239l204 -241h-94l-176 206h-94v-206h-80v616q-51 22 -114 22q-51 0 -82 -23.5t-31 -71.5v-63h150v-74h-150v-406h-80v406h-90v74h90v63q0 80 52.5 124.5t136.5 44.5q65 0 131 -29l67 17v-420h97l152 200h93z" />
    <glyph glyph-name="f_l" horiz-adv-x="574" 
d="M300 712q65 0 131 -29l67 17v-700h-80v616q-51 22 -114 22q-51 0 -82 -23.5t-31 -71.5v-63h150v-74h-150v-406h-80v406h-90v74h90v63q0 80 52.5 124.5t136.5 44.5z" />
    <glyph glyph-name="uni0414.loclBGR" horiz-adv-x="787" 
d="M106 -165h-80v245h76l245 620h93l246 -620h75v-245h-80v165h-575v-165zM394 605l-203 -525h405z" />
    <glyph glyph-name="uni041B.loclBGR" horiz-adv-x="684" 
d="M298 700h87l290 -700h-90l-244 606l-243 -606h-90z" />
    <glyph glyph-name="uni0424.loclBGR" horiz-adv-x="906" 
d="M495 -100h-84v95q-168 7 -267 106.5t-99 248.5t99 248.5t267 106.5v95h84v-95q168 -7 267 -106.5t99 -248.5t-99 -248.5t-267 -106.5v-95zM130 350q0 -113 72.5 -190t208.5 -85v550q-136 -8 -208.5 -85t-72.5 -190zM495 625v-550q136 8 208.5 85t72.5 190t-72.5 190
t-208.5 85z" />
    <glyph glyph-name="uni0432.loclBGR" horiz-adv-x="580" 
d="M492 545q0 -99 -99 -149q67 -15 107 -66.5t40 -124.5q0 -91 -65 -154t-169 -63q-108 0 -175.5 68.5t-67.5 197.5v143q0 148 62.5 231.5t179.5 83.5q84 0 135.5 -48.5t51.5 -118.5zM305 638q-76 0 -119 -58.5t-43 -182.5v-7l145 26q66 12 95 46.5t29 77.5q0 37 -28.5 67.5
t-78.5 30.5zM144 254q1 -98 43.5 -145t118.5 -47q72 0 113 39.5t41 103.5q0 72 -45 112t-124 26l-147 -26v-63z" />
    <glyph glyph-name="uni0433.loclBGR" horiz-adv-x="478" 
d="M430 35q-73 -47 -186 -47q-94 0 -151 33t-57 108q0 52 32.5 83t78.5 42.5t92.5 20.5t79 27.5t32.5 51.5q0 64 -112 64q-92 0 -175 -43v76q85 41 180 41q79 0 133.5 -34.5t54.5 -105.5q0 -45 -23.5 -75t-58.5 -42.5t-76 -23t-76 -17.5t-58.5 -23.5t-23.5 -43.5
q0 -38 33.5 -51.5t98.5 -13.5q106 0 182 51v-78z" />
    <glyph glyph-name="uni0434.loclBGR" horiz-adv-x="621" 
d="M41 240q0 108 68.5 180t171.5 72q113 0 194 -92v80h72v-480q0 -116 -76 -174t-186 -58q-107 0 -195 45v78q87 -49 185 -49q85 0 139 37.5t53 120.5v74q-70 -86 -186 -86q-103 0 -171.5 72t-68.5 180zM467 300q-22 50 -69 84t-108 34q-72 0 -120.5 -49t-48.5 -129
t48.5 -129t120.5 -49q61 0 108 31.5t69 76.5v130z" />
    <glyph glyph-name="uni0436.loclBGR" horiz-adv-x="754" 
d="M97 0h-90l191 241l-169 239h89l146 -205h73v425h80v-425h73l146 205h89l-169 -239l191 -241h-90l-163 201h-77v-201h-80v201h-77z" />
    <glyph glyph-name="uni0438.loclBGR" 
d="M433 480h80v-480h-72v71q-26 -35 -72.5 -59t-100.5 -24q-93 0 -146.5 53.5t-53.5 142.5v296h80v-286q0 -132 129 -132q92 0 156 96v322z" />
    <glyph glyph-name="uni0439.loclBGR" 
d="M433 596q-59 -42 -140 -42t-140 42v72q67 -44 140 -44t140 44v-72zM433 480h80v-480h-72v71q-26 -35 -72.5 -59t-100.5 -24q-93 0 -146.5 53.5t-53.5 142.5v296h80v-286q0 -132 129 -132q92 0 156 96v322z" />
    <glyph glyph-name="uni043A.loclBGR" horiz-adv-x="523" 
d="M518 0h-94l-176 206h-94v-206h-80v700h80v-420h97l152 200h93l-182 -239z" />
    <glyph glyph-name="uni043B.loclBGR" horiz-adv-x="536" 
d="M522 0h-89l-165 390l-165 -390h-89l212 480h84z" />
    <glyph glyph-name="uni043F.loclBGR" 
d="M146 409q26 35 72.5 59t100.5 24q87 0 143.5 -54.5t56.5 -141.5v-296h-80v286q0 65 -35.5 98.5t-93.5 33.5q-92 0 -156 -96v-322h-80v480h72v-71z" />
    <glyph glyph-name="uni0442.loclBGR" horiz-adv-x="890" 
d="M154 0h-80v480h72v-64q71 76 164 76q107 0 154 -81q79 81 175 81q87 0 135 -54.5t48 -141.5v-296h-80v298q0 55 -30 87.5t-82 32.5q-77 0 -140 -79q3 -21 3 -43v-296h-80v298q0 55 -30 87.5t-82 32.5q-80 0 -147 -87v-331z" />
    <glyph glyph-name="uni0446.loclBGR" horiz-adv-x="615" 
d="M513 100q0 -37 37 -37h33v-193h-74v125q-61 9 -73 70q-27 -33 -71.5 -55t-96.5 -22q-93 0 -146.5 53.5t-53.5 142.5v296h80v-286q0 -132 129 -132q92 0 156 96v322h80v-380z" />
    <glyph glyph-name="uni0448.loclBGR" horiz-adv-x="890" 
d="M736 480h80v-480h-72v64q-71 -76 -164 -76q-107 0 -154 81q-79 -81 -175 -81q-87 0 -135 54.5t-48 141.5v296h80v-298q0 -55 30 -87.5t82 -32.5q77 0 140 79q-3 21 -3 43v296h80v-298q0 -55 30 -87.5t82 -32.5q80 0 147 87v331z" />
    <glyph glyph-name="uni0449.loclBGR" horiz-adv-x="918" 
d="M816 100q0 -37 37 -37h33v-193h-74v125q-58 9 -72 65q-70 -72 -160 -72q-107 0 -154 81q-79 -81 -175 -81q-87 0 -135 54.5t-48 141.5v296h80v-298q0 -55 30 -87.5t82 -32.5q77 0 140 79q-3 21 -3 43v296h80v-298q0 -55 30 -87.5t82 -32.5q80 0 147 87v331h80v-380z" />
    <glyph glyph-name="uni044E.loclBGR" horiz-adv-x="823" 
d="M782 240q0 -117 -75.5 -184.5t-180.5 -67.5q-95 0 -168.5 57.5t-85.5 157.5h-118v-203h-80v700h80v-423h118q12 100 85.5 157.5t168.5 57.5q105 0 180.5 -67.5t75.5 -184.5zM350 240q0 -81 50 -128.5t126 -47.5t126 47.5t50 128.5t-50 128.5t-126 47.5t-126 -47.5
t-50 -128.5z" />
    <glyph glyph-name="uni0430.ss01" horiz-adv-x="621" 
d="M475 80q-81 -92 -194 -92q-103 0 -171.5 72t-68.5 180t68.5 180t171.5 72q113 0 194 -92v80h72v-480h-72v80zM121 240q0 -80 48.5 -129t120.5 -49q61 0 108 34t69 84v120q-22 50 -69 84t-108 34q-72 0 -120.5 -49t-48.5 -129z" />
    <glyph glyph-name="uni0437.ss01" horiz-adv-x="464" 
d="M387 326q0 -100 -99 -149q67 -15 107 -66t40 -123q0 -104 -72 -162t-178 -58q-95 0 -166 47v76q68 -50 155 -50q78 0 129.5 37.5t51.5 109.5q0 70 -47 111.5t-122 24.5l-68 -15v74l77 17q112 29 112 121q0 49 -34 73t-84 24q-88 0 -161 -47v75q77 47 167 47
q80 0 136 -43.5t56 -123.5z" />
    <glyph glyph-name="uni0443.ss01" 
d="M513 0q-1 -62 -23.5 -108.5t-59 -72.5t-78.5 -38.5t-89 -12.5q-106 0 -174 40v74q58 -40 164 -40q36 0 66.5 7.5t57 24.5t41.5 49t15 77v61q-28 -31 -71.5 -52t-93.5 -21q-93 0 -146.5 53.5t-53.5 142.5v296h80v-286q0 -132 129 -132q92 0 156 96v322h80v-480z" />
    <glyph glyph-name="zero.osf" horiz-adv-x="650" 
d="M605 260q0 -68 -30 -128.5t-95.5 -102t-154.5 -41.5t-154.5 41.5t-95.5 102t-30 128.5t30 128.5t95.5 102t154.5 41.5t154.5 -41.5t95.5 -102t30 -128.5zM130 260q0 -80 51.5 -136t143.5 -56t143.5 56t51.5 136t-51.5 136t-143.5 56t-143.5 -56t-51.5 -136z" />
    <glyph glyph-name="one.osf" horiz-adv-x="434" 
d="M220 520h62v-440h127v-80h-354v80h143v351l-143 -54v80z" />
    <glyph glyph-name="two.osf" horiz-adv-x="532" 
d="M482 0h-439v50q0 26 6 47.5t20 39t26.5 29.5t37 25t38 19.5t43.5 19t41 17.5q6 2 24 10t25 11t22 11t22 13t17.5 14t15 17t8.5 19t4 23q0 40 -37 64.5t-93 24.5q-92 0 -196 -61v84q96 55 203 55q88 0 147.5 -46t59.5 -122q0 -37 -16 -67t-46 -51.5t-56 -35.5t-63 -30
q-4 -2 -6.5 -3t-5.5 -2q-12 -5 -32 -13.5t-31.5 -14t-27 -12.5t-24.5 -13t-17.5 -13t-12.5 -14.5t-4 -15.5l347 1v-80z" />
    <glyph glyph-name="three.osf" horiz-adv-x="543" 
d="M472 347q0 -52 -27.5 -93.5t-71.5 -56.5q52 -16 89.5 -58.5t37.5 -113.5q0 -93 -72 -145t-167 -52q-124 0 -217 45v83q87 -49 210 -49q68 0 116.5 30t48.5 92q0 64 -42 93t-104 29h-94v80l85 -1q58 -1 92.5 30.5t34.5 79.5q0 52 -40 83t-106 31q-98 0 -189 -52v82
q87 48 200 48q93 0 154.5 -51.5t61.5 -133.5z" />
    <glyph glyph-name="four.osf" horiz-adv-x="594" 
d="M360 520h91v-451h118v-78h-118v-151h-83v151h-349v75zM368 69v333l-250 -333h250z" />
    <glyph glyph-name="five.osf" horiz-adv-x="535" 
d="M88 520h378v-80h-299l-12 -192q54 15 106 15q43 0 83 -11.5t76 -36t57.5 -68.5t21.5 -102q0 -99 -74.5 -158t-179.5 -59q-104 0 -198 46v80q90 -48 188 -48q76 0 127.5 36.5t51.5 102.5q0 76 -53 109t-129 33q-78 0 -166 -32z" />
    <glyph glyph-name="six.osf" horiz-adv-x="592" 
d="M136 361q87 63 193 63q86 0 154.5 -57t68.5 -156q0 -104 -68 -163.5t-166 -59.5q-130 0 -198.5 90t-68.5 251q0 177 86.5 270t212.5 93q79 0 155 -39v-80q-74 39 -153 39q-81 0 -144.5 -61.5t-71.5 -189.5zM137 275q9 -104 56 -156.5t119 -52.5q67 0 111 34.5t44 106.5
q0 74 -45.5 106.5t-113.5 32.5q-94 0 -171 -71z" />
    <glyph glyph-name="seven.osf" horiz-adv-x="494" 
d="M20 520h460v-76l-274 -604h-90l272 600h-368v80z" />
    <glyph glyph-name="eight.osf" horiz-adv-x="617" 
d="M73 516q0 71 61 123.5t172 52.5q102 0 169 -55.5t69 -131.5q3 -105 -93 -172q117 -58 117 -160q0 -78 -64.5 -131.5t-191.5 -53.5q-121 0 -192 57.5t-71 141.5q0 50 29.5 99.5t86.5 83.5q-92 56 -92 146zM312 308q-41 14 -76 28q-50 -24 -76.5 -62t-26.5 -78
q0 -62 49 -96t132 -34q73 0 121.5 28.5t48.5 74.5q0 52 -33 76t-139 63zM460 490q0 52 -43.5 88t-112.5 36q-64 0 -105.5 -28t-41.5 -69q0 -47 35 -76t119 -58l69 -22q80 52 80 129z" />
    <glyph glyph-name="nine.osf" horiz-adv-x="579" 
d="M33 309q0 104 68 163.5t166 59.5q130 0 198.5 -90t68.5 -251q0 -177 -86.5 -270t-212.5 -93q-79 0 -155 39v80q74 -39 153 -39q81 0 144.5 61.5t71.5 189.5q-87 -63 -193 -63q-86 0 -154.5 57t-68.5 156zM273 454q-67 0 -111 -34.5t-44 -106.5q0 -74 45.5 -106.5
t113.5 -32.5q94 0 171 71q-9 104 -56 156.5t-119 52.5z" />
    <glyph glyph-name="zero.sinf" horiz-adv-x="436" 
d="M401 104q0 -95 -46 -153.5t-137 -58.5t-137 58.5t-46 153.5t46 153.5t137 58.5t137 -58.5t46 -153.5zM105 104q0 -146 113 -146t113 146t-113 146t-113 -146z" />
    <glyph glyph-name="one.sinf" horiz-adv-x="280" 
d="M138 308h52v-342h70v-66h-225v66h86v269l-82 -31v66z" />
    <glyph glyph-name="two.sinf" horiz-adv-x="362" 
d="M45 275q58 41 136 41q66 0 105 -30t39 -85q0 -47 -30.5 -80.5t-82.5 -64.5q-5 -3 -17 -10t-17.5 -10t-15.5 -9.5t-15 -10t-12.5 -9t-11.5 -10t-8 -10t-6 -11t-2 -11.5l220 1v-66h-296v32q0 35 10.5 62t36 49.5t39.5 31.5t49 30q58 35 73 52q16 21 16 45q0 49 -80 49
q-66 0 -130 -46v70z" />
    <glyph glyph-name="three.sinf" horiz-adv-x="366" 
d="M317 203q0 -30 -14 -53.5t-34 -34.5q64 -31 64 -102q0 -58 -44.5 -89.5t-111.5 -31.5q-79 0 -142 28v68q57 -31 136 -31q95 0 95 60t-85 60h-65v66h57q77 0 77 54t-86 54q-65 0 -122 -33v68q58 30 131 30q65 0 104.5 -30.5t39.5 -82.5z" />
    <glyph glyph-name="four.sinf" horiz-adv-x="402" 
d="M234 308h75v-259h70v-65h-70v-84h-68v84h-220v63zM241 49v166l-135 -166h135z" />
    <glyph glyph-name="five.sinf" horiz-adv-x="362" 
d="M60 308h252v-66h-186l-5 -83q24 6 53 6q66 0 112 -32.5t46 -104.5q0 -64 -47.5 -100t-118.5 -36q-75 0 -131 28v66q52 -29 122 -29q104 0 104 71q0 74 -112 74q-52 0 -102 -19z" />
    <glyph glyph-name="six.sinf" horiz-adv-x="391" 
d="M107 134q50 25 115 25q55 0 99 -35t44 -95q0 -65 -43.5 -101t-108.5 -36q-178 0 -178 209q0 104 53.5 159.5t135.5 55.5q55 0 106 -24v-67q-46 25 -104 25q-44 0 -77.5 -28t-41.5 -88zM106 66q11 -109 102 -109q86 0 86 69t-90 69q-57 0 -98 -29z" />
    <glyph glyph-name="seven.sinf" horiz-adv-x="329" 
d="M155 -100h-75l156 342h-217v66h292v-64z" />
    <glyph glyph-name="eight.sinf" horiz-adv-x="403" 
d="M47 206q0 44 39 77t113 33q67 0 111 -34t46 -83q2 -58 -47 -97q61 -35 61 -95q0 -48 -41.5 -81.5t-124.5 -33.5q-81 0 -126 35.5t-45 86.5q0 62 62 105q-48 36 -48 87zM208 73q-44 14 -54 18q-51 -28 -51 -69q0 -32 27 -49t76 -17q39 0 66.5 12.5t27.5 35.5
q0 27 -20 40.5t-61 25.5q-7 2 -11 3zM286 186q0 29 -24 47.5t-64 18.5q-36 0 -58.5 -12.5t-22.5 -32.5q0 -7 1.5 -13.5t5 -12t6.5 -9.5t10 -8l10.5 -6t13 -6t13 -5t14.5 -4.5t14 -4.5q4 -1 20 -5.5t26 -7.5q35 28 35 61z" />
    <glyph glyph-name="nine.sinf" horiz-adv-x="391" 
d="M26 179q0 65 43.5 101t108.5 36q178 0 178 -209q0 -104 -53.5 -159.5t-136.5 -55.5q-55 0 -106 24v67q47 -25 105 -25q43 0 77 28t42 88q-50 -25 -115 -25q-55 0 -99 35t-44 95zM183 251q-87 0 -87 -69t91 -69q57 0 98 29q-11 109 -102 109z" />
    <glyph glyph-name="zero.sups" horiz-adv-x="436" 
d="M401 580q0 -95 -46 -153.5t-137 -58.5t-137 58.5t-46 153.5t46 153.5t137 58.5t137 -58.5t46 -153.5zM105 580q0 -146 113 -146t113 146t-113 146t-113 -146z" />
    <glyph glyph-name="one.sups" horiz-adv-x="280" 
d="M138 780h52v-342h70v-66h-225v66h86v269l-82 -31v66z" />
    <glyph glyph-name="two.sups" horiz-adv-x="362" 
d="M45 751q58 41 136 41q66 0 105 -30t39 -85q0 -47 -30.5 -80.5t-82.5 -64.5q-5 -3 -17 -10t-17.5 -10t-15.5 -9.5t-15 -10t-12.5 -9t-11.5 -10t-8 -10t-6 -11t-2 -11.5l220 1v-66h-296v32q0 35 10.5 62t36 49.5t39.5 31.5t49 30q58 35 73 52q16 20 16 45q0 49 -80 49
q-66 0 -130 -46v70z" />
    <glyph glyph-name="three.sups" horiz-adv-x="366" 
d="M317 679q0 -30 -14 -53.5t-34 -34.5q64 -31 64 -102q0 -58 -44.5 -89.5t-111.5 -31.5q-79 0 -142 28v68q57 -31 136 -31q95 0 95 60t-85 60h-65v66h57q77 0 77 54t-86 54q-65 0 -122 -33v68q58 30 131 30q65 0 104.5 -30.5t39.5 -82.5z" />
    <glyph glyph-name="four.sups" horiz-adv-x="402" 
d="M234 780h75v-259h70v-65h-70v-84h-68v84h-220v63zM241 521v166l-135 -166h135z" />
    <glyph glyph-name="five.sups" horiz-adv-x="362" 
d="M60 780h252v-66h-186l-5 -83q24 6 53 6q66 0 112 -32.5t46 -104.5q0 -64 -47.5 -100t-118.5 -36q-75 0 -131 28v66q52 -29 122 -29q104 0 104 71q0 74 -112 74q-52 0 -102 -19z" />
    <glyph glyph-name="six.sups" horiz-adv-x="391" 
d="M107 610q50 25 115 25q55 0 99 -35t44 -95q0 -65 -43.5 -101t-108.5 -36q-178 0 -178 209q0 104 53.5 159.5t135.5 55.5q55 0 106 -24v-67q-46 25 -104 25q-44 0 -77.5 -28t-41.5 -88zM106 542q11 -109 102 -109q86 0 86 69t-90 69q-57 0 -98 -29z" />
    <glyph glyph-name="seven.sups" horiz-adv-x="329" 
d="M155 372h-75l156 342h-217v66h292v-64z" />
    <glyph glyph-name="eight.sups" horiz-adv-x="403" 
d="M47 682q0 44 39 77t113 33q67 0 111 -34t46 -83q2 -58 -47 -97q61 -35 61 -95q0 -48 -41.5 -81.5t-124.5 -33.5q-81 0 -126 35.5t-45 86.5q0 62 62 105q-48 36 -48 87zM208 549q-44 14 -54 18q-51 -28 -51 -69q0 -32 27 -49t76 -17q39 0 66.5 12.5t27.5 35.5
q0 27 -20 40.5t-61 25.5q-7 2 -11 3zM286 662q0 29 -24 47.5t-64 18.5q-36 0 -58.5 -12.5t-22.5 -32.5q0 -7 1.5 -13.5t5 -12t6.5 -9.5t10 -8l10.5 -6t13 -6t13 -5t14.5 -4.5t14 -4.5q4 -1 20 -5.5t26 -7.5q35 28 35 61z" />
    <glyph glyph-name="nine.sups" horiz-adv-x="391" 
d="M26 655q0 65 43.5 101t108.5 36q178 0 178 -209q0 -104 -53.5 -159.5t-136.5 -55.5q-55 0 -106 24v67q47 -25 105 -25q43 0 77 28t42 88q-50 -25 -115 -25q-55 0 -99 35t-44 95zM183 727q-87 0 -87 -69t91 -69q57 0 98 29q-11 109 -102 109z" />
    <glyph glyph-name="zero.tf" horiz-adv-x="630" 
d="M590 340q0 -156 -71.5 -254t-203.5 -98t-203.5 98t-71.5 254t71.5 254t203.5 98t203.5 -98t71.5 -254zM125 340q0 -129 49.5 -200.5t140.5 -71.5t140.5 71.5t49.5 200.5t-49.5 200.5t-140.5 71.5t-140.5 -71.5t-49.5 -200.5z" />
    <glyph glyph-name="one.tf" horiz-adv-x="630" 
d="M315 680h62v-600h207v-80h-515v80h224v511l-191 -71v80z" />
    <glyph glyph-name="two.tf" horiz-adv-x="630" 
d="M80 626q101 66 228 66q113 0 177.5 -48t64.5 -134q0 -80 -50.5 -135t-141.5 -104q-109 -58 -143 -88q-56 -48 -57 -104l407 1v-80h-499v40q0 48 15.5 89t35.5 68t57.5 55.5t61.5 42t68 36.5q84 44 123 82t39 98q0 103 -165 103q-112 0 -221 -72v84z" />
    <glyph glyph-name="three.tf" horiz-adv-x="630" 
d="M542 507q0 -52 -27.5 -93.5t-71.5 -56.5q52 -16 89.5 -58.5t37.5 -113.5q0 -95 -72 -146t-187 -51q-138 0 -247 49v83q104 -55 240 -53q185 2 185 122q0 122 -176 122h-114v80l105 -1q78 -1 117.5 29.5t39.5 80.5q0 54 -43.5 84t-127.5 30q-108 0 -214 -56v82
q102 52 225 52q111 0 176 -51t65 -134z" />
    <glyph glyph-name="four.tf" horiz-adv-x="630" 
d="M393 680h91v-451h118v-78h-118v-151h-83v151h-379v75zM401 229v338l-276 -338h276z" />
    <glyph glyph-name="five.tf" horiz-adv-x="630" 
d="M110 680h428v-80h-349l-12 -192q54 15 126 15q74 0 131.5 -19.5t97 -70t39.5 -128.5q0 -101 -76.5 -159t-197.5 -58q-134 0 -228 46v80q90 -48 218 -48q93 0 146 35.5t53 103.5q0 142 -212 142q-98 0 -186 -32z" />
    <glyph glyph-name="six.tf" horiz-adv-x="630" 
d="M141 359q97 65 213 65q93 0 163 -56.5t70 -156.5q0 -105 -69.5 -164t-174.5 -59q-144 0 -215.5 89.5t-71.5 251.5q0 180 85.5 271.5t223.5 91.5q89 0 165 -39v-80q-74 39 -163 39q-94 0 -156.5 -60.5t-69.5 -192.5zM142 275q19 -209 195 -209q74 0 119.5 34t45.5 107
q0 74 -47 106.5t-122 32.5q-111 0 -191 -71z" />
    <glyph glyph-name="seven.tf" horiz-adv-x="630" 
d="M58 680h520v-76l-294 -604h-90l292 600h-428v80z" />
    <glyph glyph-name="eight.tf" horiz-adv-x="630" 
d="M64 516q0 72 63 124t185 52q113 0 182 -55t71 -132q3 -105 -93 -172q117 -58 117 -160q0 -78 -68.5 -131.5t-202.5 -53.5q-133 0 -205.5 58t-72.5 141q0 50 29.5 99.5t86.5 83.5q-92 56 -92 146zM322 306q-52 14 -95 30q-50 -24 -76.5 -62t-26.5 -78q0 -61 50.5 -95.5
t145.5 -34.5q80 0 132.5 28.5t52.5 74.5q0 67 -78 102q-26 12 -105 35zM481 490q0 53 -45 88.5t-126 35.5q-74 0 -118 -27.5t-44 -69.5q0 -29 12.5 -50.5t38 -36t46.5 -23t56 -18.5l6 -1.5t5 -1.5l6 -2t34.5 -9.5t48.5 -13.5q80 52 80 129z" />
    <glyph glyph-name="nine.tf" horiz-adv-x="630" 
d="M43 469q0 105 69.5 164t174.5 59q144 0 215.5 -89.5t71.5 -251.5q0 -180 -85.5 -271.5t-223.5 -91.5q-89 0 -165 39v80q74 -39 163 -39q94 0 156.5 60.5t69.5 192.5q-97 -65 -213 -65q-93 0 -163 56.5t-70 156.5zM293 614q-74 0 -119.5 -34t-45.5 -107q0 -74 47 -106.5
t122 -32.5q111 0 191 71q-19 209 -195 209z" />
    <glyph glyph-name="zero.tosf" horiz-adv-x="630" 
d="M595 260q0 -68 -30 -128.5t-95.5 -102t-154.5 -41.5t-154.5 41.5t-95.5 102t-30 128.5t30 128.5t95.5 102t154.5 41.5t154.5 -41.5t95.5 -102t30 -128.5zM120 260q0 -80 51.5 -136t143.5 -56t143.5 56t51.5 136t-51.5 136t-143.5 56t-143.5 -56t-51.5 -136z" />
    <glyph glyph-name="one.tosf" horiz-adv-x="630" 
d="M314 520h62v-440h207v-80h-515v80h224v351l-191 -71v80z" />
    <glyph glyph-name="two.tosf" horiz-adv-x="630" 
d="M556 0h-489v50q0 38 17 69.5t37.5 49.5t60.5 35.5t61.5 24t65.5 18.5q86 23 122 46.5t36 67.5q0 43 -42 68t-118 25q-113 0 -216 -72v84q95 66 223 66q108 0 172.5 -46.5t64.5 -125.5q0 -39 -15.5 -68.5t-46.5 -51t-65.5 -36t-85.5 -29.5q-7 -2 -27 -8t-28.5 -8.5t-26 -8
t-26.5 -9.5l-22.5 -10t-20.5 -11.5t-14.5 -12t-10.5 -13.5t-3 -15l397 1v-80z" />
    <glyph glyph-name="three.tosf" horiz-adv-x="630" 
d="M536 347q0 -52 -27.5 -93.5t-71.5 -56.5q52 -16 89.5 -58.5t37.5 -113.5q0 -95 -71.5 -146t-182.5 -51q-142 0 -242 45v83q97 -50 235 -49q180 2 180 122q0 122 -171 122h-109v80l100 -1q75 -1 113.5 29.5t38.5 80.5q0 53 -43 83.5t-123 30.5q-111 0 -209 -52v82
q94 48 220 48q107 0 171.5 -51t64.5 -134z" />
    <glyph glyph-name="four.tosf" horiz-adv-x="630" 
d="M388 520h91v-451h128v-78h-128v-151h-83v151h-379v75zM396 69v338l-276 -338h276z" />
    <glyph glyph-name="five.tosf" horiz-adv-x="630" 
d="M115 520h418v-80h-339l-12 -192q54 15 126 15q51 0 95 -11.5t81.5 -36t59.5 -68t22 -102.5q0 -101 -74.5 -159t-189.5 -58q-134 0 -228 46v80q90 -48 218 -48q86 0 137.5 36t51.5 103q0 142 -202 142q-98 0 -186 -32z" />
    <glyph glyph-name="six.tosf" horiz-adv-x="630" 
d="M141 359q97 65 213 65q93 0 163 -56.5t70 -156.5q0 -105 -69.5 -164t-174.5 -59q-144 0 -215.5 89.5t-71.5 251.5q0 180 85.5 271.5t223.5 91.5q89 0 165 -39v-80q-74 39 -163 39q-94 0 -156.5 -60.5t-69.5 -192.5zM142 275q19 -209 195 -209q74 0 119.5 34t45.5 107
q0 74 -47 106.5t-122 32.5q-111 0 -191 -71z" />
    <glyph glyph-name="seven.tosf" horiz-adv-x="630" 
d="M57 520h520v-76l-294 -604h-90l292 600h-428v80z" />
    <glyph glyph-name="eight.tosf" horiz-adv-x="630" 
d="M65 516q0 72 63 124t185 52q113 0 182 -55t71 -132q3 -105 -93 -172q117 -58 117 -160q0 -78 -68.5 -131.5t-202.5 -53.5q-133 0 -205.5 58t-72.5 141q0 50 29.5 99.5t86.5 83.5q-92 56 -92 146zM323 306q-52 14 -95 30q-50 -24 -76.5 -62t-26.5 -78q0 -61 50.5 -95.5
t145.5 -34.5q80 0 132.5 28.5t52.5 74.5q0 67 -78 102q-26 12 -105 35zM482 490q0 53 -45 88.5t-126 35.5q-74 0 -118 -27.5t-44 -69.5q0 -29 12.5 -50.5t38 -36t46.5 -23t56 -18.5l6 -1.5t5 -1.5l6 -2t34.5 -9.5t48.5 -13.5q80 52 80 129z" />
    <glyph glyph-name="nine.tosf" horiz-adv-x="630" 
d="M43 309q0 105 69.5 164t174.5 59q144 0 215.5 -89.5t71.5 -251.5q0 -180 -85.5 -271.5t-223.5 -91.5q-89 0 -165 39v80q74 -39 163 -39q94 0 156.5 60.5t69.5 192.5q-97 -65 -213 -65q-93 0 -163 56.5t-70 156.5zM293 454q-74 0 -119.5 -34t-45.5 -107q0 -74 47 -106.5
t122 -32.5q111 0 191 71q-19 209 -195 209z" />
    <glyph glyph-name="zero.dnom" horiz-adv-x="436" 
d="M401 204q0 -95 -46 -153.5t-137 -58.5t-137 58.5t-46 153.5t46 153.5t137 58.5t137 -58.5t46 -153.5zM105 204q0 -146 113 -146t113 146t-113 146t-113 -146z" />
    <glyph glyph-name="one.dnom" horiz-adv-x="280" 
d="M138 408h52v-342h70v-66h-225v66h86v269l-82 -31v66z" />
    <glyph glyph-name="two.dnom" horiz-adv-x="362" 
d="M45 375q58 41 136 41q66 0 105 -30t39 -85q0 -47 -30.5 -80.5t-82.5 -64.5q-5 -3 -17 -10t-17.5 -10t-15.5 -9.5t-15 -10t-12.5 -9t-11.5 -10t-8 -10t-6 -11t-2 -11.5l220 1v-66h-296v32q0 35 10.5 62t36 49.5t39.5 31.5t49 30q58 35 73 52q16 20 16 45q0 49 -80 49
q-66 0 -130 -46v70z" />
    <glyph glyph-name="three.dnom" horiz-adv-x="366" 
d="M317 303q0 -30 -14 -53.5t-34 -34.5q64 -31 64 -102q0 -58 -44.5 -89.5t-111.5 -31.5q-79 0 -142 28v68q57 -31 136 -31q95 0 95 60t-85 60h-65v66h57q77 0 77 54t-86 54q-65 0 -122 -33v68q58 30 131 30q65 0 104.5 -30.5t39.5 -82.5z" />
    <glyph glyph-name="four.dnom" horiz-adv-x="402" 
d="M234 408h75v-259h70v-65h-70v-84h-68v84h-220v63zM241 149v166l-135 -166h135z" />
    <glyph glyph-name="five.dnom" horiz-adv-x="362" 
d="M60 408h252v-66h-186l-5 -83q24 6 53 6q66 0 112 -32.5t46 -104.5q0 -64 -47.5 -100t-118.5 -36q-75 0 -131 28v66q52 -29 122 -29q104 0 104 71q0 74 -112 74q-52 0 -102 -19z" />
    <glyph glyph-name="six.dnom" horiz-adv-x="391" 
d="M107 234q50 25 115 25q55 0 99 -35t44 -95q0 -65 -43.5 -101t-108.5 -36q-178 0 -178 209q0 104 53.5 159.5t135.5 55.5q55 0 106 -24v-67q-46 25 -104 25q-44 0 -77.5 -28t-41.5 -88zM106 166q11 -109 102 -109q86 0 86 69t-90 69q-57 0 -98 -29z" />
    <glyph glyph-name="seven.dnom" horiz-adv-x="329" 
d="M155 0h-75l156 342h-217v66h292v-64z" />
    <glyph glyph-name="eight.dnom" horiz-adv-x="403" 
d="M47 306q0 44 39 77t113 33q67 0 111 -34t46 -83q2 -58 -47 -97q61 -35 61 -95q0 -48 -41.5 -81.5t-124.5 -33.5q-81 0 -126 35.5t-45 86.5q0 62 62 105q-48 36 -48 87zM208 173q-44 14 -54 18q-51 -28 -51 -69q0 -32 27 -49t76 -17q39 0 66.5 12.5t27.5 35.5
q0 27 -20 40.5t-61 25.5q-3 0 -4 0.5t-3 1t-4 1.5zM286 286q0 29 -24 47.5t-64 18.5q-36 0 -58.5 -12.5t-22.5 -32.5q0 -7 1.5 -13.5t5 -12t6.5 -9.5t10 -8l10.5 -6t13 -6t13 -5t14.5 -4.5t14 -4.5q4 -1 20 -5.5t26 -7.5q35 28 35 61z" />
    <glyph glyph-name="nine.dnom" horiz-adv-x="391" 
d="M26 279q0 65 43.5 101t108.5 36q178 0 178 -209q0 -104 -53.5 -159.5t-136.5 -55.5q-55 0 -106 24v67q47 -25 105 -25q43 0 77 28t42 88q-50 -25 -115 -25q-55 0 -99 35t-44 95zM183 351q-87 0 -87 -69t91 -69q57 0 98 29q-11 109 -102 109z" />
    <glyph glyph-name="zero.numr" horiz-adv-x="436" 
d="M401 480q0 -95 -46 -153.5t-137 -58.5t-137 58.5t-46 153.5t46 153.5t137 58.5t137 -58.5t46 -153.5zM105 480q0 -146 113 -146t113 146t-113 146t-113 -146z" />
    <glyph glyph-name="one.numr" horiz-adv-x="280" 
d="M138 680h52v-342h70v-66h-225v66h86v269l-82 -31v66z" />
    <glyph glyph-name="two.numr" horiz-adv-x="362" 
d="M45 651q58 41 136 41q66 0 105 -30t39 -85q0 -47 -30.5 -80.5t-82.5 -64.5q-5 -3 -17 -10t-17.5 -10t-15.5 -9.5t-15 -10t-12.5 -9t-11.5 -10t-8 -10t-6 -11t-2 -11.5l220 1v-66h-296v32q0 35 10.5 62t36 49.5t39.5 31.5t49 30q58 35 73 52q16 20 16 45q0 49 -80 49
q-66 0 -130 -46v70z" />
    <glyph glyph-name="three.numr" horiz-adv-x="366" 
d="M317 579q0 -30 -14 -53.5t-34 -34.5q64 -31 64 -102q0 -58 -44.5 -89.5t-111.5 -31.5q-79 0 -142 28v68q57 -31 136 -31q95 0 95 60t-85 60h-65v66h57q77 0 77 54t-86 54q-65 0 -122 -33v68q58 30 131 30q65 0 104.5 -30.5t39.5 -82.5z" />
    <glyph glyph-name="four.numr" horiz-adv-x="402" 
d="M234 680h75v-259h70v-65h-70v-84h-68v84h-220v63zM241 421v166l-135 -166h135z" />
    <glyph glyph-name="five.numr" horiz-adv-x="362" 
d="M60 680h252v-66h-186l-5 -83q24 6 53 6q66 0 112 -32.5t46 -104.5q0 -64 -47.5 -100t-118.5 -36q-75 0 -131 28v66q52 -29 122 -29q104 0 104 71q0 74 -112 74q-52 0 -102 -19z" />
    <glyph glyph-name="six.numr" horiz-adv-x="391" 
d="M107 510q50 25 115 25q55 0 99 -35t44 -95q0 -65 -43.5 -101t-108.5 -36q-178 0 -178 209q0 104 53.5 159.5t135.5 55.5q55 0 106 -24v-67q-46 25 -104 25q-44 0 -77.5 -28t-41.5 -88zM106 442q11 -109 102 -109q86 0 86 69t-90 69q-57 0 -98 -29z" />
    <glyph glyph-name="seven.numr" horiz-adv-x="329" 
d="M155 272h-75l156 342h-217v66h292v-64z" />
    <glyph glyph-name="eight.numr" horiz-adv-x="403" 
d="M47 582q0 44 39 77t113 33q67 0 111 -34t46 -83q2 -58 -47 -97q61 -35 61 -95q0 -48 -41.5 -81.5t-124.5 -33.5q-81 0 -126 35.5t-45 86.5q0 62 62 105q-48 36 -48 87zM208 449q-44 14 -54 18q-51 -28 -51 -69q0 -32 27 -49t76 -17q39 0 66.5 12.5t27.5 35.5
q0 27 -20 40.5t-61 25.5q-7 2 -11 3zM286 562q0 29 -24 47.5t-64 18.5q-36 0 -58.5 -12.5t-22.5 -32.5q0 -7 1.5 -13.5t5 -12t6.5 -9.5t10 -8l10.5 -6t13 -6t13 -5t14.5 -4.5t14 -4.5q4 -1 20 -5.5t26 -7.5q35 28 35 61z" />
    <glyph glyph-name="nine.numr" horiz-adv-x="391" 
d="M26 555q0 65 43.5 101t108.5 36q178 0 178 -209q0 -104 -53.5 -159.5t-136.5 -55.5q-55 0 -106 24v67q47 -25 105 -25q43 0 77 28t42 88q-50 -25 -115 -25q-55 0 -99 35t-44 95zM183 627q-87 0 -87 -69t91 -69q57 0 98 29q-11 109 -102 109z" />
    <glyph glyph-name="emdash.case" horiz-adv-x="766" 
d="M700 312h-634v76h634v-76z" />
    <glyph glyph-name="endash.case" horiz-adv-x="578" 
d="M512 312h-446v76h446v-76z" />
    <glyph glyph-name="hyphen.case" horiz-adv-x="489" 
d="M66 388h357v-76h-357v76z" />
    <glyph glyph-name="guillemotleft.case" horiz-adv-x="508" 
d="M447 168h-86l-123 174v16l123 174h86l-128 -182zM260 168h-86l-123 174v16l123 174h86l-129 -182z" />
    <glyph glyph-name="guillemotright.case" horiz-adv-x="508" 
d="M333 168h-85l128 182l-128 182h85l124 -174v-16zM146 168h-85l128 182l-128 182h85l124 -174v-16z" />
    <glyph glyph-name="guilsinglleft.case" horiz-adv-x="321" 
d="M260 168h-86l-123 174v16l123 174h86l-129 -182z" />
    <glyph glyph-name="guilsinglright.case" horiz-adv-x="321" 
d="M146 168h-85l128 182l-128 182h85l124 -174v-16z" />
    <glyph glyph-name="cent.tf" horiz-adv-x="630" 
d="M394 63q69 5 125 38v-80q-57 -28 -125 -32v-109h-70v111q-92 11 -155 75t-63 172q0 109 63 173.5t155 77.5v111h70v-109q71 -6 120 -38v-78q-48 37 -120 42v-354zM324 412q-60 -13 -99 -56.5t-39 -115.5t38.5 -115.5t99.5 -57.5v345z" />
    <glyph glyph-name="currency.tf" horiz-adv-x="630" 
d="M208 186l-84 -84l-56 56l81 81q-34 45 -34 111t34 111l-81 81l56 56l84 -84q46 27 107 27t107 -27l84 84l56 -56l-81 -81q34 -45 34 -111t-34 -111l81 -81l-56 -56l-84 84q-46 -27 -107 -27t-107 27zM195 350q0 -54 32.5 -85.5t87.5 -31.5t87.5 31.5t32.5 85.5
t-32.5 85.5t-87.5 31.5t-87.5 -31.5t-32.5 -85.5z" />
    <glyph glyph-name="dollar.tf" horiz-adv-x="630" 
d="M344 -130h-70v120q-116 11 -199 58v84q105 -64 244 -64q81 0 125.5 22t44.5 77q0 44 -31.5 74t-78 44.5t-101.5 32.5t-101.5 37t-78 59t-31.5 98q0 81 58 126.5t149 52.5v119h70v-119q102 -8 175 -50v-84q-88 57 -206 55q-161 0 -161 -97q0 -36 23.5 -61.5t60.5 -40.5
t82 -27.5t90 -28.5t82 -37t60.5 -58.5t23.5 -88.5q0 -93 -63.5 -137.5t-166.5 -47.5v-118z" />
    <glyph glyph-name="Euro.tf" horiz-adv-x="630" 
d="M204 239q32 -82 109.5 -126.5t169.5 -44.5q58 0 112 17v-78q-65 -19 -130 -19q-118 0 -218 67t-132 184h-90v70h78q-1 10 -1 31t1 31h-78v70h90q32 117 131 184t214 67q65 0 130 -19v-78q-54 17 -112 17q-90 0 -166 -44.5t-108 -126.5h291v-70h-307q-1 -10 -1 -31t1 -31
h307v-70h-291z" />
    <glyph glyph-name="sterling.tf" horiz-adv-x="630" 
d="M586 0h-545v80h37q31 0 49.5 23t18.5 60v133h-75v78h75v85q0 118 69.5 175.5t180.5 57.5q82 0 150 -38v-80q-66 41 -140 41q-81 0 -128.5 -38t-47.5 -120v-83h222v-78h-222v-133q0 -62 -28 -83h384v-80z" />
    <glyph glyph-name="yen.tf" horiz-adv-x="630" 
d="M515 680h93l-214 -354h132v-70h-169v-56h169v-70h-169v-130h-84v130h-167v70h167v56h-167v70h130l-214 354h93l200 -340z" />
    </font>
</defs>
</svg>
